<svg width="30" height="40" viewBox="0 0 30 40" fill="none" xmlns="http://www.w3.org/2000/svg">
<path d="M19.7562 34.8691L12.395 36.8415C11.8705 36.982 11.3266 36.6679 11.186 36.1434C11.0455 35.6191 11.3596 35.075 11.884 34.9345L19.2451 32.9621C19.7696 32.8216 20.3136 33.1356 20.4541 33.6601C20.5948 34.1845 20.2805 34.7285 19.7562 34.8691ZM16.3479 12.2473C16.2819 13.1447 15.7744 13.6505 14.9863 13.6377C14.2017 13.625 13.6307 13.0873 13.6495 12.2684C13.6678 11.4717 14.1673 10.9484 15.0171 10.9577C15.8663 10.9668 16.2873 11.4686 16.3479 12.2473ZM25.785 9.22313C22.8566 4.38656 17.0566 2.03664 11.6683 3.61094C6.95273 4.98875 3.87812 8.10235 2.76015 12.8909C1.65359 17.6304 3.03093 21.707 6.51679 25.1209C7.33429 25.9216 8.08593 26.8915 8.54679 27.9264C9.00882 28.9638 9.15695 29.2881 10.2823 29.0158C11.8453 28.6376 13.3873 28.173 14.95 27.7934C15.7511 27.5988 16.0555 27.1516 16.0501 26.344C16.0287 23.0846 16.0359 19.825 16.0478 16.5655C16.0504 15.8277 15.8185 15.2202 15.0247 15.2018C14.2211 15.1831 13.9751 15.7703 13.9818 16.5225C14.0004 18.6357 13.9874 20.7491 13.9873 22.8623C13.9872 26.262 13.9873 26.262 10.6445 26.7504C9.37374 25.2943 8.21656 23.9854 7.07788 22.6605C2.99117 17.9053 3.73851 10.8759 8.83906 7.23524C12.5034 4.61953 16.4398 4.47399 20.3644 6.6825C24.0085 8.73328 25.991 12.9583 25.4655 17.0454C25.1145 19.7757 23.8108 21.9552 21.877 23.8287C20.71 24.9594 19.6466 26.1767 19.2637 27.8116C19.0847 28.5763 18.6559 28.9556 17.9151 29.1382C18.0536 29.0095 9.93062 31.2855 9.93062 31.2855C9.41671 31.4232 9.10898 31.9563 9.24671 32.4702L9.26788 32.5496C9.40562 33.0634 9.93866 33.3713 10.4526 33.2336C10.4526 33.2336 19.7729 30.7291 19.8951 30.6945C20.7582 30.4562 21.228 29.8417 21.2476 28.9647C21.277 27.6554 21.8459 26.6363 22.7717 25.7664C23.2673 25.3006 23.7608 24.8307 24.2272 24.3363C28.0769 20.2532 28.7122 14.058 25.785 9.22305V9.22313Z" fill="#0070C0"/>
</svg>
