<svg width="25" height="25" viewBox="0 0 25 25" fill="none" xmlns="http://www.w3.org/2000/svg">
<path d="M4.83749 5H21.4C22.9625 5 23.75 5.7375 23.75 7.2375V17.7625C23.75 19.25 22.9625 20 21.4 20H4.83749C3.27499 20 2.48749 19.25 2.48749 17.7625V7.2375C2.48749 5.7375 3.27499 5 4.83749 5ZM13.1125 15.75L21.5375 8.8375C21.8375 8.5875 22.075 8.0125 21.7 7.5C21.3375 6.9875 20.675 6.975 20.2375 7.2875L13.1125 12.1125L5.99999 7.2875C5.56249 6.975 4.89999 6.9875 4.53749 7.5C4.16249 8.0125 4.39999 8.5875 4.69999 8.8375L13.1125 15.75Z" fill="white"/>
</svg>
