<svg width="21" height="21" viewBox="0 0 21 21" fill="none" xmlns="http://www.w3.org/2000/svg">
<path fill-rule="evenodd" clip-rule="evenodd" d="M7.82185 7.34263H11.6906V9.26971C12.2479 8.16138 13.6771 7.16554 15.8239 7.16554C19.9396 7.16554 20.9166 9.37179 20.9166 13.4197V20.9166H16.75V14.3416C16.75 12.0364 16.1927 10.7364 14.7739 10.7364C12.8062 10.7364 11.9885 12.1374 11.9885 14.3405V20.9166H7.82185V7.34263ZM0.677063 20.7395H4.84373V7.16554H0.677063V20.7395ZM5.4406 2.7395C5.44076 3.08875 5.3715 3.43454 5.23684 3.75678C5.10219 4.07902 4.90483 4.37129 4.65623 4.61659C4.15248 5.11724 3.47061 5.39747 2.7604 5.39575C2.05143 5.39528 1.37114 5.11575 0.866646 4.61763C0.61895 4.37149 0.422257 4.0789 0.287838 3.75662C0.153419 3.43433 0.0839163 3.08869 0.083313 2.7395C0.083313 2.03429 0.364563 1.35929 0.867688 0.861377C1.37173 0.362584 2.05231 0.0829403 2.76144 0.0832522C3.47185 0.0832522 4.1531 0.363461 4.65623 0.861377C5.15831 1.35929 5.4406 2.03429 5.4406 2.7395Z" fill="white"/>
</svg>
