<?xml version="1.0" standalone="no"?>
<!DOCTYPE svg PUBLIC "-//W3C//DTD SVG 20010904//EN"
 "http://www.w3.org/TR/2001/REC-SVG-20010904/DTD/svg10.dtd">
<svg version="1.0" xmlns="http://www.w3.org/2000/svg"
 width="311.000000pt" height="92.000000pt" viewBox="0 0 311.000000 92.000000"
 preserveAspectRatio="xMidYMid meet">

<g transform="translate(0.000000,92.000000) scale(0.100000,-0.100000)"
fill="#0070C0" stroke="none">
<path d="M1299 708 c-54 -31 -81 -86 -81 -162 0 -115 49 -176 149 -184 68 -6
125 18 153 63 31 51 27 65 -20 65 -22 0 -40 -4 -40 -10 0 -23 -41 -50 -75 -50
-45 0 -84 39 -86 84 -4 100 23 145 89 146 31 0 72 -28 72 -50 0 -5 18 -10 40
-10 31 0 40 4 40 17 0 27 -43 82 -77 98 -45 22 -121 19 -164 -7z"/>
<path d="M300 698 c-98 -50 -128 -169 -67 -258 36 -53 70 -73 134 -78 115 -7
193 64 193 178 0 140 -135 221 -260 158z m124 -69 c14 -7 33 -28 42 -47 47
-99 -70 -189 -147 -113 -40 41 -41 97 0 140 31 33 62 39 105 20z"/>
<path d="M2230 670 c0 -23 -4 -30 -20 -30 -15 0 -20 -7 -20 -29 0 -20 6 -30
20 -34 18 -5 20 -14 20 -91 0 -73 3 -89 20 -106 25 -25 110 -29 110 -6 0 25
-12 46 -26 46 -23 0 -35 38 -32 98 3 54 4 57 31 60 23 3 27 8 27 33 0 26 -3
29 -30 29 -27 0 -30 3 -30 30 0 28 -3 30 -35 30 -32 0 -35 -2 -35 -30z"/>
<path d="M1653 620 c-60 -36 -81 -124 -47 -196 21 -43 59 -64 119 -64 55 0 97
20 112 53 11 23 10 25 -20 30 -19 3 -38 -1 -48 -9 -19 -17 -71 -18 -87 -2 -7
7 -12 20 -12 30 0 16 10 18 90 18 l90 0 0 31 c0 102 -110 163 -197 109z m105
-52 c26 -26 13 -38 -38 -38 -54 0 -59 4 -33 32 18 21 53 24 71 6z"/>
<path d="M1900 500 l0 -140 40 0 40 0 0 93 c0 101 7 117 51 117 35 0 49 -38
49 -136 l0 -74 35 0 35 0 0 105 c0 57 -5 115 -11 128 -22 48 -97 62 -143 26
l-26 -20 0 20 c0 17 -6 21 -35 21 l-35 0 0 -140z"/>
<path d="M2453 620 c-60 -36 -81 -124 -47 -196 21 -43 59 -64 119 -64 55 0 97
20 112 53 11 23 10 25 -20 30 -19 3 -38 -1 -48 -9 -19 -17 -71 -18 -87 -2 -7
7 -12 20 -12 30 0 16 10 18 90 18 l90 0 0 31 c0 102 -110 163 -197 109z m105
-52 c26 -26 13 -38 -38 -38 -54 0 -59 4 -33 32 18 21 53 24 71 6z"/>
<path d="M2700 500 l0 -140 40 0 40 0 0 88 c0 99 12 122 63 122 24 0 27 4 27
35 0 32 -3 35 -29 35 -16 0 -34 -7 -41 -15 -7 -8 -16 -15 -21 -15 -5 0 -9 7
-9 15 0 10 -11 15 -35 15 l-35 0 0 -140z"/>
<path d="M620 495 l0 -135 38 0 37 0 0 91 c0 78 3 93 19 105 24 17 28 17 52 0
16 -12 20 -29 22 -105 l4 -91 36 0 37 0 -3 112 c-3 99 -6 116 -24 136 -24 25
-84 30 -119 10 -17 -10 -23 -10 -26 0 -3 6 -20 12 -39 12 l-34 0 0 -135z"/>
<path d="M978 612 c-52 -31 -75 -124 -45 -182 32 -63 127 -89 201 -53 l35 16
-20 29 c-17 23 -24 26 -39 18 -29 -16 -75 -12 -93 8 -10 10 -17 22 -17 25 0 4
41 7 90 7 84 0 90 1 90 20 0 34 -26 85 -55 108 -34 27 -108 29 -147 4z m96
-52 c14 -5 26 -16 26 -25 0 -11 -12 -15 -50 -15 -54 0 -62 10 -28 34 27 19 21
18 52 6z"/>
</g>
</svg>
