<svg width="25" height="21" viewBox="0 0 25 21" fill="none" xmlns="http://www.w3.org/2000/svg">
<path d="M21.57 13.3162C21.45 12.4825 20.8063 11.8325 19.9775 11.6388C16.7563 10.8838 15.9488 9.02875 15.8125 6.97125C15.2413 6.865 14.225 6.75 12.5 6.75C10.775 6.75 9.75876 6.865 9.18751 6.97125C9.05126 9.02875 8.24376 10.8838 5.02251 11.6388C4.19376 11.8338 3.55001 12.4825 3.43001 13.3162L2.80876 17.6187C2.59001 19.1337 3.70251 20.5 5.25001 20.5H19.75C21.2963 20.5 22.41 19.1337 22.1913 17.6187L21.57 13.3162ZM12.5 17.365C10.7563 17.365 9.34251 15.965 9.34251 14.24C9.34251 12.515 10.7563 11.115 12.5 11.115C14.2438 11.115 15.6575 12.515 15.6575 14.24C15.6575 15.965 14.2425 17.365 12.5 17.365ZM24.9375 5.5C24.9075 3.625 20.135 0.50125 12.5 0.5C4.86376 0.50125 0.0912553 3.625 0.0625053 5.5C0.0337553 7.375 0.0887554 9.815 3.23126 9.40875C6.90751 8.9325 6.68126 7.64875 6.68126 5.81375C6.68126 4.53375 9.67126 4.225 12.5 4.225C15.3288 4.225 18.3175 4.53375 18.3188 5.81375C18.3188 7.64875 18.0925 8.9325 21.7688 9.40875C24.91 9.815 24.9663 7.375 24.9375 5.5Z" fill="white"/>
</svg>
