<svg width="134" height="30" viewBox="0 0 134 30" fill="none" xmlns="http://www.w3.org/2000/svg">
<path fill-rule="evenodd" clip-rule="evenodd" d="M60.7701 10.4316C60.0962 10.524 59.4651 10.677 59.1433 10.826C59.0079 10.889 58.8549 10.9403 58.8034 10.9403C58.752 10.9403 58.5658 11.0108 58.3898 11.0975C56.7882 11.8838 55.4223 13.2471 54.7783 14.7018C54.684 14.9149 54.5695 15.17 54.5238 15.2685C53.6749 17.1004 53.5377 21.314 54.2808 22.7436C54.3355 22.8486 54.3801 22.9875 54.3801 23.0524C54.3801 23.1172 54.5014 23.4131 54.6501 23.71C54.7984 24.007 54.9201 24.2635 54.9201 24.2803C54.9201 24.3706 55.6556 25.3689 55.9382 25.6619C58.6602 28.4871 64.3773 28.9872 67.8801 26.7065C68.423 26.3529 69.3522 25.4728 69.6499 25.0293C69.7489 24.8821 69.9213 24.6407 70.0326 24.4931C70.5974 23.7448 71.15 22.2353 71.3008 21.0299C71.4819 19.5806 71.4819 18.9749 71.3019 17.2687C71.1 15.357 70.3324 13.6601 69.1434 12.4963C68.6462 12.0099 68.0403 11.59 67.415 11.2988C67.1922 11.1953 66.9384 11.0721 66.8509 11.0255C66.763 10.9786 66.628 10.9395 66.5506 10.9388C66.4732 10.9381 66.294 10.8851 66.1521 10.8213C66.0106 10.7572 65.754 10.6866 65.5822 10.6648C65.4105 10.6429 65.2024 10.5992 65.12 10.5677C64.6185 10.3768 61.8109 10.289 60.7701 10.4316ZM80.2756 10.4087C79.9491 10.4355 79.5981 10.4882 79.4959 10.5262C79.3936 10.5641 79.1614 10.6304 78.98 10.6734C78.6106 10.7615 78.112 10.9259 77.9299 11.0194C76.942 11.5274 76.7379 11.6463 76.3023 11.9669C75.9873 12.199 75.2133 12.9881 74.9631 13.3324C74.7342 13.6472 74.3925 14.1785 74.313 14.3432C74.2734 14.4253 74.2154 14.5327 74.1841 14.5822C73.387 15.838 72.896 18.8921 73.1905 20.7613C73.2474 21.1223 73.315 21.5561 73.341 21.7256C73.4637 22.5283 74.0048 23.925 74.4386 24.559C74.9264 25.2718 75.0783 25.4617 75.4621 25.8392C75.8595 26.2304 76.6378 26.8053 76.9539 26.9411C77.0288 26.9733 77.1303 27.0246 77.18 27.0546C77.6293 27.329 78.984 27.7922 79.5499 27.8653C79.7151 27.8864 80.0121 27.9473 80.2101 28.0003C80.7476 28.1447 83.4415 28.1475 83.8699 28.0039C84.0351 27.9487 84.2914 27.886 84.4401 27.8642C84.8782 27.8004 85.5154 27.5959 86.0439 27.3498C86.3154 27.223 86.5526 27.1195 86.5713 27.1195C86.5897 27.1195 86.6779 27.0697 86.7675 27.0092C86.8568 26.9486 87.0508 26.8211 87.1988 26.7258C89.5064 25.236 90.7671 22.5409 90.7563 19.1192C90.7527 17.8712 90.5778 16.3607 90.3801 15.8656C90.3405 15.7671 90.2696 15.5404 90.2221 15.3616C90.1746 15.1829 90.113 15.0081 90.0856 14.9737C90.0583 14.9389 90.0021 14.8071 89.9611 14.6807C89.5478 13.404 87.9141 11.7301 86.5951 11.2315C86.4219 11.1659 86.2246 11.0735 86.157 11.0262C86.0889 10.9789 85.9752 10.9403 85.9042 10.9403C85.8333 10.9403 85.6569 10.8883 85.5126 10.8249C85.3682 10.7612 85.1014 10.6902 84.92 10.6669C84.7386 10.6437 84.5226 10.5985 84.4401 10.5666C83.9631 10.3822 81.6642 10.2948 80.2756 10.4087ZM89.8999 13.2686C89.8999 13.3016 89.9406 13.3284 89.9899 13.3284C90.0396 13.3284 90.0799 13.3016 90.0799 13.2686C90.0799 13.2357 90.0396 13.2088 89.9899 13.2088C89.9406 13.2088 89.8999 13.2357 89.8999 13.2686ZM73.0076 15.2427C72.9856 15.2778 72.9824 15.3208 73 15.3383C73.0429 15.381 73.1599 15.3057 73.1599 15.2352C73.1599 15.1589 73.0566 15.1639 73.0076 15.2427ZM63.9201 15.5511C65.4973 16.2987 65.8375 20.1842 64.5073 22.2586C63.7642 23.4177 61.5481 23.5872 60.6348 22.5548C59.6286 21.4172 59.6178 17.733 60.6164 16.2887C61.1974 15.4483 62.9006 15.0683 63.9201 15.5511ZM83.3101 15.5647C84.7652 16.312 85.1382 19.5666 84.0384 21.9143C83.8515 22.3127 83.3749 22.8804 83.2269 22.8804C83.1985 22.8804 83.102 22.9335 83.0127 22.9979C82.7971 23.1534 82.1098 23.2286 81.3729 23.1777C79.9128 23.0764 79.3742 22.2224 79.246 19.8059C79.1132 17.3035 79.8645 15.7299 81.3412 15.4164C81.8769 15.3025 82.9587 15.3842 83.3101 15.5647ZM79.5787 19.2267L79.6075 19.5075L79.628 19.2758C79.6392 19.1483 79.6258 19.0218 79.5988 18.9949C79.5718 18.9677 79.5625 19.0723 79.5787 19.2267Z" fill="#0070C0"/>
<path fill-rule="evenodd" clip-rule="evenodd" d="M124.73 1.03607C121.96 1.52395 119.903 3.10401 118.93 5.49254C118.886 5.59929 118.831 5.68634 118.808 5.68634C118.784 5.68634 118.746 5.82138 118.724 5.98616C118.702 6.15129 118.661 6.30066 118.632 6.31822C118.603 6.33577 118.58 6.41565 118.58 6.49589C118.58 6.57613 118.556 6.64168 118.527 6.64168C118.468 6.64168 118.449 7.00311 118.449 8.1938C118.448 9.43929 118.463 9.74628 118.524 9.74628C118.555 9.74628 118.58 9.81183 118.58 9.89171C118.58 9.97195 118.61 10.0558 118.646 10.078C118.682 10.1002 118.701 10.2094 118.688 10.3205C118.675 10.4315 118.686 10.5222 118.712 10.5222C118.738 10.5222 118.76 10.5626 118.76 10.6117C118.76 10.6611 118.781 10.7013 118.805 10.7013C118.83 10.7013 118.886 10.7887 118.93 10.8954C119.052 11.1952 119.243 11.6194 119.289 11.6931C120.587 13.7761 122.318 14.9174 124.845 15.3562C128.524 15.9949 132.369 13.1292 133.013 9.26843C133.79 4.61422 129.368 0.219708 124.73 1.03607ZM120.98 7.83559V9.32825H121.13C121.27 9.32825 121.28 9.34831 121.28 9.62663V9.92538H120.988C120.753 9.92538 120.666 9.89493 120.538 9.76777L120.38 9.61051V7.97672V6.34329H120.68H120.98V7.83559ZM123.32 7.54437C123.444 7.61386 123.6 7.76825 123.666 7.88753C123.782 8.09493 123.806 8.1809 123.889 8.68634L123.925 8.91022H123.146C122.301 8.91022 122.202 8.94783 122.423 9.18246C122.6 9.3698 122.874 9.41708 123.179 9.31249C123.439 9.22329 123.487 9.23905 123.696 9.48371C123.946 9.7778 122.773 10.0808 122.312 9.8412C121.478 9.40777 121.49 7.87607 122.33 7.50675C122.613 7.3821 123.06 7.39893 123.32 7.54437ZM125.908 7.5021C126.392 7.70377 126.514 8.05016 126.488 9.14914L126.47 9.89529L126.185 9.91356C125.957 9.92825 125.9 9.91284 125.9 9.83762C125.9 9.75201 125.883 9.75201 125.723 9.83404C125.315 10.0439 124.63 9.9132 124.458 9.59296C124.112 8.9489 124.569 8.43272 125.485 8.43272C125.939 8.43272 125.992 8.38043 125.79 8.13111C125.668 7.98246 125.17 7.94126 125.041 8.06914C124.916 8.19344 124.48 7.92514 124.536 7.75822C124.624 7.49422 125.497 7.33123 125.908 7.5021ZM127.779 7.54401L127.812 7.6701L127.99 7.54401C128.253 7.3581 128.902 7.41756 128.898 7.62675C128.895 7.77326 128.561 8.12466 128.476 8.07093C128.007 7.77505 127.794 8.08419 127.77 9.09863L127.751 9.93111L127.44 9.9132L127.13 9.89529L127.114 8.7329C127.105 8.0935 127.111 7.53613 127.127 7.49422C127.181 7.35272 127.74 7.39535 127.779 7.54401ZM129.901 7.5329C129.931 7.6461 129.934 7.6461 130.121 7.5329C130.919 7.04896 131.436 7.67153 131.407 9.0818L131.39 9.89529L131.105 9.91356L130.82 9.93183V9.19714C130.82 8.26437 130.738 8.0541 130.367 8.02687C129.966 7.9975 129.927 8.08705 129.907 9.06246L129.89 9.89529L129.605 9.91356L129.32 9.93183V8.67487V7.41792H129.596C129.817 7.41792 129.877 7.44048 129.901 7.5329ZM122.618 8.01541C122.46 8.07917 122.275 8.34353 122.328 8.43022C122.374 8.50329 123.239 8.51547 123.283 8.44347C123.33 8.36825 123.093 8.01469 122.996 8.01469C122.949 8.01469 122.874 8.00323 122.83 7.98854C122.786 7.97422 122.691 7.9864 122.618 8.01541ZM125.027 9.04705L124.861 9.18962L124.99 9.31857C125.265 9.59189 125.927 9.42962 125.888 9.09863C125.861 8.86544 125.28 8.83069 125.027 9.04705ZM110.66 10.0765C109.762 10.1622 108.722 10.3405 107.99 10.5343C106.002 11.0613 104.626 11.5692 104.248 11.9149C103.72 12.3985 105.145 17.4804 105.87 17.6964C106.117 17.7702 105.998 17.8171 107.24 17.154C108.825 16.3072 109.92 15.9949 111.32 15.9891L112.31 15.9848L112.7 16.1733C113.675 16.6439 114.227 17.6283 113.962 18.4268C113.818 18.8605 113.656 18.8871 112.64 18.6435C109.725 17.945 107.074 18.3469 105.546 19.7192C103.785 21.3007 103.421 24.5844 104.766 26.7508C106.158 28.9918 110.362 28.9585 112.854 26.6863C113.481 26.115 113.531 26.1111 113.813 26.6129C114.65 28.1016 117.042 28.6085 119.29 27.7735C120.194 27.4375 120.26 27.2082 120.26 24.4296C120.259 22.5462 120.219 22.4437 119.382 22.1897C118.271 21.8527 118.127 21.1878 118.637 18.761C119.081 16.6486 119.139 16.2685 119.139 15.5074C119.135 11.6666 115.877 9.58007 110.66 10.0765ZM26.1039 10.342C20.7896 10.8571 17.7775 13.9509 17.2393 19.4473C16.515 26.8407 24.4335 30.929 30.8901 26.4951C31.154 26.3138 31.505 26.0742 31.6699 25.9624C32.2621 25.5616 32.9609 24.8419 32.9605 24.6327C32.9598 24.2874 32.2013 23.0505 31.0529 21.5228C29.7392 19.7754 29.7194 19.7665 28.8349 20.5423C25.7241 23.2712 23.3485 22.6074 23.7042 19.1091C23.9551 16.6418 25.7133 15.9795 29.5099 16.923C31.3538 17.3811 31.3214 17.4141 31.7887 14.6118C31.8438 14.2834 31.9129 13.9047 31.9424 13.7697C32.0889 13.1066 32.2524 11.336 32.1872 11.1196C32.0623 10.7041 31.8067 10.6282 29.7799 10.4025C29.0437 10.3205 26.7199 10.2825 26.1039 10.342ZM112.405 21.0539C113.371 21.2097 113.588 21.4242 113.512 22.1485C113.425 22.9688 113.014 23.3399 111.74 23.7454C110.301 24.2036 109.517 23.5474 109.959 22.2535C110.235 21.4443 110.729 21.1069 111.83 20.9776C111.863 20.9736 112.122 21.008 112.405 21.0539Z" fill="#0070C0"/>
<path fill-rule="evenodd" clip-rule="evenodd" d="M36.59 4.97216C34.8404 5.10935 34.8465 5.10828 34.7933 5.28308C34.6561 5.73586 34.6439 26.964 34.781 27.1005C34.8789 27.1979 40.1987 27.1156 40.5896 27.0106L40.9701 26.9085L40.9658 26.3125C40.9633 25.9847 40.9388 24.1019 40.9111 22.1286L40.8607 18.5404L41.1253 18.2549C41.3867 17.9726 42.4879 17.1491 42.6042 17.1491C42.6369 17.1491 42.732 17.0961 42.8148 17.0309C43.2576 16.6845 44.3163 16.6963 44.7105 17.0524C45.5087 17.7728 45.8485 19.9313 45.5814 22.5857C45.3981 24.4064 45.4406 27.0518 45.6566 27.2667C45.7859 27.3953 48.1734 27.3978 48.7181 27.2699C48.9204 27.2227 49.3794 27.1657 49.7379 27.1435C50.0965 27.1213 50.4601 27.0679 50.5454 27.0249C50.6307 26.9823 50.877 26.9164 51.0923 26.8791C51.3075 26.8419 51.5725 26.7577 51.6805 26.6925L51.8774 26.5732L51.8414 26.0553C51.6863 23.8251 51.6611 22.1142 51.7363 18.9215C51.8184 15.4426 51.8126 15.2886 51.557 14.1867C51.2679 12.9394 50.2866 11.7305 49.1227 11.1885C48.9866 11.1251 48.857 11.0434 48.8343 11.0069C48.8116 10.97 48.7303 10.9403 48.654 10.9403C48.5777 10.9403 48.3969 10.8887 48.2526 10.8253C47.7183 10.5914 45.2919 10.6068 44.9488 10.8461C44.8743 10.8976 44.7379 10.9403 44.6454 10.9403C44.4863 10.9403 43.6781 11.3089 43.3447 11.5338C43.2597 11.5911 43.07 11.7162 42.9231 11.8114C42.2953 12.2198 41.6217 12.9817 41.1753 13.7898C40.6569 14.7283 40.5 13.8296 40.824 11.776C40.8578 11.5625 40.9237 10.797 40.9709 10.0745C41.0177 9.35234 41.0972 8.33144 41.1476 7.80595C41.3186 6.01849 41.3654 5.38517 41.3301 5.32857C41.2679 5.22828 40.8485 5.14875 40.0597 5.0875C39.6363 5.05454 38.966 5.00189 38.57 4.97037C37.7816 4.90768 37.4065 4.90804 36.59 4.97216ZM93.992 4.95246C93.8581 4.96965 93.7774 5.02052 93.7432 5.10863C93.6385 5.37729 93.385 7.37896 93.2918 8.67174C93.2716 8.95078 93.2158 9.56869 93.1676 10.0448C93.1194 10.5208 93.0538 11.6223 93.0222 12.4924C92.9901 13.3625 92.9336 14.7674 92.8965 15.6142C92.8458 16.7691 92.8461 17.4858 92.8983 18.4799C92.9365 19.2092 92.9908 20.3028 93.0196 20.9103C93.1341 23.3325 93.709 25.1594 94.7275 26.3357C94.8963 26.531 95.6394 27.1195 95.7168 27.1195C95.7517 27.1195 95.9083 27.184 96.0649 27.2628C96.6848 27.5748 97.4232 27.7113 98.51 27.7141C99.3042 27.7163 100.755 27.5823 101.019 27.482C101.112 27.4465 101.281 27.4179 101.396 27.4179C101.51 27.4179 101.766 27.3634 101.964 27.2972C102.163 27.2305 102.425 27.1557 102.547 27.1306C102.769 27.0851 102.77 27.083 102.842 26.6692C102.929 26.1606 102.795 23.8294 102.645 23.2645C102.443 22.4997 102.188 21.5268 102.138 21.3276C101.98 20.6961 101.777 20.4335 101.549 20.5675C101.456 20.6223 101.26 20.6854 101.115 20.7076C100.969 20.7298 100.777 20.7846 100.688 20.8294C100.403 20.9723 99.6645 20.935 99.3175 20.7599C98.803 20.5005 98.6609 20.2168 98.4189 18.9677C98.2818 18.2596 98.4196 16.0071 98.721 14.0449C98.784 13.6344 98.8776 12.9896 98.9287 12.612C98.9802 12.2341 99.0586 11.7104 99.1033 11.4479C99.1483 11.1849 99.2163 10.7418 99.2548 10.4628C99.293 10.1834 99.3654 9.74923 99.4154 9.49741C99.4651 9.24559 99.5425 8.81574 99.5868 8.54207C99.7002 7.84571 99.8456 7.12607 100.007 6.46266C100.106 6.05753 100.126 5.88416 100.077 5.85622C99.9248 5.76738 99.2527 5.56714 99.108 5.56714C99.0223 5.56714 98.7177 5.51556 98.4312 5.45252C97.5355 5.2555 96.4839 5.08929 96.1362 5.08929C95.9522 5.08929 95.6552 5.06457 95.4759 5.03413C95.0608 4.96392 94.249 4.91914 93.992 4.95246ZM7.61001 9.33049C7.44513 9.3552 7.08045 9.40392 6.80001 9.43831C6.51957 9.47305 6.13545 9.55652 5.94645 9.62386C5.75745 9.6912 5.54145 9.74637 5.46657 9.74637C5.30889 9.74672 4.66377 9.99998 4.10109 10.283C2.87169 10.9009 1.92345 11.8208 1.39065 12.9122C1.05729 13.5946 0.986373 13.7855 0.946773 14.1043C0.924453 14.2849 0.869013 14.594 0.824013 14.791C0.606573 15.7385 0.879813 17.1799 1.42305 17.9533C2.39145 19.3324 3.90813 19.8994 6.95013 20.0209C9.13533 20.1079 10.04 20.5829 10.04 21.6439C10.04 22.475 9.52917 22.8758 8.46609 22.8787C7.66977 22.8808 7.64097 22.8751 6.45081 22.4846C5.92701 22.3131 4.75017 21.7174 4.33437 21.4139C4.17129 21.2947 4.00029 21.2116 3.95421 21.2288C3.83037 21.276 2.32053 23.2025 2.22657 23.4332C2.20245 23.4919 2.14161 23.5557 2.09157 23.575C2.04117 23.594 2.00013 23.6381 2.00013 23.6725C2.00013 23.7068 1.93389 23.8211 1.85325 23.9264C1.19697 24.7825 1.06089 25.4531 1.46661 25.8296C1.75713 26.0986 2.92425 26.7957 3.19209 26.8602C3.27885 26.8809 3.41745 26.944 3.49989 27.0006C3.58269 27.0568 3.75081 27.1213 3.87429 27.1435C3.99741 27.1657 4.21341 27.2363 4.35417 27.2997C4.49493 27.3634 4.69941 27.4157 4.80885 27.4165C4.91829 27.4172 5.05941 27.4455 5.12277 27.4791C5.79057 27.8348 9.42873 27.9581 10.67 27.6668C12.3095 27.2825 13.136 26.8834 14.0223 26.0485C15.777 24.395 16.0481 20.9608 14.5476 19.3976C13.8837 18.7059 12.6641 18.1582 11.4653 18.0128C11.1103 17.9698 10.7323 17.9078 10.625 17.8752C10.5177 17.8422 9.97089 17.8036 9.41001 17.7896C8.36349 17.7631 8.27241 17.7448 7.58121 17.4267C6.82305 17.0775 6.61029 16.3736 7.09665 15.8237C7.56357 15.2961 7.85337 15.2091 9.14001 15.2091L10.2499 15.2094L10.8965 15.4333C11.6708 15.7012 12.006 15.8696 12.677 16.3263C13.3459 16.7819 13.41 16.7787 13.8834 16.2686C14.6883 15.4014 15.5703 13.7243 15.8357 12.5562C15.8835 12.3445 15.9627 12.055 16.0113 11.9121C16.1978 11.3662 16.1186 11.1584 15.6218 10.8873C15.2175 10.6662 14.2952 10.2239 14.2391 10.2239C14.2038 10.2239 14.0695 10.1701 13.9399 10.1046C13.8107 10.0387 13.6562 9.98493 13.5965 9.98493C13.5371 9.98493 13.3877 9.9312 13.2642 9.86565C13.1411 9.8001 12.9657 9.74637 12.8747 9.74637C12.7836 9.74637 12.4664 9.67938 12.1694 9.59771C11.8728 9.51604 11.5221 9.44834 11.39 9.44726C11.2579 9.44655 10.9069 9.40607 10.6099 9.35735C10.0375 9.26386 8.16657 9.24702 7.61001 9.33049ZM1.59945 26.968C1.61061 27.002 1.65597 27.0299 1.69989 27.0299C1.74417 27.0299 1.78917 27.002 1.80069 26.968C1.81221 26.934 1.76685 26.906 1.69989 26.906C1.63329 26.906 1.58793 26.934 1.59945 26.968Z" fill="#0070C0"/>
<path fill-rule="evenodd" clip-rule="evenodd" d="M124.785 0.778557C124.81 0.821184 124.803 0.888169 124.77 0.92793C124.724 0.983452 124.917 0.99993 125.62 0.99993C126.121 0.99993 126.679 1.02035 126.86 1.04506C127.091 1.07623 127.149 1.07265 127.055 1.03181C126.978 0.998856 126.92 0.921482 126.92 0.851273C126.92 0.739154 126.908 0.735572 126.785 0.811512C126.571 0.943333 125.009 0.935094 124.855 0.801482C124.791 0.746318 124.76 0.736288 124.785 0.778557ZM127.52 1.17939C130.212 1.9259 132.023 3.66106 132.847 6.28351C133.158 7.27396 133.164 9.21939 132.858 10.0193C132.778 10.2299 132.779 10.4083 132.86 10.2836C132.892 10.2342 132.918 10.1364 132.919 10.0658C132.92 9.93617 133.066 9.8373 133.165 9.89892C133.195 9.91718 133.22 9.89283 133.22 9.84411C133.22 9.79575 133.193 9.74704 133.16 9.73629C133.074 9.70727 133.073 9.50202 133.156 8.73115C133.218 8.15551 133.215 7.94596 133.141 7.43193C133.053 6.83157 133.061 6.5819 133.167 6.5819C133.279 6.5819 133.214 6.47014 133.091 6.45187C132.955 6.43181 132.803 6.05677 132.801 5.7376C132.8 5.65092 132.761 5.56495 132.713 5.54668C132.666 5.52841 132.609 5.41915 132.587 5.30381C132.565 5.18811 132.51 5.06274 132.464 5.02477C132.418 4.98644 132.38 4.89259 132.38 4.81557C132.38 4.73712 132.328 4.64793 132.261 4.61211C132.195 4.57736 132.124 4.47993 132.103 4.39611C132.082 4.31229 131.999 4.17187 131.918 4.08447C131.837 3.99706 131.733 3.8828 131.686 3.83086C131.639 3.77856 131.6 3.71086 131.6 3.67969C131.6 3.64889 131.553 3.57832 131.495 3.5228C131.301 3.33653 131.2 3.20972 131.162 3.10441C131.141 3.04709 131.096 2.99981 131.062 2.99981C131.028 2.99981 130.939 2.945 130.865 2.87766C130.597 2.63551 130.544 2.59217 130.14 2.28948C129.915 2.12077 129.618 1.9259 129.48 1.85641C129.343 1.78692 129.217 1.71026 129.2 1.6859C129.183 1.66154 129.084 1.62321 128.979 1.60065C128.874 1.57808 128.756 1.52077 128.717 1.47384C128.678 1.42656 128.587 1.38787 128.515 1.38787C128.444 1.38787 128.281 1.33521 128.154 1.27074C128.026 1.2059 127.757 1.13856 127.556 1.12029L127.19 1.08769L127.52 1.17939ZM123.68 1.20877C123.561 1.28542 123.711 1.28542 123.89 1.20877L124.01 1.15754L123.89 1.15432C123.824 1.15253 123.729 1.17689 123.68 1.20877ZM35.6159 4.74071C35.6313 4.88077 35.5266 4.92375 34.9913 4.99683C34.6115 5.04912 34.6377 4.78047 34.5729 9.26847C34.5103 13.5799 34.4718 14.5352 34.3551 14.6509C34.2349 14.7698 34.249 17.4847 34.3699 17.6054C34.4473 17.6824 34.4599 18.0761 34.4599 20.4091C34.4599 22.7665 34.448 23.1276 34.3699 23.1573C34.2558 23.201 34.2565 23.2927 34.3721 23.5234C34.5103 23.7992 34.5791 24.5704 34.5794 25.8535L34.5802 27.0052L34.7367 27.1614L34.8937 27.3175L37.5419 27.2767C40.1702 27.2362 40.8704 27.1854 41.0047 27.0242C41.0432 26.978 41.1523 26.9403 41.2473 26.9403H41.4201V26.3995C41.4201 26.0706 41.3975 25.8725 41.3625 25.8937C41.1447 26.0276 40.8424 19.7052 41.0213 18.7567C41.0922 18.3813 42.0512 17.5664 42.98 17.0925C43.533 16.8102 44.5824 16.9381 44.7228 17.3052C44.7516 17.3808 44.8304 17.4976 44.8977 17.5646C44.9651 17.6316 45.0202 17.7211 45.0202 17.7634C45.0202 17.8057 45.0742 17.9457 45.14 18.0747C45.284 18.3559 45.3006 18.7495 45.1699 18.7993C45.1206 18.818 45.0799 18.8742 45.0799 18.924C45.0799 18.9978 45.0968 19.0006 45.1699 18.9401C45.4619 18.6994 45.6231 21.1083 45.4187 22.6572C45.3186 23.4177 45.2916 23.5023 45.1638 23.4535C45.1094 23.4328 45.0799 23.4629 45.0799 23.5392C45.0799 23.6036 45.1177 23.6566 45.1638 23.6566C45.2923 23.6566 45.3398 25.0085 45.2639 26.5073C45.2617 26.5485 45.2196 26.5821 45.1699 26.5821C45.1195 26.5821 45.0799 26.6355 45.0799 26.7039C45.0799 26.7835 45.1137 26.82 45.1757 26.8085C45.2415 26.7963 45.3114 26.8877 45.3999 27.1015C45.5173 27.3867 45.5479 27.4157 45.7689 27.4547C46.2096 27.5328 48.3404 27.4863 48.9935 27.3842C49.3326 27.3312 49.8261 27.266 50.09 27.2387C50.5577 27.1907 50.6829 27.1635 50.9299 27.0564C50.9961 27.0277 51.2093 26.9769 51.404 26.9429C51.6431 26.9013 51.786 26.8418 51.8436 26.7598C51.8908 26.6932 51.9609 26.6423 51.9995 26.6473C52.209 26.6728 52.2201 26.6427 52.2201 26.0448C52.2201 25.7163 52.1993 25.4477 52.1737 25.4477C51.8972 25.4477 51.8904 25.323 51.8818 19.87C51.8771 17.0438 51.8691 14.6781 51.8641 14.6129C51.8587 14.5481 51.8965 14.4643 51.9473 14.4274C52.0707 14.3375 52.0736 14.0789 51.9505 14.1258C51.8249 14.1738 51.6391 13.9549 51.5912 13.7027C51.5693 13.586 51.5127 13.452 51.4656 13.4051C51.4184 13.3581 51.3799 13.2593 51.3799 13.1851C51.3799 13.1113 51.3126 12.9874 51.2302 12.9104C51.1477 12.8334 51.08 12.7338 51.08 12.689C51.08 12.6446 51.0393 12.5926 50.99 12.5737C50.9403 12.555 50.9 12.4884 50.9 12.4264C50.9 12.3641 50.8626 12.3132 50.8165 12.3132C50.7708 12.3132 50.7168 12.2495 50.6973 12.1714C50.6775 12.0929 50.6063 12.0149 50.5389 11.9973C50.4716 11.9798 50.4241 11.9303 50.4335 11.887C50.4425 11.844 50.3892 11.7996 50.315 11.7881C50.2409 11.777 50.18 11.7294 50.18 11.6824C50.18 11.6355 50.1397 11.5968 50.0904 11.5968C50.0414 11.5968 49.9673 11.5431 49.9262 11.4775C49.8848 11.412 49.8045 11.3583 49.7477 11.3583C49.6908 11.3583 49.6152 11.3045 49.5799 11.2386C49.5446 11.1731 49.4561 11.119 49.383 11.1183C49.1709 11.1168 49.0802 11.0294 49.1133 10.8571C49.1422 10.707 49.0727 10.6332 49.028 10.7665C48.9938 10.8693 48.5784 10.8557 48.4578 10.7479C48.3969 10.6938 48.1471 10.6236 47.8854 10.5874C47.268 10.5025 46.9343 10.2793 47.3152 10.2063C47.3893 10.1919 47.0721 10.1805 46.6099 10.1805C46.148 10.1805 45.8309 10.1919 45.905 10.2063C46.2607 10.2743 45.8265 10.5483 45.2739 10.6042C45.1001 10.6218 44.8841 10.6759 44.7937 10.7239C44.7037 10.7719 44.5025 10.8435 44.3462 10.8833C44.19 10.9227 44.0316 10.9922 43.9938 11.0373C43.956 11.0824 43.8879 11.1193 43.8426 11.1193C43.7969 11.1193 43.659 11.1731 43.5359 11.2386C43.4124 11.3045 43.2795 11.3583 43.2399 11.3583C43.2003 11.3583 43.151 11.412 43.1301 11.4775C43.1089 11.5431 43.0531 11.5968 43.0052 11.5968C42.9577 11.5968 42.8727 11.6506 42.8162 11.7165C42.7597 11.782 42.6654 11.8358 42.6067 11.8358C42.548 11.8358 42.5002 11.8759 42.5002 11.9253C42.5002 11.9765 42.4461 12.0149 42.3745 12.0149C42.2993 12.0149 42.2363 12.0629 42.2175 12.1341C42.2003 12.2 42.1481 12.2538 42.1016 12.2538C42.0552 12.2538 41.9933 12.3165 41.9637 12.3928C41.9346 12.4694 41.8273 12.6102 41.7254 12.7062C41.6236 12.8018 41.54 12.9 41.54 12.9243C41.54 12.9587 41.2607 13.3513 40.9579 13.7421C40.9471 13.7565 40.9086 13.7389 40.8726 13.7031C40.7729 13.6039 40.8697 13.0372 41.0065 12.9208C41.0688 12.8678 41.1221 12.7563 41.1242 12.6732C41.1282 12.5353 41.1329 12.5328 41.18 12.6417C41.2171 12.7277 41.2329 12.6646 41.2358 12.4178C41.238 12.2291 41.2189 12.0747 41.1933 12.0747C40.9406 12.0747 41.0169 10.0347 41.279 9.78787C41.4227 9.65247 41.4993 8.73115 41.3669 8.73115C41.207 8.73115 41.2826 7.65617 41.4641 7.35026C41.5533 7.20017 41.5685 7.1948 41.639 7.28686C41.7589 7.44375 41.7506 6.17354 41.63 5.88626C41.5803 5.76841 41.54 5.58286 41.54 5.4736C41.54 5.36471 41.5166 5.26118 41.4882 5.24363C41.4594 5.22608 41.4504 5.13724 41.4677 5.04626C41.4965 4.89617 41.4896 4.88829 41.3978 4.96423C41.2769 5.06345 40.0921 5.01832 39.74 4.90083C39.5701 4.84423 37.6661 4.78942 35.915 4.79086C35.8351 4.79086 35.78 4.75468 35.78 4.7013C35.78 4.65223 35.7397 4.61175 35.6908 4.61175C35.6349 4.61175 35.6069 4.66011 35.6159 4.74071ZM95.5184 4.7013C95.49 4.77509 95.3334 4.79086 94.6289 4.79086C93.6252 4.79086 93.4999 4.85533 93.4999 5.3708C93.4999 5.82536 93.2886 6.4705 93.1575 6.41605C93.1356 6.40709 93.1115 6.44077 93.1043 6.49091C93.0967 6.54106 93.1158 6.5819 93.1467 6.5819C93.2814 6.5819 93.3001 6.89605 93.218 7.77617C93.1349 8.66954 93.0369 9.02453 92.8973 8.93856C92.8659 8.91921 92.84 8.98262 92.84 9.07969C92.84 9.18106 92.8782 9.27026 92.93 9.29032C93.0463 9.33438 93.0459 9.67253 92.9286 10.8804C92.8793 11.3894 92.8217 11.9866 92.8008 12.2072C92.7799 12.4279 92.7396 12.5941 92.7115 12.5769C92.6831 12.5593 92.6561 12.5805 92.651 12.6231C92.646 12.6661 92.6229 12.5805 92.5999 12.4329C92.5671 12.2219 92.556 12.2918 92.5491 12.756C92.5441 13.0816 92.5585 13.3298 92.5812 13.3073C92.7331 13.1558 92.8091 13.6949 92.7612 14.5897C92.7342 15.0944 92.7252 16.5487 92.741 17.8211C92.7691 20.0774 92.7666 20.1369 92.6507 20.2175C92.5632 20.2787 92.5524 20.3088 92.6107 20.3321C92.6697 20.3554 92.6708 20.3647 92.615 20.3683C92.5614 20.3719 92.5427 20.4969 92.5491 20.806C92.5567 21.1692 92.5639 21.1975 92.5941 20.9819L92.6301 20.7254L92.7014 20.8923C92.7407 20.9844 92.8004 21.2477 92.8343 21.4777C92.8681 21.7073 92.9271 22.0913 92.9653 22.3302C93.0276 22.7185 93.024 22.7772 92.9318 22.8786C92.8217 22.9997 92.8515 23.1193 92.9916 23.1193C93.1187 23.1193 93.1971 23.3113 93.2403 23.7286C93.2619 23.9357 93.3275 24.1714 93.3861 24.2538C93.4448 24.3358 93.5057 24.4895 93.5211 24.5955C93.5366 24.7015 93.6057 24.8595 93.6745 24.9469C93.7436 25.0343 93.8001 25.1446 93.8001 25.1926C93.8001 25.2403 93.8541 25.3477 93.92 25.4316C93.9859 25.515 94.0399 25.62 94.0399 25.6648C94.0399 25.7095 94.0669 25.7461 94.1 25.7461C94.1331 25.7461 94.1601 25.8091 94.1601 25.8858C94.1601 25.9775 94.2123 26.0491 94.3117 26.0943C94.3952 26.1322 94.4802 26.2067 94.5011 26.2605C94.5461 26.3776 95.0256 26.8293 95.1843 26.9038C95.2466 26.9332 95.3132 27.0073 95.3327 27.0682C95.3539 27.1349 95.4245 27.1789 95.5098 27.1789C95.6516 27.1789 95.8399 27.3179 95.8399 27.4221C95.8399 27.4526 95.9 27.4777 95.9731 27.4777C96.0462 27.4777 96.215 27.5156 96.3479 27.5618C97.1679 27.8477 98.6875 27.9788 99.6501 27.8466C101.001 27.6611 101.518 27.569 102.11 27.4075C102.473 27.3086 102.796 27.2033 102.827 27.1735C102.858 27.1438 102.96 27.1195 103.052 27.1195C103.244 27.1195 103.293 26.8959 103.13 26.7612C103.058 26.7018 103.04 26.5223 103.04 25.8625C103.04 25.2095 103.059 25.0196 103.13 24.9487C103.228 24.8513 103.247 24.0861 103.16 23.7462L103.114 23.5671L103.107 23.7387C103.096 24.0034 102.955 23.8411 102.862 23.4582C102.805 23.2186 102.802 23.1072 102.853 23.0133C102.951 22.8306 102.937 22.7783 102.777 22.7382C102.585 22.6902 102.502 22.232 102.646 22.0128C102.771 21.8233 102.766 21.8058 102.592 21.8058C102.399 21.8058 102.306 21.627 102.306 21.2581C102.306 21.0288 102.281 20.9532 102.187 20.9038C102.092 20.8529 102.076 20.8014 102.106 20.6445C102.161 20.3489 101.655 20.2866 101.184 20.5313C100.957 20.6491 100.296 20.6115 100.374 20.4851C100.392 20.4564 100.377 20.4328 100.34 20.4328C100.299 20.4328 100.287 20.4811 100.31 20.552C100.359 20.7039 100.095 20.8246 99.9201 20.7312C99.8582 20.6986 99.7139 20.6717 99.599 20.6717C99.0493 20.6717 98.4672 19.5226 98.6702 18.8384C98.712 18.6976 98.7674 18.5819 98.793 18.5819C98.8189 18.5819 98.8401 18.2194 98.8401 17.7759C98.8401 17.3328 98.8185 16.97 98.7919 16.97C98.6443 16.97 98.5889 16.5319 98.6616 15.9344C98.7404 15.2821 98.7944 15.1195 98.9323 15.1195C99.0569 15.1195 99.0475 14.7111 98.9197 14.5707C98.8315 14.4736 98.8272 14.4081 98.8848 14.0387C98.9636 13.5319 99.202 13.2009 99.2786 13.4925C99.2937 13.5498 99.3092 13.5082 99.3132 13.3997C99.3168 13.2912 99.2635 13.0787 99.1944 12.9276C98.9867 12.4744 99.1624 11.599 99.4432 11.6875C99.5331 11.7161 99.5601 11.696 99.5601 11.6011C99.5601 11.5331 99.5324 11.4775 99.4986 11.4775C99.3614 11.4775 99.3164 11.1645 99.383 10.678C99.468 10.0598 99.6577 9.81653 99.761 10.1941C99.779 10.2596 99.779 10.1969 99.7607 10.0547C99.7427 9.91253 99.6937 9.73056 99.6519 9.65068C99.5141 9.38632 99.7599 8.561 99.954 8.63515C100.079 8.6828 100.068 8.31706 99.9417 8.225C99.7938 8.11754 99.8795 7.63754 100.074 7.48566C100.223 7.36853 100.274 7.09987 100.16 7.02966C99.9713 6.9136 100.172 6.28351 100.398 6.28351C100.529 6.28351 100.522 6.20292 100.37 5.94966C100.196 5.66023 99.8622 5.54883 98.3387 5.27265C97.6835 5.15372 97.4801 5.0108 97.745 4.85426C97.835 4.80124 97.8289 4.79444 97.7 4.80662C97.6176 4.8145 97.529 4.87181 97.5035 4.9345C97.4095 5.16447 95.8269 4.9868 95.7909 4.74214C95.7686 4.59205 95.5717 4.56268 95.5184 4.7013ZM38.57 4.97032C38.966 5.00184 39.6363 5.0545 40.0597 5.08745C40.8485 5.14871 41.2679 5.22823 41.3302 5.32853C41.3654 5.38512 41.3186 6.01844 41.1476 7.8059C41.0972 8.33139 41.0177 9.35229 40.9709 10.0744C40.9237 10.7969 40.8578 11.5624 40.824 11.7759C40.666 12.7778 40.6127 14.0563 40.7253 14.1383C40.882 14.2522 40.9482 14.201 41.1754 13.7898C41.6217 12.9817 42.2953 12.2198 42.9231 11.8114C43.07 11.7161 43.2598 11.5911 43.3447 11.5338C43.6781 11.3088 44.4863 10.9402 44.6454 10.9402C44.7379 10.9402 44.8743 10.8976 44.9489 10.846C45.2919 10.6067 47.7183 10.5913 48.2526 10.8252C48.3969 10.8886 48.5777 10.9402 48.654 10.9402C48.7303 10.9402 48.8117 10.97 48.8343 11.0069C48.857 11.0434 48.9866 11.1251 49.1227 11.1885C50.2866 11.7304 51.2679 12.9394 51.557 14.1867C51.8126 15.2885 51.8184 15.4426 51.7363 18.9215C51.6611 22.1142 51.6863 23.825 51.8414 26.0552L51.8774 26.5732L51.6805 26.6925C51.5725 26.7577 51.3075 26.8418 51.0923 26.8791C50.877 26.9163 50.6307 26.9823 50.5454 27.0249C50.4601 27.0679 50.0965 27.1212 49.7379 27.1435C49.3794 27.1657 48.9204 27.2226 48.7181 27.2699C48.1734 27.3978 45.7859 27.3953 45.6566 27.2667C45.4406 27.0518 45.3981 24.4064 45.5814 22.5856C45.8485 19.9313 45.5087 17.7727 44.7106 17.0523C44.3164 16.6963 43.2576 16.6845 42.8148 17.0309C42.732 17.096 42.6369 17.1491 42.6042 17.1491C42.4879 17.1491 41.3867 17.9726 41.1253 18.2549L40.8607 18.5403L40.9111 22.1285C40.9388 24.1019 40.9633 25.9846 40.9658 26.3124L40.9701 26.9085L40.5896 27.0106C40.1987 27.1155 34.8789 27.1979 34.781 27.1005C34.6439 26.964 34.6561 5.73581 34.7933 5.28303C34.8397 5.1308 34.8977 5.1136 35.5701 5.05593C37.3485 4.90262 37.6207 4.89474 38.57 4.97032ZM95.4759 5.03408C95.6552 5.06453 95.9522 5.08924 96.1362 5.08924C96.4839 5.08924 97.5355 5.25545 98.4312 5.45247C98.7178 5.51551 99.0223 5.56709 99.108 5.56709C99.2527 5.56709 99.9248 5.76733 100.077 5.85617C100.126 5.88411 100.106 6.05748 100.007 6.46262C99.8456 7.12602 99.7002 7.84566 99.5868 8.54202C99.5425 8.81569 99.4651 9.24554 99.4154 9.49736C99.3654 9.74918 99.293 10.1833 99.2549 10.4627C99.2163 10.7418 99.1483 11.1849 99.1033 11.4478C99.0587 11.7104 98.9802 12.2341 98.9287 12.612C98.8776 12.9895 98.784 13.6343 98.721 14.0448C98.4197 16.0071 98.2818 18.2595 98.419 18.9677C98.6609 20.2168 98.8031 20.5005 99.3175 20.7598C99.6646 20.935 100.403 20.9722 100.688 20.8293C100.777 20.7845 100.969 20.7297 101.115 20.7075C101.26 20.6853 101.456 20.6223 101.549 20.5675C101.777 20.4335 101.98 20.6961 102.138 21.3276C102.188 21.5267 102.443 22.4996 102.645 23.2644C102.795 23.8293 102.929 26.1605 102.842 26.6692C102.77 27.0829 102.769 27.0851 102.547 27.1306C102.425 27.1556 102.163 27.2305 101.964 27.2971C101.766 27.3634 101.51 27.4178 101.396 27.4178C101.281 27.4178 101.112 27.4465 101.019 27.482C100.755 27.5823 99.3042 27.7162 98.51 27.7141C97.4232 27.7112 96.6848 27.5747 96.0649 27.2627C95.9083 27.1839 95.7517 27.1195 95.7168 27.1195C95.6394 27.1195 94.8963 26.5309 94.7275 26.3357C93.7091 25.1593 93.1341 23.3325 93.0197 20.9103C92.9909 20.3027 92.9365 19.2091 92.8983 18.4798C92.8461 17.4858 92.8458 16.769 92.8966 15.6141C92.9336 14.7673 92.9902 13.3624 93.0222 12.4923C93.0539 11.6223 93.1194 10.5208 93.1676 10.0447C93.2159 9.56865 93.2717 8.95074 93.2918 8.67169C93.3851 7.37892 93.6385 5.37724 93.7433 5.10859C93.8192 4.91265 94.5698 4.88077 95.4759 5.03408ZM6.77879 9.06035C6.84035 9.22083 6.68267 9.31718 6.24167 9.38847C6.00443 9.4268 5.73839 9.49593 5.65091 9.5425C5.56307 9.58871 5.42699 9.62668 5.34851 9.62668C5.26967 9.62668 5.09939 9.68041 4.97015 9.74632C4.84055 9.81187 4.70663 9.8656 4.67243 9.8656C4.56911 9.8656 3.86171 10.2141 3.57875 10.4043C3.43295 10.5021 3.28535 10.582 3.25007 10.582C3.21479 10.582 3.11507 10.6494 3.02795 10.7318C2.32127 11.4012 1.87991 11.8461 1.87991 11.8895C1.87991 11.9181 1.82591 11.9554 1.76003 11.9726C1.69127 11.9905 1.64015 12.0539 1.64015 12.1212C1.64015 12.1861 1.60235 12.2703 1.55591 12.3086C1.50983 12.3466 1.45547 12.4433 1.43531 12.5232C1.41515 12.6027 1.34495 12.6969 1.27943 12.7316C1.20491 12.7714 1.15991 12.8566 1.15991 12.9587C1.15991 13.049 1.12355 13.1755 1.07927 13.2403C0.55439 14.004 0.48311 16.3796 0.95543 17.3683C1.06811 17.604 1.15991 17.8293 1.15991 17.8694C1.15991 17.9099 1.21463 17.9991 1.28123 18.0682C1.34783 18.1374 1.53071 18.3283 1.68695 18.4923C1.84355 18.6568 2.03903 18.8384 2.12075 18.896C2.77775 19.3589 3.15539 19.5641 3.45347 19.6196C3.57587 19.6426 3.71447 19.6995 3.76163 19.7461C3.80843 19.793 4.03091 19.8485 4.25843 19.8697C4.48487 19.8908 4.79159 19.9485 4.93991 19.9975C5.12531 20.0592 5.65163 20.1032 6.62003 20.139C8.07695 20.1924 8.31599 20.2311 9.11015 20.5417C9.32039 20.6237 9.41579 20.6964 9.42911 20.7845C9.44063 20.859 9.50759 20.9249 9.59363 20.9464C9.88055 21.0181 9.95183 21.9584 9.69263 22.246C9.62963 22.3159 9.56015 22.423 9.53855 22.4839C9.50903 22.5666 9.46187 22.5852 9.35279 22.558C9.24983 22.5326 9.18935 22.5519 9.14903 22.6236C9.06443 22.7744 8.00531 22.8174 7.79255 22.6787C7.71083 22.6254 7.52867 22.582 7.38719 22.5817C7.24571 22.5813 7.05455 22.5423 6.96239 22.4943C6.87023 22.4466 6.69491 22.3904 6.57251 22.3696C6.45011 22.3488 6.28271 22.2851 6.19991 22.2278C6.11747 22.1701 5.94863 22.1042 5.82515 22.0812C5.70131 22.0583 5.60015 22.0178 5.60015 21.9913C5.60015 21.9648 5.49863 21.8982 5.37515 21.8434C4.96331 21.66 4.70015 21.507 4.70015 21.4512C4.70015 21.4207 4.63931 21.377 4.56515 21.3541C4.49063 21.3308 4.36571 21.2617 4.28687 21.2008C4.06331 21.0267 3.87503 21.06 3.65975 21.3115C3.55535 21.4332 3.39587 21.6052 3.30515 21.6937C3.21443 21.7818 3.13991 21.8907 3.13991 21.9358C3.13991 21.9813 3.09275 22.0615 3.03515 22.1142C2.97719 22.1669 2.87603 22.2829 2.81015 22.3714C2.74391 22.4602 2.63303 22.591 2.56319 22.6619C2.49371 22.7328 2.41775 22.8514 2.39435 22.9252C2.37095 22.9993 2.32595 23.0595 2.29463 23.0595C2.26295 23.0595 2.21039 23.1294 2.17799 23.2146C2.14523 23.2999 2.06495 23.3837 1.99943 23.4009C1.88387 23.431 1.85543 23.4861 1.87559 23.6416C1.88099 23.6828 1.85651 23.7165 1.82123 23.7165C1.78595 23.7165 1.73123 23.7842 1.69955 23.8669C1.66787 23.9497 1.55087 24.1592 1.43963 24.3319C1.32875 24.5049 1.20347 24.7528 1.16171 24.8828C1.11959 25.0128 1.06163 25.145 1.03283 25.1762C0.94751 25.2675 0.97235 25.5677 1.06775 25.6042C1.11599 25.6229 1.16999 25.6838 1.18799 25.7396C1.20563 25.7955 1.36187 25.947 1.53503 26.0767C1.70819 26.206 1.86335 26.3285 1.87991 26.3493C1.89647 26.3701 1.97063 26.4055 2.04515 26.4288C2.11931 26.4517 2.20823 26.5227 2.24207 26.5861C2.27627 26.6495 2.35871 26.7014 2.42531 26.7014C2.49191 26.7014 2.64599 26.753 2.76803 26.816C2.89007 26.8787 3.05747 26.9593 3.13991 26.9944C3.22271 27.0299 3.33035 27.0826 3.38003 27.1119C3.42935 27.1413 3.76703 27.2606 4.12991 27.3777C4.73795 27.5733 5.06879 27.651 6.23015 27.871C6.82163 27.9827 9.85463 27.9809 10.4299 27.8681C11.1567 27.7255 12.0247 27.4812 12.2601 27.3526C12.3095 27.3258 12.4985 27.2337 12.6799 27.1485C13.0197 26.9883 13.5284 26.6806 13.7142 26.5223C14.0328 26.2508 14.6221 25.6354 14.6934 25.4996C14.7384 25.4133 14.8172 25.327 14.868 25.3076C14.9184 25.2883 14.9601 25.2378 14.9598 25.1959C14.9598 24.9802 15.296 24.4354 15.4508 24.401L15.6114 24.3655L15.512 24.099C15.3954 23.7856 15.4526 23.6373 15.701 23.6079C15.8864 23.5857 15.9332 23.254 15.7702 23.1193C15.6978 23.0595 15.6802 22.8775 15.6802 22.1941C15.6802 21.5103 15.6978 21.3283 15.7702 21.2685C15.9282 21.1381 15.8825 20.9296 15.687 20.8909C15.4408 20.8418 15.2917 20.2694 15.5192 20.2465C15.5581 20.2426 15.5091 20.2225 15.4101 20.2014C15.2881 20.1756 15.224 20.1226 15.2118 20.0369C15.2017 19.9671 15.1276 19.8485 15.0469 19.7729C14.9663 19.6977 14.9 19.6114 14.9 19.5813C14.9 19.5118 14.2524 18.8806 14.1815 18.8806C14.152 18.8806 14.1109 18.8269 14.09 18.761C14.0677 18.6915 13.9993 18.6417 13.9259 18.6417C13.8564 18.6417 13.757 18.6048 13.7048 18.5601C13.6526 18.5149 13.5292 18.4526 13.4302 18.4211C13.298 18.3792 13.2451 18.3211 13.2311 18.2043C13.2116 18.0421 13.1375 17.9959 13.0702 18.1044C13.0136 18.1954 12.6122 18.1757 12.5021 18.0765C12.4459 18.026 12.1741 17.9629 11.8559 17.9271C11.5538 17.8931 11.2309 17.8354 11.1384 17.7992C11.0459 17.763 10.4569 17.7115 9.83015 17.6846C8.69435 17.6362 8.48015 17.6065 8.48015 17.4962C8.48015 17.4625 8.40347 17.455 8.29799 17.4779C7.94735 17.5546 7.09271 16.9789 7.01999 16.6171C6.89147 15.977 7.46027 15.4895 8.48591 15.3605C8.94671 15.3025 9.57635 15.3208 9.79991 15.3989C9.84959 15.416 10.0519 15.4379 10.2499 15.4472C10.4501 15.4565 10.7388 15.5199 10.9001 15.5901C11.0596 15.6596 11.2291 15.7162 11.277 15.7162C11.4102 15.7162 12.2767 16.1833 12.3898 16.3159C12.4445 16.38 12.5305 16.4326 12.5813 16.4326C12.6317 16.4326 12.6889 16.4581 12.708 16.4892C12.7929 16.6257 13.2995 16.9123 13.3999 16.8804C13.54 16.8363 14.2117 16.1948 14.2592 16.0598C14.2798 16.0021 14.324 15.9552 14.3582 15.9552C14.3921 15.9552 14.4201 15.915 14.4201 15.866C14.4201 15.8172 14.4741 15.7435 14.54 15.7026C14.6059 15.6614 14.6599 15.5955 14.6599 15.5558C14.6599 15.516 14.7276 15.4114 14.81 15.3226C14.8925 15.2341 14.9601 15.1094 14.9601 15.0453C14.9601 14.9794 15.012 14.9156 15.08 14.8977C15.1697 14.8744 15.1999 14.8164 15.1999 14.6685C15.1999 14.523 15.2319 14.4607 15.3201 14.4328C15.4087 14.4048 15.44 14.3425 15.44 14.1935C15.44 14.0656 15.4803 13.9632 15.5505 13.9137C15.6161 13.8675 15.6751 13.73 15.6956 13.577C15.7352 13.2775 15.7435 13.2654 15.9149 13.2525C16.0049 13.2457 16.0315 13.2159 16.0049 13.1515C15.8659 12.8194 15.9617 12.4923 16.1975 12.4923C16.3692 12.4923 16.3991 12.2441 16.2457 12.0915C16.0761 11.9228 16.2907 11.4829 16.5035 11.5639C16.5528 11.5829 16.5801 11.5409 16.5801 11.4457C16.5801 11.3647 16.5596 11.3017 16.5351 11.3056C16.4192 11.3235 16.1986 11.2855 16.2652 11.259C16.393 11.2075 16.3544 11 16.2169 11C16.0913 11 15.7341 10.8399 15.6802 10.7593C15.6636 10.735 15.5556 10.6719 15.44 10.6196C15.3245 10.5673 15.1895 10.5014 15.1402 10.4728C15.0905 10.4441 14.9151 10.3596 14.7499 10.2851C14.585 10.2106 14.3539 10.1013 14.2366 10.0422C14.1192 9.98345 13.9169 9.91539 13.7866 9.89175C13.6566 9.86775 13.4561 9.79826 13.3409 9.73736C13.226 9.67647 13.0424 9.62668 12.933 9.62668C12.8235 9.62668 12.6612 9.58978 12.5719 9.54429C12.483 9.4988 12.2616 9.44292 12.0801 9.41999C11.4584 9.34154 11.3 9.28029 11.3 9.11695C11.3 9.02632 11.2658 8.97008 11.21 8.97008C11.1603 8.97008 11.12 9.0102 11.12 9.05963C11.12 9.10871 11.0862 9.15098 11.0451 9.15312C10.971 9.15707 7.19963 9.15527 7.05491 9.15133C7.01387 9.15026 6.98003 9.10871 6.98003 9.05963C6.98003 9.0102 6.92675 8.97008 6.86195 8.97008C6.78095 8.97008 6.75467 8.99874 6.77879 9.06035ZM10.6099 9.3573C10.9069 9.40602 11.2579 9.4465 11.39 9.44721C11.5222 9.44829 11.8728 9.51599 12.1694 9.59766C12.4664 9.67933 12.7836 9.74632 12.8747 9.74632C12.9657 9.74632 13.1411 9.80005 13.2642 9.8656C13.3877 9.93115 13.5371 9.98489 13.5965 9.98489C13.6562 9.98489 13.8107 10.0386 13.9399 10.1045C14.0695 10.1701 14.2038 10.2238 14.2391 10.2238C14.2952 10.2238 15.2176 10.6662 15.6218 10.8872C16.1186 11.1584 16.1978 11.3661 16.0114 11.9121C15.9628 12.055 15.8835 12.3444 15.8357 12.5561C15.5703 13.7242 14.6883 15.4014 13.8834 16.2686C13.41 16.7787 13.3459 16.7819 12.677 16.3263C12.006 15.8695 11.6708 15.7012 10.8965 15.4332L10.2499 15.2094L9.14003 15.209C7.85339 15.209 7.56359 15.296 7.09667 15.8237C6.61031 16.3735 6.82307 17.0774 7.58123 17.4267C8.27243 17.7448 8.36351 17.763 9.41003 17.7895C9.97091 17.8035 10.5177 17.8422 10.625 17.8752C10.7323 17.9078 11.1103 17.9697 11.4653 18.0127C12.6641 18.1581 13.8837 18.7058 14.5476 19.3975C16.0481 20.9608 15.777 24.3949 14.0224 26.0484C13.136 26.8834 12.3095 27.2824 10.67 27.6668C9.42875 27.958 5.79059 27.8348 5.12279 27.4791C5.05943 27.4454 4.91831 27.4171 4.80887 27.4164C4.69943 27.4157 4.49495 27.3634 4.35419 27.2996C4.21343 27.2362 3.99743 27.1657 3.87431 27.1435C3.75083 27.1212 3.58271 27.0568 3.49991 27.0005C3.41747 26.9439 3.27887 26.8809 3.19211 26.8601C2.92427 26.7956 1.75715 26.0986 1.46663 25.8295C1.06091 25.4531 1.19699 24.7825 1.85327 23.9264C1.93391 23.8211 2.00015 23.7068 2.00015 23.6724C2.00015 23.638 2.04119 23.594 2.09159 23.575C2.14163 23.5556 2.20247 23.4919 2.22659 23.4331C2.32055 23.2024 3.83039 21.276 3.95423 21.2287C4.00031 21.2115 4.17131 21.2946 4.33439 21.4139C4.75019 21.7173 5.92703 22.313 6.45083 22.4846C7.64099 22.875 7.66979 22.8808 8.46611 22.8786C9.52919 22.8758 10.04 22.4749 10.04 21.6439C10.04 20.5829 9.13535 20.1079 6.95015 20.0208C3.90815 19.8994 2.39147 19.3323 1.42307 17.9532C0.87983 17.1799 0.60659 15.7384 0.82403 14.791C0.86903 14.594 0.92447 14.2848 0.94679 14.1043C1.07711 13.0537 2.18015 11.4826 3.30515 10.7454C3.99203 10.2947 5.17787 9.74668 5.46659 9.74632C5.54147 9.74632 5.75747 9.69115 5.94647 9.62381C6.13547 9.55647 6.51959 9.473 6.80003 9.43826C7.08047 9.40387 7.44515 9.35515 7.61003 9.33044C8.16659 9.24697 10.0375 9.26381 10.6099 9.3573ZM63.5882 10.0798C63.5346 10.1661 63.3791 10.179 62.3621 10.1808C61.5103 10.1823 61.1561 10.2045 61.0437 10.2629C60.9591 10.3066 60.809 10.3431 60.71 10.3442C60.3853 10.347 59.2438 10.6347 58.9701 10.7826C58.8712 10.836 58.7552 10.88 58.7124 10.88C58.6436 10.8804 58.0669 11.1412 57.785 11.2992C57.7274 11.3318 57.6435 11.3783 57.5989 11.403C57.3689 11.5302 57.0315 11.7777 56.8991 11.916C56.8173 12.002 56.7173 12.0729 56.6773 12.0736C56.637 12.074 56.5754 12.1284 56.5401 12.194C56.5049 12.2595 56.4505 12.3132 56.4195 12.3132C56.3619 12.3132 55.8202 12.8291 55.8202 12.8839C55.8202 12.9265 55.3712 13.5122 55.2233 13.663C55.1556 13.7321 55.1002 13.8295 55.1002 13.8793C55.1002 13.9295 55.0595 14.004 55.0102 14.0448C54.9605 14.0857 54.9202 14.1451 54.9202 14.177C54.9202 14.2092 54.8708 14.3067 54.8103 14.3937C54.7502 14.4808 54.6649 14.6463 54.6206 14.7612C54.5767 14.8759 54.491 15.0256 54.4302 15.0933C54.3697 15.161 54.32 15.2803 54.32 15.358C54.32 15.5271 54.0968 16.1755 53.9816 16.3417C53.9366 16.4065 53.8995 16.5809 53.8988 16.7296C53.8981 16.8783 53.8527 17.215 53.798 17.4775C53.681 18.041 53.6619 20.5406 53.771 21.0894C53.8067 21.2699 53.8535 21.6059 53.8751 21.8359C53.8967 22.0655 53.9474 22.3073 53.9881 22.3732C54.0288 22.4387 54.0806 22.5931 54.1037 22.7163C54.1267 22.8396 54.1645 22.9402 54.1883 22.9402C54.234 22.9402 54.3801 23.3636 54.3801 23.4972C54.3801 23.542 54.4341 23.6269 54.5 23.6864C54.5659 23.7458 54.6199 23.8533 54.6199 23.9253C54.6199 23.9973 54.6739 24.1048 54.7402 24.1642C54.806 24.2237 54.86 24.3362 54.86 24.4139C54.86 24.492 54.8978 24.5704 54.9439 24.588C54.9903 24.6055 55.1307 24.7854 55.256 24.9874C55.4889 25.3635 56.5376 26.4625 56.6633 26.4625C56.7014 26.4625 56.8422 26.5499 56.9761 26.6566C57.1097 26.7634 57.2951 26.8909 57.3876 26.9403C57.9449 27.2366 58.5407 27.5027 58.8801 27.6073C59.0943 27.6732 59.3377 27.7628 59.4209 27.8065C59.5037 27.8498 59.7737 27.9054 60.0203 27.9294C60.2672 27.9537 60.5642 28.0157 60.6798 28.0676C61.0005 28.2109 64.1102 28.2399 64.58 28.1038C64.7615 28.0512 65.0585 27.9817 65.2399 27.9494C66.2065 27.7775 67.6519 27.0869 68.477 26.403C68.7218 26.1999 69.0923 25.8367 69.5333 25.3675C69.6827 25.2084 69.7849 25.1468 69.8645 25.1676C69.9278 25.184 69.9951 25.1733 70.0135 25.1436C70.0319 25.1138 70.0185 25.0895 69.9836 25.0895C69.8853 25.0895 69.9087 24.7915 70.0099 24.7528C70.0596 24.7341 70.0999 24.6675 70.0999 24.6055C70.0999 24.5432 70.1265 24.4923 70.1593 24.4923C70.1917 24.4923 70.2587 24.4053 70.308 24.2986C70.4005 24.0987 70.4675 23.983 70.6525 23.7039C70.7115 23.6147 70.7601 23.4933 70.7601 23.4335C70.7601 23.2558 70.9347 23.0595 71.0935 23.0595C71.2551 23.0595 71.2962 22.9148 71.15 22.8589C70.943 22.7798 71.1036 22.2836 71.3365 22.2836C71.4078 22.2836 71.4114 22.2593 71.3549 22.1543C71.199 21.8649 71.4067 21.0894 71.6396 21.0894C71.7491 21.0894 71.7206 20.5474 71.604 20.4077C71.5097 20.2945 71.5126 18.0002 71.6072 17.887C71.7602 17.7036 71.743 17.2974 71.5777 17.1895C71.3826 17.0624 71.2519 16.4993 71.3531 16.2209C71.4477 15.9595 71.4373 15.8953 71.2987 15.8953C71.0834 15.8953 70.9499 15.2172 71.15 15.1409C71.3074 15.0808 71.2469 15.012 71.0449 15.0209C70.8393 15.0303 70.7915 14.8923 70.9074 14.6269C70.9437 14.5431 70.9232 14.5223 70.803 14.5223C70.6845 14.5223 70.6334 14.4732 70.5589 14.2888C70.5074 14.1602 70.4394 14.0391 70.4081 14.0198C70.3397 13.9778 70.3933 13.7339 70.4847 13.6726C70.5207 13.6483 70.4671 13.6282 70.3656 13.6279C70.1665 13.6268 69.8602 13.2611 69.8602 13.0243C69.8602 12.9616 69.8242 12.9104 69.7802 12.9104C69.7363 12.9104 69.4868 12.699 69.2251 12.4404C68.3399 11.5646 67.0536 10.8772 65.8102 10.6146C65.6122 10.5731 65.3421 10.5107 65.21 10.476C65.0779 10.4416 64.7809 10.3968 64.5502 10.3764C63.7509 10.3062 63.689 10.2886 63.6685 10.1278C63.6527 10.001 63.6415 9.99456 63.5882 10.0798ZM80.5392 10.0598C80.537 10.2306 80.4143 10.2843 79.8217 10.3728C79.479 10.424 79.1694 10.4885 79.1341 10.5158C79.0988 10.5433 78.9527 10.5835 78.8094 10.6053C78.6661 10.6272 78.4501 10.6945 78.3295 10.7554C78.2089 10.8163 78.0242 10.8843 77.9191 10.9069C77.8143 10.9295 77.6963 10.9864 77.6567 11.0337C77.6174 11.0806 77.5364 11.1193 77.477 11.1193C77.4173 11.1193 77.328 11.1595 77.2787 11.2089C77.1696 11.3174 76.883 11.3278 76.8722 11.2239C76.8679 11.1827 76.8474 11.2429 76.8272 11.3575C76.8013 11.5026 76.7538 11.5721 76.6699 11.5864C76.604 11.5979 76.523 11.6384 76.4899 11.6767C76.4571 11.715 76.3222 11.8264 76.1904 11.9246C76.0586 12.0224 75.7562 12.2978 75.5179 12.5364C75.2796 12.775 75.0567 12.9702 75.0226 12.9702C74.988 12.9702 74.9599 13.0211 74.9599 13.083C74.9599 13.1454 74.9196 13.2116 74.8699 13.2306C74.8206 13.2492 74.7799 13.3202 74.7799 13.3879C74.7799 13.4556 74.7421 13.5258 74.6957 13.5433C74.6489 13.5612 74.579 13.6526 74.5402 13.7461C74.5009 13.8399 74.4311 13.9313 74.3846 13.9488C74.3382 13.9667 74.3 14.0463 74.3 14.1254C74.3 14.2135 74.2413 14.3078 74.1499 14.3676C74.0462 14.4353 74.0002 14.5195 74.0002 14.6409C74.0002 14.7569 73.9584 14.839 73.877 14.882C73.7971 14.9246 73.7662 14.9844 73.7881 15.0539C73.8075 15.1141 73.7697 15.2266 73.701 15.3132C73.6344 15.3978 73.58 15.5439 73.58 15.6385C73.58 15.7331 73.5285 15.9111 73.4652 16.0343C73.4022 16.1575 73.3331 16.3983 73.3115 16.5695C73.2902 16.7403 73.2351 17.0015 73.1898 17.1491C72.9389 17.964 72.9482 21.1721 73.2027 21.6575C73.2369 21.7227 73.2841 21.9326 73.3075 22.1235C73.3305 22.3148 73.4011 22.5835 73.4634 22.7206C73.526 22.8578 73.5779 23.033 73.5786 23.11C73.5793 23.1867 73.634 23.3181 73.6999 23.4016C73.7661 23.4851 73.8202 23.6108 73.8202 23.6814C73.8202 23.7516 73.8741 23.8551 73.94 23.9113C74.0059 23.9676 74.0599 24.0636 74.0599 24.1245C74.0599 24.1854 74.1139 24.2839 74.1802 24.3433C74.246 24.4028 74.3 24.4834 74.3 24.5224C74.3 24.5615 74.354 24.6557 74.4199 24.7313C74.4861 24.8069 74.5402 24.9168 74.5402 24.9752C74.5402 25.0336 74.5941 25.0984 74.66 25.1192C74.7259 25.1403 74.7799 25.1805 74.7799 25.2091C74.7799 25.2689 75.1986 25.7411 75.4855 26.0043C75.9467 26.4281 76.0824 26.5377 76.2952 26.657C76.4186 26.7265 76.5201 26.8021 76.5201 26.8254C76.5201 26.8486 76.5824 26.883 76.6591 26.9024C76.7354 26.9214 76.8611 26.9916 76.9381 27.0578C77.0152 27.1245 77.1224 27.1789 77.1757 27.1789C77.2293 27.1789 77.3402 27.2262 77.4216 27.2835C77.5922 27.4035 77.8291 27.4981 78.3799 27.6661C79.1359 27.8968 79.3677 27.9552 79.5254 27.9552C79.6133 27.9552 79.803 28.0017 79.9473 28.0583C80.3451 28.2152 83.7684 28.2159 84.0744 28.0597C84.1867 28.0021 84.3487 27.9548 84.4344 27.9541C84.8048 27.9519 85.82 27.6224 86.2999 27.3491C86.3496 27.3208 86.4576 27.2681 86.54 27.2319C86.747 27.1413 86.7891 27.1162 87.107 26.8956C87.2604 26.7888 87.4062 26.7014 87.431 26.7014C87.4559 26.7014 87.6233 26.5675 87.8033 26.4037C87.984 26.2393 88.1885 26.1057 88.2608 26.1054C88.3386 26.1046 88.4073 26.0559 88.43 25.985C88.4509 25.9195 88.5067 25.8657 88.5542 25.8657C88.6046 25.8657 88.6399 25.807 88.6399 25.7232C88.6399 25.6311 88.6824 25.5698 88.7601 25.5498C88.8271 25.5322 88.88 25.4685 88.88 25.4047C88.88 25.342 88.961 25.2138 89.06 25.1192C89.159 25.025 89.24 24.9165 89.24 24.8785C89.24 24.8405 89.294 24.761 89.3599 24.7015C89.4261 24.6421 89.4801 24.5615 89.4801 24.5224C89.4801 24.4834 89.5341 24.4028 89.6 24.3433C89.6659 24.2839 89.7199 24.2011 89.7199 24.1596C89.7199 24.1177 89.7876 24.0037 89.87 23.9063C89.9525 23.8089 90.0201 23.6814 90.0201 23.623C90.0201 23.5646 90.0565 23.4743 90.1008 23.4224C90.1454 23.3708 90.216 23.2024 90.2577 23.0484C90.2995 22.8947 90.3672 22.7558 90.4086 22.74C90.4518 22.7235 90.4838 22.6071 90.4838 22.4652C90.4838 22.2045 90.6944 21.8953 90.8355 21.9491C90.8795 21.9659 90.9036 21.9211 90.8985 21.8312C90.8939 21.7517 90.869 21.6865 90.8435 21.6865C90.6426 21.6865 90.7419 20.6309 90.9702 20.3421C91.076 20.2082 91.0937 20.2028 91.1181 20.2963C91.1336 20.355 91.1488 19.8389 91.152 19.1493C91.1556 18.4529 91.1358 17.9307 91.1077 17.9744C91.0224 18.1087 90.8751 17.9006 90.8089 17.552C90.6843 16.8969 90.6843 16.8707 90.8032 16.6501C90.9518 16.3739 90.9515 16.2535 90.8013 16.2535C90.7362 16.2535 90.6386 16.1866 90.5843 16.1042C90.4914 15.963 90.4925 15.872 90.5922 15.5522C90.6264 15.4426 90.6109 15.4178 90.509 15.4178C90.4406 15.4178 90.3557 15.3648 90.3208 15.2996C90.2523 15.1728 90.2984 14.8805 90.3866 14.8805C90.4158 14.8805 90.4399 14.8537 90.4399 14.8207C90.4399 14.7881 90.3758 14.7612 90.2973 14.7612C90.1274 14.7612 90.045 14.6742 89.9856 14.4324C89.9615 14.3343 89.892 14.1895 89.8308 14.1115C89.7699 14.033 89.7199 13.9352 89.7199 13.8937C89.7199 13.8525 89.6796 13.803 89.6299 13.7844C89.5806 13.7654 89.5399 13.6838 89.5399 13.6028C89.5399 13.5154 89.4974 13.442 89.4351 13.4219C89.3415 13.3918 89.208 13.2192 89.0309 12.8982C88.9981 12.8391 88.9376 12.7911 88.8959 12.7911C88.8541 12.7911 88.8199 12.7628 88.8199 12.7284C88.8199 12.6582 88.2504 12.0747 88.1816 12.0747C88.1575 12.0747 88.0819 12.0242 88.0139 11.9629C87.84 11.806 87.2708 11.4177 87.2147 11.4177C87.1887 11.4177 87.0685 11.3507 86.9472 11.2687C86.8259 11.1867 86.6833 11.1193 86.6307 11.1193C86.5782 11.1193 86.4619 11.0681 86.3726 11.0054C86.2833 10.9424 86.0843 10.874 85.9302 10.8532C85.7765 10.832 85.6364 10.7783 85.6191 10.7335C85.5993 10.682 85.437 10.6365 85.1789 10.61C84.9539 10.5867 84.7415 10.5448 84.7065 10.5172C84.6507 10.4731 84.1925 10.4029 82.76 10.2202C82.5455 10.1926 82.0425 10.169 81.6422 10.1672C81.0716 10.1647 80.8985 10.1446 80.8401 10.0744C80.7494 9.96626 80.5403 9.95587 80.5392 10.0598ZM64.1002 10.4287C64.5786 10.4738 65.0376 10.5362 65.12 10.5677C65.2025 10.5992 65.4105 10.6429 65.5823 10.6648C65.754 10.6866 66.0107 10.7572 66.1522 10.8213C66.294 10.8851 66.4733 10.9381 66.5507 10.9388C66.6281 10.9395 66.7631 10.9786 66.8509 11.0255C66.9384 11.072 67.1922 11.1953 67.415 11.2988C69.2132 12.1359 70.5308 13.8149 71.0622 15.9455C71.2285 16.6135 71.3092 17.1892 71.4186 18.4999C71.5918 20.5682 70.9718 23.2486 70.0326 24.4931C69.9213 24.6406 69.7489 24.8821 69.6499 25.0293C67.3243 28.49 60.5664 29.215 56.8083 26.4073C56.0667 25.8535 54.9202 24.5618 54.9202 24.2803C54.9202 24.2635 54.7985 24.007 54.6502 23.71C54.5015 23.4131 54.3801 23.1172 54.3801 23.0523C54.3801 22.9875 54.3355 22.8485 54.2808 22.7436C53.5378 21.314 53.6749 17.1003 54.5238 15.2685C54.5695 15.17 54.684 14.9149 54.7783 14.7018C55.4223 13.2471 56.7882 11.8838 58.3898 11.0975C58.5659 11.0108 58.752 10.9402 58.8035 10.9402C58.8549 10.9402 59.0079 10.889 59.1433 10.826C60.0552 10.4036 62.0964 10.2403 64.1002 10.4287ZM83.5401 10.4273C83.9527 10.472 84.3577 10.5347 84.4401 10.5666C84.5226 10.5985 84.7386 10.6436 84.92 10.6669C85.1015 10.6902 85.3682 10.7611 85.5126 10.8249C85.6569 10.8883 85.8333 10.9402 85.9043 10.9402C85.9752 10.9402 86.089 10.9789 86.157 11.0262C86.2247 11.0735 86.4219 11.1659 86.5951 11.2315C87.9141 11.7301 89.5478 13.404 89.9611 14.6806C90.0021 14.8071 90.0583 14.9389 90.0857 14.9737C90.113 15.008 90.1746 15.1829 90.2221 15.3616C90.2696 15.5403 90.3405 15.7671 90.3801 15.8656C90.5778 16.3606 90.7527 17.8712 90.7563 19.1192C90.7657 22.0637 90.0569 23.9984 88.3296 25.7461C87.678 26.4055 87.6287 26.4482 87.1988 26.7258C87.0509 26.8211 86.8568 26.9486 86.7675 27.0091C86.6779 27.0697 86.5897 27.1195 86.5714 27.1195C86.5526 27.1195 86.3154 27.223 86.0439 27.3498C85.5155 27.5959 84.8783 27.8004 84.4401 27.8642C84.2915 27.886 84.0351 27.9487 83.8699 28.0039C83.4415 28.1475 80.7476 28.1446 80.2102 28.0003C80.0121 27.9473 79.7151 27.8864 79.5499 27.8652C78.984 27.7922 77.6293 27.329 77.18 27.0546C77.1303 27.0245 77.0288 26.9733 76.9539 26.9411C76.6379 26.8053 75.8595 26.2304 75.4621 25.8392C75.0783 25.4617 74.9264 25.2718 74.4386 24.559C74.0048 23.9249 73.4637 22.5283 73.341 21.7255C73.3151 21.5561 73.2474 21.1223 73.1905 20.7612C72.896 18.8921 73.3871 15.838 74.1841 14.5821C74.2154 14.5327 74.2734 14.4252 74.313 14.3432C74.8901 13.1504 76.0745 11.984 77.4202 11.2838C77.6344 11.1723 77.864 11.0534 77.9299 11.0194C78.1121 10.9259 78.6107 10.7615 78.98 10.6734C79.1615 10.6304 79.3937 10.5641 79.4959 10.5261C79.9599 10.3542 82.3324 10.2962 83.5401 10.4273ZM132.69 10.5792C132.603 10.8281 132.602 10.8238 132.705 10.7844C132.818 10.7414 132.853 10.6383 132.802 10.4957C132.766 10.3954 132.75 10.4069 132.69 10.5792ZM32.1069 10.9503C32.1692 11.0785 32.2182 11.1272 32.2308 11.0735C32.2423 11.0248 32.1959 10.9295 32.1278 10.8618L32.004 10.7386L32.1069 10.9503ZM132.416 11.2372C131.846 12.5009 130.596 13.8095 129.31 14.4904C128.178 15.0897 127.533 15.2566 125.63 15.4436C125.498 15.4569 125.706 15.4562 126.091 15.4426C126.995 15.4107 128.636 15.0518 128.71 14.8698C128.721 14.8429 128.764 14.8207 128.807 14.8207C128.913 14.8207 129.625 14.4557 129.766 14.3282C129.83 14.2709 129.901 14.2239 129.922 14.2239C129.944 14.2239 130.02 14.1766 130.091 14.1193C130.163 14.062 130.292 13.961 130.378 13.8955C130.463 13.8299 130.577 13.7289 130.63 13.6716C130.683 13.6143 130.775 13.567 130.833 13.567C130.892 13.567 130.941 13.5337 130.942 13.4925C130.945 13.3904 131.127 13.1819 131.288 13.0963C131.36 13.0572 131.42 12.9928 131.42 12.953C131.421 12.9132 131.513 12.7803 131.626 12.6582C131.739 12.536 131.848 12.3831 131.869 12.3179C131.889 12.2531 131.959 12.1836 132.023 12.1632C132.096 12.1402 132.14 12.0725 132.14 11.9844C132.14 11.9063 132.192 11.8064 132.255 11.7627C132.318 11.7186 132.379 11.6029 132.39 11.5058C132.405 11.3722 132.447 11.3214 132.561 11.2988C132.702 11.2705 132.708 11.2569 132.646 11.0695L132.581 10.8707L132.416 11.2372ZM124.58 15.358C124.629 15.3899 124.764 15.4132 124.88 15.41L125.09 15.4039L124.91 15.358C124.629 15.2867 124.469 15.2867 124.58 15.358ZM62.0302 15.4132C60.3558 15.7431 59.6613 17.5234 59.9565 20.7312C60.0447 21.6901 60.5027 22.6189 61.029 22.9058C62.1875 23.5377 63.8906 23.2207 64.5073 22.2586C65.6017 20.5524 65.5787 17.114 64.4655 15.9358C64.0112 15.4547 62.9622 15.2298 62.0302 15.4132ZM81.3413 15.4164C79.8645 15.7298 79.1132 17.3035 79.2461 19.8059C79.3742 22.2224 79.9128 23.0763 81.3729 23.1777C82.1099 23.2286 82.7971 23.1534 83.0127 22.9979C83.102 22.9334 83.1985 22.8804 83.2269 22.8804C83.5157 22.8804 84.0863 21.962 84.4006 20.9905C84.9265 19.366 84.5989 16.6332 83.7878 15.8763C83.3238 15.4429 82.2056 15.233 81.3413 15.4164ZM9.72179 15.5156C9.67355 15.5633 9.72791 15.6568 9.80351 15.6568C9.83447 15.6568 9.86003 15.6163 9.86003 15.5672C9.86003 15.4748 9.78911 15.4486 9.72179 15.5156ZM63.9043 15.6636C64.7622 16.0795 65.1236 17.0176 65.1668 18.9401C65.1899 19.9768 64.9796 21.3423 64.778 21.4655C64.7352 21.492 64.6999 21.5794 64.6999 21.66C64.6999 21.742 64.634 21.8638 64.5502 21.9365C64.4677 22.0078 64.4 22.1171 64.4 22.1794C64.4 22.3062 63.8964 22.8016 63.7099 22.8582C63.644 22.8783 63.5493 22.9284 63.5 22.9692C63.2747 23.1562 61.5013 23.1179 61.3922 22.9241C61.3602 22.8672 61.2662 22.8209 61.1831 22.8209C60.984 22.8209 60.5217 22.3431 60.4393 22.0526C60.4058 21.9333 60.3381 21.7836 60.2892 21.7198C60.1607 21.5529 60.1794 21.3494 60.3335 21.242C60.4224 21.18 60.4375 21.1488 60.3785 21.1481C60.3252 21.1478 60.3144 21.1298 60.3511 21.1033C60.3849 21.0793 60.4159 20.8848 60.4206 20.6717L60.4289 20.2834L60.3889 20.6223C60.3371 21.0654 60.2942 21.094 60.1441 20.7856C59.9598 20.4059 59.9562 18.3587 60.1394 18.0596C60.3029 17.7928 60.3695 17.816 60.3957 18.1492L60.4184 18.4329L60.4292 18.1245C60.435 17.9547 60.4148 17.8067 60.3839 17.796C60.2575 17.7512 60.2348 17.1444 60.3583 17.1125C60.4469 17.0892 60.4728 17.0287 60.4728 16.8424C60.4728 16.6766 60.5048 16.5842 60.5765 16.5444C60.6333 16.5125 60.6801 16.4523 60.6801 16.4108C60.6801 16.323 60.9962 15.9552 61.0715 15.9552C61.0995 15.9552 61.178 15.9032 61.2461 15.8395C61.3141 15.776 61.4376 15.7112 61.52 15.6958C61.6025 15.6804 61.7512 15.6252 61.8502 15.5729C62.2073 15.3849 63.4417 15.4393 63.9043 15.6636ZM83.1683 15.6034C83.3234 15.6725 83.5193 15.8029 83.6035 15.8932C83.6881 15.9831 83.7835 16.0676 83.8159 16.0809C83.9221 16.1235 84.2 16.7246 84.2 16.9112C84.2 17.0115 84.2414 17.1566 84.2918 17.2332C84.4466 17.4682 84.4808 17.9866 84.348 18.0833C84.2558 18.1503 84.2533 18.1642 84.3321 18.1642C84.623 18.1642 84.6115 20.0595 84.3159 20.8221C84.2522 20.9869 84.2 21.1682 84.2 21.2248C84.2 21.4089 83.8188 22.1629 83.7079 22.198C83.6431 22.2184 83.5999 22.2897 83.5999 22.3771C83.5999 22.4796 83.5668 22.5222 83.4869 22.5222C83.4246 22.5222 83.331 22.5874 83.2784 22.6669C83.2262 22.7468 83.1218 22.831 83.0466 22.8543C82.9714 22.8775 82.8918 22.9248 82.8695 22.9596C82.7658 23.1204 80.9175 23.1283 80.757 22.9685C80.717 22.9288 80.6249 22.8775 80.5518 22.8543C80.1929 22.7411 79.7004 22.1088 79.6536 21.7015C79.6374 21.5618 79.6032 21.4476 79.5773 21.4476C79.4052 21.4476 79.3425 20.1064 79.4973 19.7386C79.596 19.5039 79.6475 18.9286 79.565 18.9792C79.5402 18.9946 79.52 18.9398 79.52 18.8577C79.52 18.7757 79.4898 18.6897 79.4527 18.6672C79.3548 18.607 79.4167 17.7315 79.5312 17.5571C79.5812 17.4804 79.6413 17.2923 79.664 17.139C79.6871 16.9857 79.745 16.8281 79.7929 16.7887C79.8408 16.7489 79.88 16.6773 79.88 16.6297C79.88 15.843 82.1315 15.1402 83.1683 15.6034ZM105.784 17.7569C105.881 17.8533 105.937 17.8726 105.984 17.8261C106.031 17.7792 105.993 17.7415 105.85 17.6921L105.65 17.623L105.784 17.7569ZM29.48 19.985C29.4159 20.062 29.4372 20.0746 29.6301 20.0746C29.8231 20.0746 29.844 20.062 29.7799 19.985C29.7389 19.9356 29.6715 19.8955 29.6301 19.8955C29.5887 19.8955 29.5211 19.9356 29.48 19.985ZM99.7401 20.4926C99.7401 20.5252 99.7805 20.552 99.8301 20.552C99.8795 20.552 99.9201 20.5252 99.9201 20.4926C99.9201 20.4596 99.8795 20.4328 99.8301 20.4328C99.7805 20.4328 99.7401 20.4596 99.7401 20.4926Z" fill="#0070C0"/>
</svg>
