<svg width="120" height="25" viewBox="0 0 120 25" fill="none" xmlns="http://www.w3.org/2000/svg">
<path d="M40.6018 9.40076C42.2786 7.51974 44.0722 6.5282 46.376 6.64485C48.957 6.77608 50.7359 8.30715 51.2171 10.8589C51.4067 11.8067 51.4067 12.7691 51.3484 13.7315C51.2171 16.2687 51.1296 18.7913 51.3629 21.343C51.4942 22.8158 51.3046 23.0199 49.9048 23.3115C48.7674 23.5594 47.6155 23.7344 46.4344 23.6761C45.0637 23.6178 44.8596 23.4574 44.8012 22.145C44.7575 20.9785 44.8304 19.812 44.8887 18.6455C44.9325 17.4789 45.02 16.3124 44.8012 15.1605C44.5388 13.6732 43.9263 13.0024 42.964 13.0899C41.8704 13.1774 40.4705 14.3731 40.4268 15.4229C40.3539 16.9977 40.4268 18.5725 40.4268 20.1474C40.4268 20.7598 40.4414 21.3868 40.4559 21.9992C40.4851 22.8158 40.1351 23.3115 39.2748 23.3553C37.9042 23.399 36.5335 23.4428 35.1628 23.4574C34.4046 23.4719 34.0546 23.0491 34.0255 22.3054C33.9817 21.066 33.8651 19.8411 33.8797 18.6017C33.9088 13.4544 33.9526 8.30715 34.0255 3.17444C34.0546 1.11845 34.2005 1.0018 36.2856 0.958051C37.248 0.94347 38.2104 0.958051 39.1582 1.04554C40.6601 1.19136 40.8059 1.33717 40.7476 2.80991C40.6747 4.3118 40.4851 5.8137 40.383 7.3156C40.383 7.89886 40.2518 8.51129 40.6018 9.40076Z" fill="#FFC808"/>
<path d="M7.82244 24.1427C5.41649 24.1573 3.34591 23.749 1.47948 22.5971C0.37128 21.9118 0.298373 21.5327 0.910797 20.4099C1.07119 20.1037 1.27534 19.8266 1.47948 19.5496C2.98137 17.3769 2.98138 17.3769 5.47482 18.383C6.30596 18.7184 7.15169 18.9955 8.07033 18.908C8.58068 18.8497 9.00355 18.6455 9.13478 18.0914C9.29518 17.4644 9.01813 17.027 8.4932 16.7207C7.82244 16.3416 7.0642 16.2541 6.30596 16.2687C5.19777 16.2833 4.10415 16.1375 3.06886 15.7875C0.910797 15.1022 -0.168236 13.4836 0.0213235 11.2381C0.240047 8.83214 1.49406 7.09693 3.69587 6.1783C7.32667 4.66182 10.9283 4.99719 14.4716 6.58658C15.4777 7.03861 15.7548 7.73852 15.3319 8.74465C15.0111 9.50289 14.7487 10.2903 14.3696 11.0194C13.3634 12.8858 13.101 12.9441 11.0887 12.0109C9.87844 11.4568 8.62443 11.1652 7.29751 11.588C6.88923 11.7193 6.53927 11.9817 6.48094 12.4192C6.40804 12.9879 6.78716 13.3232 7.25376 13.4836C7.70579 13.644 8.18698 13.7024 8.65359 13.7753C9.47016 13.8919 10.2867 13.9503 11.1033 14.0815C12.9843 14.4169 14.4862 15.248 14.9091 17.304C15.3611 19.5496 14.5008 21.7076 12.7073 22.9033C11.147 23.9532 9.39725 24.2011 7.82244 24.1427Z" fill="#FFC808"/>
<path d="M27.0993 6.33859C28.1929 6.35317 29.2865 6.39692 30.3801 6.63022C31.255 6.81978 31.7654 7.24265 31.605 8.17587C31.3863 9.53195 31.153 10.8735 30.8759 12.2295C30.7155 13.0461 30.176 13.3377 29.3448 13.1773C28.4116 12.9878 27.4638 12.7545 26.516 12.6816C24.1247 12.5066 22.6373 14.3439 23.206 16.6769C23.5122 17.9601 24.3871 18.4996 25.6703 18.1788C26.691 17.9163 27.5222 17.3039 28.295 16.604C28.8928 16.0645 29.4032 16.1665 29.8406 16.779C30.5697 17.7851 31.2842 18.7912 31.9695 19.7973C32.4945 20.5556 32.3195 21.1972 31.6196 21.7659C29.1699 23.7489 26.4577 24.8717 23.2498 24.4634C18.9628 23.9239 15.959 19.6807 16.6152 15.1021C17.4317 9.2549 20.975 6.30943 27.0993 6.33859Z" fill="#FFC808"/>
<path d="M92.3808 12.2441C92.235 9.0799 92.4829 5.93029 92.8474 2.79526C93.0515 1.00173 93.2557 0.855912 95.093 1.00173C96.1137 1.07463 97.1344 1.23503 98.1405 1.45375C99.657 1.77455 99.7007 1.86204 99.4528 3.37852C99.0446 6.01778 98.6071 8.65703 98.2134 11.3109C98.0238 12.6086 97.9364 13.9064 98.0968 15.2041C98.2863 16.604 98.7383 17.0414 100.138 16.8227C101.217 16.6477 101.64 17.0123 101.888 17.9746C102.223 19.2432 102.471 20.5118 102.53 21.8242C102.573 22.874 102.209 23.5448 101.101 23.6906C101.028 23.7052 100.969 23.7198 100.896 23.7343C95.5887 24.9884 92.8328 23.0344 92.3954 17.5955C92.2641 15.8166 92.3808 14.023 92.3808 12.2441Z" fill="#FFC808"/>
<path d="M62.1387 6.33862C62.0074 6.33862 61.8616 6.33862 61.7304 6.33862C58.1142 6.39695 55.2708 7.82594 53.9438 11.3109C52.5294 15.0438 52.6315 18.7183 55.3728 21.9409C55.679 22.3054 56.0727 22.6262 56.481 22.8595C59.791 24.7843 63.2469 25.1342 66.6881 23.3699C69.896 21.7076 71.0626 18.8058 70.9751 15.3063C70.9459 9.38616 68.0296 6.42611 62.1387 6.33862ZM64.2676 17.4935C63.7718 18.7913 63.0573 19.2724 61.7887 19.2141C60.5055 19.1558 59.9077 18.6309 59.5869 17.2019C59.4557 16.604 59.4411 15.977 59.3973 15.7C59.4265 14.5334 59.5577 13.7169 59.9223 12.9586C60.418 11.9379 61.2638 11.5442 62.474 11.6463C63.4947 11.7338 64.0926 12.3025 64.3696 13.2503C64.7925 14.6793 64.7925 16.1083 64.2676 17.4935Z" fill="#FFC808"/>
<path d="M81.5176 6.33862C81.0364 6.33862 80.5552 6.33862 80.074 6.36779C76.4723 6.68858 73.8477 8.90497 72.8707 12.4483C71.7771 16.3853 72.8707 20.6431 75.4808 22.6262C75.5391 22.6699 75.5829 22.7137 75.6412 22.7428C78.922 24.7405 82.3779 25.1342 85.8337 23.4573C89.1583 21.8388 90.354 18.8642 90.3394 14.0668C90.354 9.44449 87.3647 6.41153 81.5176 6.33862ZM83.5444 17.7268C83.0195 18.8787 82.3341 19.287 81.1093 19.2141C79.899 19.1412 79.3012 18.6746 78.9949 17.3623C78.6742 16.0791 78.6742 14.7813 79.097 13.4982C79.549 12.1275 80.3364 11.5734 81.6925 11.6317C82.932 11.69 83.559 12.2441 83.8798 13.6731C83.9964 14.1981 84.011 14.7522 84.0693 15.3063C84.0547 16.1666 83.8943 16.9686 83.5444 17.7268Z" fill="#FFC808"/>
<path d="M118.934 18.3537C118 17.6538 117.84 16.8664 118.03 15.8457C118.248 14.6938 118.525 13.5564 118.627 12.4045C118.919 9.19654 117.403 7.16971 114.297 6.36772C111.964 5.76988 109.645 5.97402 107.385 6.63019C103.229 7.81129 102.952 7.57799 104.498 12.2878C105.023 13.8918 105.358 13.9793 106.919 13.2502C108.173 12.6669 109.427 12.1274 110.841 12.1566C111.701 12.1712 112.474 12.3753 113.014 13.1044C113.261 13.4543 113.378 13.8626 113.218 14.2709C113.043 14.7521 112.62 14.7667 112.197 14.7084C111.658 14.65 111.103 14.5771 110.564 14.5188C109.951 14.5188 109.324 14.4896 108.712 14.5188C104.702 14.7084 102.529 17.8142 103.725 21.6638C104.294 23.5156 105.373 24.3759 107.298 24.5509C109.018 24.6967 110.564 24.2301 111.964 23.2677C112.62 22.8157 113.116 22.7136 113.743 23.3698C114.603 24.2738 115.784 24.5217 116.965 24.3759C118.03 24.2593 119.415 24.2301 119.634 22.9032C119.896 21.3721 120.581 19.5786 118.934 18.3537ZM110.826 19.914C110.112 19.9431 109.645 19.6661 109.587 18.9078C109.529 17.96 110.389 17.1581 111.483 17.1581C112.139 17.231 112.795 17.3914 112.839 18.2808C112.868 19.0974 111.891 19.8702 110.826 19.914Z" fill="#FFC808"/>
</svg>
