<svg width="144" height="40" viewBox="0 0 144 40" fill="none" xmlns="http://www.w3.org/2000/svg">
<path fill-rule="evenodd" clip-rule="evenodd" d="M64.7702 15.4317C64.0963 15.5241 63.4652 15.677 63.1433 15.826C63.008 15.8891 62.855 15.9403 62.8035 15.9403C62.752 15.9403 62.5659 16.0109 62.3899 16.0976C60.7882 16.8838 59.4224 18.2472 58.7783 19.7019C58.684 19.915 58.5695 20.17 58.5238 20.2686C57.6749 22.1004 57.5378 26.314 58.2808 27.7437C58.3355 27.8486 58.3802 27.9876 58.3802 28.0524C58.3802 28.1173 58.5015 28.4132 58.6502 28.7101C58.7985 29.0071 58.9202 29.2635 58.9202 29.2804C58.9202 29.3706 59.6557 30.369 59.9383 30.662C62.6602 33.4872 68.3774 33.9872 71.8802 31.7065C72.4231 31.353 73.3522 30.4729 73.6499 30.0294C73.7489 29.8822 73.9214 29.6407 74.0326 29.4932C74.5975 28.7449 75.1501 27.2354 75.3009 26.03C75.482 24.5807 75.482 23.9749 75.302 22.2688C75.1 20.357 74.3325 18.6602 73.1434 17.4964C72.6463 17.0099 72.0404 16.5901 71.4151 16.2989C71.1922 16.1954 70.9384 16.0721 70.8509 16.0256C70.7631 15.9786 70.6281 15.9396 70.5507 15.9389C70.4733 15.9382 70.294 15.8852 70.1522 15.8214C70.0107 15.7573 69.754 15.6867 69.5823 15.6649C69.4106 15.643 69.2025 15.5993 69.1201 15.5678C68.6186 15.3769 65.8109 15.2891 64.7702 15.4317ZM84.2757 15.4087C83.9492 15.4356 83.5982 15.4883 83.4959 15.5262C83.3937 15.5642 83.1615 15.6305 82.9801 15.6735C82.6107 15.7616 82.1121 15.926 81.9299 16.0195C80.9421 16.5274 80.738 16.6463 80.3024 16.9669C79.9874 17.1991 79.2134 17.9882 78.9632 18.3324C78.7342 18.6473 78.3926 19.1785 78.313 19.3433C78.2734 19.4253 78.2155 19.5328 78.1841 19.5822C77.3871 20.8381 76.8961 23.8922 77.1905 25.7613C77.2474 26.1224 77.3151 26.5562 77.341 26.7256C77.4638 27.5284 78.0049 28.925 78.4387 29.5591C78.9265 30.2719 79.0784 30.4618 79.4621 30.8393C79.8596 31.2305 80.6379 31.8054 80.954 31.9412C81.0289 31.9734 81.1304 32.0246 81.1801 32.0547C81.6293 32.3291 82.984 32.7923 83.5499 32.8653C83.7152 32.8865 84.0122 32.9474 84.2102 33.0004C84.7477 33.1447 87.4415 33.1476 87.8699 33.004C88.0352 32.9488 88.2915 32.8861 88.4402 32.8643C88.8783 32.8005 89.5155 32.596 90.044 32.3499C90.3154 32.2231 90.5527 32.1195 90.5714 32.1195C90.5897 32.1195 90.6779 32.0697 90.7676 32.0092C90.8569 31.9487 91.0509 31.8212 91.1989 31.7259C93.5065 30.2361 94.7672 27.5409 94.7564 24.1193C94.7528 22.8713 94.5778 21.3607 94.3802 20.8657C94.3406 20.7672 94.2697 20.5404 94.2221 20.3617C94.1746 20.1829 94.1131 20.0081 94.0857 19.9737C94.0583 19.939 94.0022 19.8072 93.9611 19.6807C93.5479 18.4041 91.9142 16.7302 90.5951 16.2315C90.422 16.166 90.2247 16.0736 90.157 16.0263C90.089 15.979 89.9752 15.9403 89.9043 15.9403C89.8334 15.9403 89.657 15.8884 89.5126 15.825C89.3683 15.7612 89.1015 15.6903 88.9201 15.667C88.7386 15.6437 88.5226 15.5986 88.4402 15.5667C87.9632 15.3822 85.6642 15.2948 84.2757 15.4087ZM93.8999 18.2687C93.8999 18.3016 93.9406 18.3285 93.9899 18.3285C94.0396 18.3285 94.0799 18.3016 94.0799 18.2687C94.0799 18.2357 94.0396 18.2089 93.9899 18.2089C93.9406 18.2089 93.8999 18.2357 93.8999 18.2687ZM77.0077 20.2428C76.9857 20.2779 76.9825 20.3209 77.0001 20.3384C77.0429 20.381 77.1599 20.3058 77.1599 20.2352C77.1599 20.1589 77.0566 20.164 77.0077 20.2428ZM67.9202 20.5512C69.4973 21.2988 69.8375 25.1843 68.5073 27.2586C67.7643 28.4178 65.5481 28.5872 64.6348 27.5549C63.6286 26.4172 63.6178 22.733 64.6165 21.2887C65.1975 20.4484 66.9007 20.0683 67.9202 20.5512ZM87.3101 20.5648C88.7653 21.312 89.1382 24.5667 88.0384 26.9144C87.8516 27.3127 87.3749 27.8805 87.227 27.8805C87.1985 27.8805 87.1021 27.9335 87.0128 27.998C86.7971 28.1535 86.1099 28.2287 85.373 28.1778C83.9128 28.0764 83.3743 27.2225 83.2461 24.806C83.1133 22.3035 83.8646 20.7299 85.3413 20.4165C85.877 20.3026 86.9588 20.3843 87.3101 20.5648ZM83.5787 24.2268L83.6075 24.5076L83.6281 24.2758C83.6392 24.1483 83.6259 24.0219 83.5989 23.995C83.5719 23.9678 83.5625 24.0724 83.5787 24.2268Z" fill="white"/>
<path fill-rule="evenodd" clip-rule="evenodd" d="M128.73 6.03619C125.96 6.52407 123.903 8.10413 122.93 10.4927C122.886 10.5994 122.831 10.6865 122.808 10.6865C122.784 10.6865 122.746 10.8215 122.724 10.9863C122.702 11.1514 122.661 11.3008 122.632 11.3183C122.603 11.3359 122.58 11.4158 122.58 11.496C122.58 11.5762 122.556 11.6418 122.527 11.6418C122.468 11.6418 122.449 12.0032 122.449 13.1939C122.448 14.4394 122.463 14.7464 122.524 14.7464C122.555 14.7464 122.58 14.812 122.58 14.8918C122.58 14.9721 122.61 15.0559 122.646 15.0781C122.682 15.1003 122.701 15.2096 122.688 15.3206C122.675 15.4317 122.686 15.5223 122.712 15.5223C122.738 15.5223 122.76 15.5628 122.76 15.6118C122.76 15.6613 122.781 15.7014 122.805 15.7014C122.83 15.7014 122.886 15.7888 122.93 15.8955C123.052 16.1954 123.243 16.6195 123.289 16.6933C124.587 18.7762 126.318 19.9175 128.845 20.3563C132.524 20.995 136.369 18.1293 137.013 14.2685C137.79 9.61434 133.369 5.21983 128.73 6.03619ZM124.98 12.8357V14.3284H125.13C125.27 14.3284 125.28 14.3484 125.28 14.6268V14.9255H124.988C124.753 14.9255 124.666 14.8951 124.538 14.7679L124.38 14.6106V12.9768V11.3434H124.68H124.98V12.8357ZM127.32 12.5445C127.444 12.614 127.6 12.7684 127.666 12.8877C127.782 13.0951 127.806 13.181 127.889 13.6865L127.925 13.9103H127.146C126.301 13.9103 126.202 13.9479 126.423 14.1826C126.6 14.3699 126.874 14.4172 127.179 14.3126C127.439 14.2234 127.487 14.2392 127.696 14.4838C127.946 14.7779 126.773 15.081 126.312 14.8413C125.478 14.4079 125.49 12.8762 126.33 12.5069C126.613 12.3822 127.06 12.3991 127.32 12.5445ZM129.908 12.5022C130.392 12.7039 130.514 13.0503 130.488 14.1493L130.47 14.8954L130.185 14.9137C129.957 14.9284 129.9 14.913 129.9 14.8377C129.9 14.7521 129.883 14.7521 129.723 14.8342C129.315 15.0441 128.63 14.9133 128.458 14.5931C128.112 13.949 128.569 13.4328 129.485 13.4328C129.939 13.4328 129.992 13.3805 129.79 13.1312C129.668 12.9826 129.17 12.9414 129.041 13.0693C128.916 13.1936 128.48 12.9253 128.536 12.7583C128.624 12.4943 129.497 12.3314 129.908 12.5022ZM131.779 12.5441L131.812 12.6702L131.99 12.5441C132.253 12.3582 132.902 12.4177 132.898 12.6269C132.895 12.7734 132.561 13.1248 132.476 13.0711C132.007 12.7752 131.794 13.0843 131.77 14.0988L131.751 14.9312L131.44 14.9133L131.13 14.8954L131.114 13.733C131.105 13.0936 131.111 12.5362 131.127 12.4943C131.181 12.3528 131.74 12.3955 131.779 12.5441ZM133.901 12.533C133.931 12.6462 133.934 12.6462 134.121 12.533C134.919 12.0491 135.436 12.6717 135.407 14.0819L135.39 14.8954L135.105 14.9137L134.82 14.932V14.1973C134.82 13.2645 134.738 13.0542 134.367 13.027C133.966 12.9976 133.927 13.0872 133.907 14.0626L133.89 14.8954L133.605 14.9137L133.32 14.932V13.675V12.418H133.596C133.817 12.418 133.877 12.4406 133.901 12.533ZM126.618 13.0155C126.46 13.0793 126.275 13.3437 126.328 13.4303C126.374 13.5034 127.239 13.5156 127.283 13.4436C127.33 13.3684 127.093 13.0148 126.996 13.0148C126.949 13.0148 126.874 13.0034 126.83 12.9887C126.786 12.9743 126.691 12.9865 126.618 13.0155ZM129.027 14.0472L128.861 14.1897L128.99 14.3187C129.265 14.592 129.927 14.4297 129.888 14.0988C129.861 13.8656 129.28 13.8308 129.027 14.0472ZM114.66 15.0767C113.762 15.1623 112.722 15.3407 111.99 15.5345C110.002 16.0614 108.626 16.5693 108.248 16.915C107.72 17.3986 109.145 22.4805 109.87 22.6965C110.117 22.7703 109.998 22.8172 111.24 22.1542C112.825 21.3074 113.92 20.995 115.32 20.9893L116.31 20.985L116.7 21.1734C117.675 21.6441 118.227 22.6284 117.962 23.4269C117.818 23.8607 117.656 23.8872 116.64 23.6436C113.725 22.9451 111.074 23.347 109.546 24.7193C107.785 26.3008 107.421 29.5845 108.766 31.7509C110.158 33.9919 114.362 33.9586 116.854 31.6865C117.481 31.1151 117.531 31.1112 117.813 31.613C118.65 33.1017 121.042 33.6086 123.29 32.7736C124.194 32.4376 124.26 32.2084 124.26 29.4297C124.259 27.5463 124.219 27.4438 123.382 27.1899C122.271 26.8528 122.127 26.188 122.637 23.7611C123.081 21.6487 123.139 21.2687 123.139 20.5075C123.135 16.6668 119.877 14.5802 114.66 15.0767ZM30.1039 15.3421C24.7896 15.8572 21.7775 18.9511 21.2393 24.4474C20.515 31.8408 28.4335 35.9291 34.8901 31.4952C35.154 31.3139 35.505 31.0743 35.6699 30.9625C36.2621 30.5617 36.9609 29.842 36.9605 29.6328C36.9598 29.2875 36.2013 28.0506 35.0529 26.5229C33.7392 24.7755 33.7194 24.7666 32.8349 25.5425C29.7241 28.2713 27.3485 27.6075 27.7042 24.1093C27.9551 21.6419 29.7133 20.9796 33.5099 21.9231C35.3538 22.3813 35.3214 22.4142 35.7887 19.612C35.8438 19.2835 35.9129 18.9048 35.9424 18.7698C36.0889 18.1068 36.2524 16.3361 36.1872 16.1198C36.0623 15.7042 35.8067 15.6283 33.7799 15.4026C33.0437 15.3206 30.7199 15.2826 30.1039 15.3421ZM116.405 26.054C117.371 26.2098 117.588 26.4244 117.512 27.1487C117.425 27.969 117.014 28.3401 115.74 28.7456C114.301 29.2037 113.517 28.5475 113.959 27.2536C114.235 26.4444 114.729 26.107 115.83 25.9777C115.863 25.9737 116.122 26.0081 116.405 26.054Z" fill="white"/>
<path fill-rule="evenodd" clip-rule="evenodd" d="M40.59 9.97216C38.8404 10.1094 38.8465 10.1083 38.7933 10.2831C38.6561 10.7359 38.6439 31.964 38.781 32.1005C38.8789 32.1979 44.1987 32.1156 44.5896 32.0106L44.9701 31.9085L44.9658 31.3125C44.9633 30.9847 44.9388 29.1019 44.9111 27.1286L44.8607 23.5404L45.1253 23.2549C45.3867 22.9726 46.4879 22.1491 46.6042 22.1491C46.6369 22.1491 46.732 22.0961 46.8148 22.0309C47.2576 21.6845 48.3163 21.6963 48.7105 22.0524C49.5087 22.7728 49.8485 24.9313 49.5814 27.5857C49.3981 29.4064 49.4406 32.0518 49.6566 32.2667C49.7859 32.3953 52.1734 32.3978 52.7181 32.2699C52.9204 32.2227 53.3794 32.1657 53.7379 32.1435C54.0965 32.1213 54.4601 32.0679 54.5454 32.0249C54.6307 31.9823 54.877 31.9164 55.0923 31.8791C55.3075 31.8419 55.5725 31.7577 55.6805 31.6925L55.8774 31.5732L55.8414 31.0553C55.6863 28.8251 55.6611 27.1142 55.7363 23.9215C55.8184 20.4426 55.8126 20.2886 55.557 19.1867C55.2679 17.9394 54.2866 16.7305 53.1227 16.1885C52.9866 16.1251 52.857 16.0434 52.8343 16.0069C52.8116 15.97 52.7303 15.9403 52.654 15.9403C52.5777 15.9403 52.3969 15.8887 52.2526 15.8253C51.7183 15.5914 49.2919 15.6068 48.9489 15.8461C48.8743 15.8976 48.7379 15.9403 48.6454 15.9403C48.4863 15.9403 47.6781 16.3089 47.3447 16.5338C47.2597 16.5911 47.07 16.7162 46.9231 16.8114C46.2953 17.2198 45.6217 17.9817 45.1753 18.7898C44.6569 19.7283 44.5 18.8296 44.824 16.776C44.8578 16.5625 44.9237 15.797 44.9709 15.0745C45.0177 14.3523 45.0972 13.3314 45.1476 12.8059C45.3186 11.0185 45.3654 10.3852 45.3301 10.3286C45.2679 10.2283 44.8485 10.1488 44.0597 10.0875C43.6363 10.0545 42.966 10.0019 42.57 9.97037C41.7816 9.90768 41.4065 9.90804 40.59 9.97216ZM97.992 9.95246C97.8581 9.96965 97.7774 10.0205 97.7432 10.1086C97.6385 10.3773 97.385 12.379 97.2918 13.6717C97.2716 13.9508 97.2158 14.5687 97.1676 15.0448C97.1194 15.5208 97.0538 16.6223 97.0222 17.4924C96.9901 18.3625 96.9336 19.7674 96.8965 20.6142C96.8458 21.7691 96.8461 22.4858 96.8983 23.4799C96.9365 24.2092 96.9908 25.3028 97.0196 25.9103C97.1341 28.3325 97.709 30.1594 98.7275 31.3357C98.8963 31.531 99.6394 32.1195 99.7168 32.1195C99.7517 32.1195 99.9083 32.184 100.065 32.2628C100.685 32.5748 101.423 32.7113 102.51 32.7141C103.304 32.7163 104.755 32.5823 105.019 32.482C105.112 32.4465 105.281 32.4179 105.396 32.4179C105.51 32.4179 105.766 32.3634 105.964 32.2972C106.163 32.2305 106.425 32.1557 106.547 32.1306C106.769 32.0851 106.77 32.083 106.842 31.6692C106.929 31.1606 106.795 28.8294 106.645 28.2645C106.443 27.4997 106.188 26.5268 106.138 26.3276C105.98 25.6961 105.777 25.4335 105.549 25.5675C105.456 25.6223 105.26 25.6854 105.115 25.7076C104.969 25.7298 104.777 25.7846 104.688 25.8294C104.403 25.9723 103.665 25.935 103.317 25.7599C102.803 25.5005 102.661 25.2168 102.419 23.9677C102.282 23.2596 102.42 21.0071 102.721 19.0449C102.784 18.6344 102.878 17.9896 102.929 17.612C102.98 17.2341 103.059 16.7104 103.103 16.4479C103.148 16.1849 103.216 15.7418 103.255 15.4628C103.293 15.1834 103.365 14.7492 103.415 14.4974C103.465 14.2456 103.542 13.8157 103.587 13.5421C103.7 12.8457 103.846 12.1261 104.007 11.4627C104.106 11.0575 104.126 10.8842 104.077 10.8562C103.925 10.7674 103.253 10.5671 103.108 10.5671C103.022 10.5671 102.718 10.5156 102.431 10.4525C101.535 10.2555 100.484 10.0893 100.136 10.0893C99.9522 10.0893 99.6552 10.0646 99.4759 10.0341C99.0608 9.96392 98.249 9.91914 97.992 9.95246ZM11.61 14.3305C11.4451 14.3552 11.0805 14.4039 10.8 14.4383C10.5196 14.4731 10.1355 14.5565 9.94645 14.6239C9.75745 14.6912 9.54145 14.7464 9.46657 14.7464C9.30889 14.7467 8.66377 15 8.10109 15.283C6.87169 15.9009 5.92345 16.8208 5.39065 17.9122C5.05729 18.5946 4.98637 18.7855 4.94677 19.1043C4.92445 19.2849 4.86901 19.594 4.82401 19.791C4.60657 20.7385 4.87981 22.1799 5.42305 22.9533C6.39145 24.3324 7.90813 24.8994 10.9501 25.0209C13.1353 25.1079 14.04 25.5829 14.04 26.6439C14.04 27.475 13.5292 27.8758 12.4661 27.8787C11.6698 27.8808 11.641 27.8751 10.4508 27.4846C9.92701 27.3131 8.75017 26.7174 8.33437 26.4139C8.17129 26.2947 8.00029 26.2116 7.95421 26.2288C7.83037 26.276 6.32053 28.2025 6.22657 28.4332C6.20245 28.4919 6.14161 28.5557 6.09157 28.575C6.04117 28.594 6.00013 28.6381 6.00013 28.6725C6.00013 28.7068 5.93389 28.8211 5.85325 28.9264C5.19697 29.7825 5.06089 30.4531 5.46661 30.8296C5.75713 31.0986 6.92425 31.7957 7.19209 31.8602C7.27885 31.8809 7.41745 31.944 7.49989 32.0006C7.58269 32.0568 7.75081 32.1213 7.87429 32.1435C7.99741 32.1657 8.21341 32.2363 8.35417 32.2997C8.49493 32.3634 8.69941 32.4157 8.80885 32.4165C8.91829 32.4172 9.05941 32.4455 9.12277 32.4791C9.79057 32.8348 13.4287 32.9581 14.67 32.6668C16.3095 32.2825 17.136 31.8834 18.0223 31.0485C19.777 29.395 20.0481 25.9608 18.5476 24.3976C17.8837 23.7059 16.6641 23.1582 15.4653 23.0128C15.1103 22.9698 14.7323 22.9078 14.625 22.8752C14.5177 22.8422 13.9709 22.8036 13.41 22.7896C12.3635 22.7631 12.2724 22.7448 11.5812 22.4267C10.8231 22.0775 10.6103 21.3736 11.0967 20.8237C11.5636 20.2961 11.8534 20.2091 13.14 20.2091L14.2499 20.2094L14.8965 20.4333C15.6708 20.7012 16.006 20.8696 16.677 21.3263C17.3459 21.7819 17.41 21.7787 17.8834 21.2686C18.6883 20.4014 19.5703 18.7243 19.8357 17.5562C19.8835 17.3445 19.9627 17.055 20.0113 16.9121C20.1978 16.3662 20.1186 16.1584 19.6218 15.8873C19.2175 15.6662 18.2952 15.2239 18.2391 15.2239C18.2038 15.2239 18.0695 15.1701 17.9399 15.1046C17.8107 15.0387 17.6562 14.9849 17.5965 14.9849C17.5371 14.9849 17.3877 14.9312 17.2642 14.8656C17.1411 14.8001 16.9657 14.7464 16.8747 14.7464C16.7836 14.7464 16.4664 14.6794 16.1694 14.5977C15.8728 14.516 15.5221 14.4483 15.39 14.4473C15.2579 14.4465 14.9069 14.4061 14.6099 14.3574C14.0375 14.2639 12.1666 14.247 11.61 14.3305ZM5.59945 31.968C5.61061 32.002 5.65597 32.0299 5.69989 32.0299C5.74417 32.0299 5.78917 32.002 5.80069 31.968C5.81221 31.9339 5.76685 31.906 5.69989 31.906C5.63329 31.906 5.58793 31.9339 5.59945 31.968Z" fill="white"/>
<path fill-rule="evenodd" clip-rule="evenodd" d="M128.785 5.77862C128.81 5.82124 128.803 5.88823 128.77 5.92799C128.724 5.98351 128.917 5.99999 129.62 5.99999C130.121 5.99999 130.679 6.02041 130.86 6.04513C131.091 6.07629 131.149 6.07271 131.055 6.03187C130.978 5.99892 130.92 5.92154 130.92 5.85133C130.92 5.73921 130.908 5.73563 130.785 5.81157C130.571 5.94339 129.009 5.93515 128.855 5.80154C128.791 5.74638 128.76 5.73635 128.785 5.77862ZM131.52 6.17945C134.212 6.92596 136.023 8.66113 136.847 11.2836C137.158 12.274 137.164 14.2195 136.858 15.0193C136.778 15.23 136.779 15.4083 136.86 15.2837C136.892 15.2343 136.918 15.1365 136.919 15.0659C136.92 14.9362 137.066 14.8374 137.165 14.899C137.195 14.9172 137.22 14.8929 137.22 14.8442C137.22 14.7958 137.193 14.7471 137.16 14.7363C137.074 14.7073 137.073 14.5021 137.156 13.7312C137.218 13.1556 137.215 12.946 137.141 12.432C137.053 11.8316 137.061 11.582 137.167 11.582C137.279 11.582 137.214 11.4702 137.091 11.4519C136.955 11.4319 136.803 11.0568 136.801 10.7377C136.8 10.651 136.761 10.565 136.713 10.5467C136.666 10.5285 136.609 10.4192 136.587 10.3039C136.565 10.1882 136.51 10.0628 136.464 10.0248C136.418 9.9865 136.38 9.89265 136.38 9.81563C136.38 9.73719 136.328 9.64799 136.261 9.61217C136.195 9.57742 136.124 9.47999 136.103 9.39617C136.082 9.31235 135.999 9.17193 135.918 9.08453C135.837 8.99713 135.733 8.88286 135.686 8.83092C135.639 8.77862 135.6 8.71092 135.6 8.67975C135.6 8.64895 135.553 8.57838 135.495 8.52286C135.301 8.33659 135.2 8.20978 135.162 8.10447C135.141 8.04716 135.096 7.99987 135.062 7.99987C135.028 7.99987 134.939 7.94507 134.865 7.87772C134.597 7.63557 134.544 7.59223 134.14 7.28954C133.915 7.12083 133.618 6.92596 133.48 6.85647C133.343 6.78698 133.217 6.71032 133.2 6.68596C133.183 6.6616 133.084 6.62327 132.979 6.60071C132.874 6.57814 132.756 6.52083 132.717 6.4739C132.678 6.42662 132.587 6.38793 132.515 6.38793C132.444 6.38793 132.281 6.33527 132.154 6.2708C132.026 6.20596 131.757 6.13862 131.556 6.12035L131.19 6.08775L131.52 6.17945ZM127.68 6.20883C127.561 6.28548 127.711 6.28548 127.89 6.20883L128.01 6.1576L127.89 6.15438C127.824 6.15259 127.729 6.17695 127.68 6.20883ZM39.6158 9.74077C39.6313 9.88083 39.5265 9.92381 38.9912 9.99689C38.6114 10.0492 38.6377 9.78053 38.5729 14.2685C38.5102 18.5799 38.4717 19.5353 38.3551 19.651C38.2348 19.7699 38.2489 22.4848 38.3698 22.6055C38.4472 22.6825 38.4598 23.0762 38.4598 25.4092C38.4598 27.7666 38.448 28.1276 38.3698 28.1574C38.2557 28.2011 38.2564 28.2928 38.372 28.5235C38.5102 28.7993 38.579 29.5705 38.5794 30.8536L38.5801 32.0052L38.7367 32.1614L38.8936 32.3176L41.5418 32.2768C44.1702 32.2363 44.8704 32.1854 45.0046 32.0242C45.0432 31.978 45.1522 31.9404 45.2473 31.9404H45.4201V31.3995C45.4201 31.0707 45.3974 30.8726 45.3625 30.8937C45.1447 31.0277 44.8423 24.7053 45.0212 23.7568C45.0921 23.3814 46.0512 22.5664 46.98 22.0925C47.5329 21.8103 48.5823 21.9381 48.7227 22.3053C48.7515 22.3809 48.8304 22.4977 48.8977 22.5646C48.965 22.6316 49.0201 22.7212 49.0201 22.7635C49.0201 22.8057 49.0741 22.9458 49.14 23.0747C49.284 23.3559 49.3005 23.7496 49.1698 23.7994C49.1205 23.818 49.0798 23.8743 49.0798 23.9241C49.0798 23.9978 49.0968 24.0007 49.1698 23.9402C49.4618 23.6995 49.6231 26.1084 49.4186 27.6573C49.3185 28.4178 49.2915 28.5023 49.1637 28.4536C49.1094 28.4328 49.0798 28.4629 49.0798 28.5392C49.0798 28.6037 49.1176 28.6567 49.1637 28.6567C49.2922 28.6567 49.3398 30.0086 49.2638 31.5073C49.2616 31.5485 49.2195 31.5822 49.1698 31.5822C49.1194 31.5822 49.0798 31.6356 49.0798 31.704C49.0798 31.7835 49.1137 31.8201 49.1756 31.8086C49.2415 31.7964 49.3113 31.8877 49.3999 32.1016C49.5172 32.3867 49.5478 32.4157 49.7689 32.4548C50.2095 32.5329 52.3404 32.4863 52.9934 32.3842C53.3325 32.3312 53.8261 32.266 54.09 32.2388C54.5576 32.1908 54.6829 32.1636 54.9298 32.0565C54.9961 32.0278 55.2092 31.9769 55.404 31.9429C55.643 31.9014 55.7859 31.8419 55.8435 31.7599C55.8907 31.6932 55.9609 31.6424 55.9994 31.6474C56.2089 31.6728 56.2201 31.6427 56.2201 31.0449C56.2201 30.7164 56.1992 30.4478 56.1736 30.4478C55.8972 30.4478 55.8903 30.3231 55.8817 24.8701C55.877 22.0438 55.8691 19.6782 55.864 19.613C55.8586 19.5482 55.8964 19.4643 55.9472 19.4275C56.0707 19.3375 56.0736 19.0789 55.9504 19.1258C55.8248 19.1738 55.639 18.955 55.5912 18.7028C55.5692 18.586 55.5127 18.4521 55.4655 18.4051C55.4184 18.3582 55.3798 18.2593 55.3798 18.1852C55.3798 18.1114 55.3125 17.9875 55.2301 17.9104C55.1476 17.8334 55.08 17.7338 55.08 17.6891C55.08 17.6446 55.0393 17.5927 54.99 17.5737C54.9403 17.5551 54.9 17.4885 54.9 17.4265C54.9 17.3642 54.8625 17.3133 54.8164 17.3133C54.7707 17.3133 54.7167 17.2495 54.6973 17.1715C54.6775 17.093 54.6062 17.0149 54.5389 16.9974C54.4716 16.9798 54.424 16.9304 54.4334 16.887C54.4424 16.8441 54.3891 16.7996 54.315 16.7882C54.2408 16.7771 54.18 16.7294 54.18 16.6825C54.18 16.6356 54.1396 16.5969 54.0903 16.5969C54.0414 16.5969 53.9672 16.5432 53.9262 16.4776C53.8848 16.4121 53.8045 16.3583 53.7476 16.3583C53.6907 16.3583 53.6151 16.3046 53.5798 16.2387C53.5446 16.1731 53.456 16.119 53.3829 16.1183C53.1709 16.1169 53.0802 16.0295 53.1133 15.8572C53.1421 15.7071 53.0726 15.6333 53.028 15.7666C52.9938 15.8694 52.5783 15.8558 52.4577 15.7479C52.3969 15.6938 52.147 15.6236 51.8853 15.5875C51.2679 15.5026 50.9342 15.2794 51.3151 15.2063C51.3893 15.192 51.0721 15.1805 50.6098 15.1805C50.148 15.1805 49.8308 15.192 49.905 15.2063C50.2606 15.2744 49.8265 15.5484 49.2739 15.6043C49.1 15.6218 48.884 15.6759 48.7936 15.7239C48.7036 15.7719 48.5024 15.8436 48.3462 15.8833C48.1899 15.9227 48.0315 15.9922 47.9937 16.0374C47.9559 16.0825 47.8879 16.1194 47.8425 16.1194C47.7968 16.1194 47.6589 16.1731 47.5358 16.2387C47.4123 16.3046 47.2795 16.3583 47.2399 16.3583C47.2003 16.3583 47.151 16.4121 47.1301 16.4776C47.1089 16.5432 47.0531 16.5969 47.0052 16.5969C46.9577 16.5969 46.8727 16.6506 46.8162 16.7165C46.7596 16.7821 46.6653 16.8358 46.6066 16.8358C46.548 16.8358 46.5001 16.8759 46.5001 16.9254C46.5001 16.9766 46.4461 17.0149 46.3744 17.0149C46.2992 17.0149 46.2362 17.0629 46.2175 17.1342C46.2002 17.2001 46.148 17.2538 46.1016 17.2538C46.0551 17.2538 45.9932 17.3165 45.9637 17.3928C45.9345 17.4695 45.8272 17.6103 45.7254 17.7063C45.6235 17.8019 45.54 17.9001 45.54 17.9244C45.54 17.9588 45.2606 18.3514 44.9578 18.7422C44.947 18.7565 44.9085 18.739 44.8725 18.7032C44.7728 18.6039 44.8696 18.0372 45.0064 17.9208C45.0687 17.8678 45.122 17.7564 45.1242 17.6733C45.1281 17.5354 45.1328 17.5329 45.18 17.6418C45.217 17.7278 45.2329 17.6647 45.2358 17.4179C45.2379 17.2291 45.2188 17.0747 45.1933 17.0747C44.9406 17.0747 45.0169 15.0347 45.279 14.7879C45.4226 14.6525 45.4993 13.7312 45.3668 13.7312C45.207 13.7312 45.2826 12.6562 45.464 12.3503C45.5533 12.2002 45.5684 12.1949 45.639 12.2869C45.7588 12.4438 45.7506 11.1736 45.63 10.8863C45.5803 10.7685 45.54 10.5829 45.54 10.4737C45.54 10.3648 45.5166 10.2612 45.4881 10.2437C45.4593 10.2261 45.4503 10.1373 45.4676 10.0463C45.4964 9.89623 45.4896 9.88835 45.3978 9.96429C45.2768 10.0635 44.092 10.0184 43.74 9.90089C43.57 9.84429 41.666 9.78948 39.915 9.79092C39.835 9.79092 39.78 9.75474 39.78 9.70136C39.78 9.65229 39.7396 9.61181 39.6907 9.61181C39.6349 9.61181 39.6068 9.66017 39.6158 9.74077ZM99.5184 9.70136C99.4899 9.77516 99.3333 9.79092 98.6288 9.79092C97.6251 9.79092 97.4998 9.85539 97.4998 10.3709C97.4998 10.8254 97.2885 11.4706 97.1575 11.4161C97.1355 11.4072 97.1114 11.4408 97.1042 11.491C97.0966 11.5411 97.1157 11.582 97.1467 11.582C97.2813 11.582 97.3 11.8961 97.218 12.7762C97.1348 13.6696 97.0369 14.0246 96.8972 13.9386C96.8659 13.9193 96.84 13.9827 96.84 14.0798C96.84 14.1811 96.8781 14.2703 96.93 14.2904C97.0462 14.3344 97.0459 14.6726 96.9285 15.8805C96.8792 16.3895 96.8216 16.9866 96.8007 17.2073C96.7798 17.4279 96.7395 17.5941 96.7114 17.5769C96.683 17.5594 96.656 17.5805 96.651 17.6232C96.6459 17.6661 96.6229 17.5805 96.5998 17.4329C96.5671 17.222 96.5559 17.2918 96.5491 17.7561C96.544 18.0817 96.5584 18.3299 96.5811 18.3073C96.733 18.1558 96.809 18.6949 96.7611 19.5897C96.7341 20.0944 96.7251 21.5488 96.741 22.8211C96.769 25.0775 96.7665 25.1369 96.6506 25.2175C96.5631 25.2788 96.5523 25.3089 96.6106 25.3322C96.6697 25.3555 96.6708 25.3648 96.615 25.3683C96.5613 25.3719 96.5426 25.4969 96.5491 25.8061C96.5566 26.1693 96.5638 26.1976 96.5941 25.982L96.6301 25.7255L96.7014 25.8924C96.7406 25.9845 96.8004 26.2478 96.8342 26.4777C96.868 26.7073 96.9271 27.0913 96.9652 27.3303C97.0275 27.7186 97.0239 27.7773 96.9318 27.8787C96.8216 27.9998 96.8515 28.1194 96.9915 28.1194C97.1186 28.1194 97.1971 28.3114 97.2403 28.7287C97.2619 28.9357 97.3274 29.1715 97.3861 29.2538C97.4448 29.3359 97.5056 29.4895 97.5211 29.5956C97.5366 29.7016 97.6057 29.8596 97.6744 29.947C97.7436 30.0344 97.8001 30.1447 97.8001 30.1927C97.8001 30.2403 97.8541 30.3478 97.92 30.4316C97.9858 30.5151 98.0398 30.6201 98.0398 30.6648C98.0398 30.7096 98.0668 30.7461 98.1 30.7461C98.1331 30.7461 98.1601 30.8092 98.1601 30.8858C98.1601 30.9775 98.2123 31.0492 98.3117 31.0943C98.3952 31.1323 98.4801 31.2068 98.501 31.2605C98.546 31.3777 99.0255 31.8294 99.1843 31.9039C99.2466 31.9332 99.3132 32.0074 99.3326 32.0683C99.3538 32.1349 99.4244 32.179 99.5097 32.179C99.6516 32.179 99.8398 32.318 99.8398 32.4222C99.8398 32.4526 99.9 32.4777 99.973 32.4777C100.046 32.4777 100.215 32.5157 100.348 32.5619C101.168 32.8478 102.687 32.9789 103.65 32.8467C105.001 32.6611 105.518 32.5691 106.11 32.4075C106.473 32.3086 106.796 32.2033 106.827 32.1736C106.858 32.1439 106.96 32.1195 107.052 32.1195C107.244 32.1195 107.293 31.896 107.13 31.7613C107.058 31.7018 107.04 31.5224 107.04 30.8626C107.04 30.2095 107.059 30.0197 107.13 29.9488C107.228 29.8513 107.247 29.0862 107.16 28.7463L107.114 28.5672L107.107 28.7387C107.096 29.0035 106.955 28.8412 106.862 28.4583C106.805 28.2186 106.802 28.1072 106.853 28.0134C106.951 27.8307 106.937 27.7784 106.777 27.7383C106.584 27.6903 106.502 27.2321 106.646 27.0129C106.771 26.8234 106.766 26.8058 106.592 26.8058C106.399 26.8058 106.306 26.6271 106.306 26.2581C106.306 26.0289 106.281 25.9533 106.187 25.9039C106.092 25.853 106.076 25.8014 106.106 25.6445C106.161 25.349 105.655 25.2867 105.184 25.5313C104.957 25.6492 104.296 25.6116 104.374 25.4851C104.392 25.4565 104.377 25.4328 104.339 25.4328C104.299 25.4328 104.287 25.4812 104.31 25.5521C104.359 25.704 104.095 25.8247 103.92 25.7312C103.858 25.6986 103.714 25.6718 103.599 25.6718C103.049 25.6718 102.467 24.5226 102.67 23.8384C102.712 23.6977 102.767 23.582 102.793 23.582C102.819 23.582 102.84 23.2195 102.84 22.776C102.84 22.3329 102.818 21.97 102.792 21.97C102.644 21.97 102.589 21.5319 102.662 20.9344C102.74 20.2821 102.794 20.1195 102.932 20.1195C103.057 20.1195 103.047 19.7112 102.92 19.5707C102.831 19.4737 102.827 19.4081 102.885 19.0388C102.964 18.5319 103.202 18.2009 103.279 18.4925C103.294 18.5498 103.309 18.5083 103.313 18.3998C103.317 18.2912 103.263 18.0788 103.194 17.9276C102.987 17.4745 103.162 16.599 103.443 16.6875C103.533 16.7162 103.56 16.6961 103.56 16.6012C103.56 16.5331 103.532 16.4776 103.499 16.4776C103.361 16.4776 103.316 16.1645 103.383 15.6781C103.468 15.0598 103.658 14.8166 103.761 15.1941C103.779 15.2597 103.779 15.197 103.761 15.0548C103.743 14.9126 103.694 14.7306 103.652 14.6507C103.514 14.3864 103.76 13.5611 103.954 13.6352C104.079 13.6829 104.068 13.3171 103.942 13.2251C103.794 13.1176 103.879 12.6376 104.073 12.4857C104.223 12.3686 104.274 12.0999 104.16 12.0297C103.971 11.9137 104.172 11.2836 104.398 11.2836C104.528 11.2836 104.522 11.203 104.37 10.9497C104.195 10.6603 103.862 10.5489 102.339 10.2727C101.683 10.1538 101.48 10.0109 101.745 9.85432C101.835 9.8013 101.829 9.7945 101.7 9.80668C101.618 9.81456 101.529 9.87187 101.503 9.93456C101.409 10.1645 99.8269 9.98686 99.7909 9.7422C99.7686 9.59211 99.5716 9.56274 99.5184 9.70136ZM42.57 9.97038C42.966 10.0019 43.6363 10.0546 44.0596 10.0875C44.8484 10.1488 45.2678 10.2283 45.3301 10.3286C45.3654 10.3852 45.3186 11.0185 45.1476 12.806C45.0972 13.3315 45.0176 14.3523 44.9708 15.0745C44.9236 15.797 44.8578 16.5625 44.8239 16.776C44.6659 17.7779 44.6126 19.0564 44.7253 19.1384C44.8819 19.2523 44.9481 19.2011 45.1753 18.7898C45.6217 17.9817 46.2952 17.2198 46.9231 16.8115C47.07 16.7162 47.2597 16.5912 47.3446 16.5338C47.678 16.3089 48.4862 15.9403 48.6453 15.9403C48.7379 15.9403 48.8743 15.8977 48.9488 15.8461C49.2919 15.6068 51.7183 15.5914 52.2525 15.8253C52.3969 15.8887 52.5776 15.9403 52.6539 15.9403C52.7302 15.9403 52.8116 15.97 52.8343 16.0069C52.857 16.0435 52.9866 16.1251 53.1226 16.1885C54.2865 16.7305 55.2679 17.9395 55.557 19.1867C55.8126 20.2886 55.8183 20.4426 55.7362 23.9215C55.661 27.1143 55.6862 28.8251 55.8414 31.0553L55.8774 31.5732L55.6804 31.6925C55.5724 31.7577 55.3075 31.8419 55.0922 31.8792C54.8769 31.9164 54.6307 31.9823 54.5454 32.0249C54.46 32.0679 54.0964 32.1213 53.7379 32.1435C53.3793 32.1657 52.9203 32.2227 52.718 32.27C52.1733 32.3978 49.7858 32.3953 49.6566 32.2667C49.4406 32.0518 49.3981 29.4064 49.5813 27.5857C49.8484 24.9313 49.5086 22.7728 48.7105 22.0524C48.3163 21.6963 47.2575 21.6845 46.8147 22.0309C46.7319 22.0961 46.6369 22.1491 46.6041 22.1491C46.4878 22.1491 45.3866 22.9726 45.1252 23.2549L44.8606 23.5404L44.911 27.1286C44.9388 29.102 44.9632 30.9847 44.9658 31.3125L44.9701 31.9085L44.5896 32.0106C44.1986 32.1156 38.8789 32.198 38.781 32.1005C38.6438 31.964 38.656 10.7359 38.7932 10.2831C38.8396 10.1309 38.8976 10.1137 39.5701 10.056C41.3485 9.90268 41.6206 9.8948 42.57 9.97038ZM99.4759 10.0341C99.6552 10.0646 99.9522 10.0893 100.136 10.0893C100.484 10.0893 101.535 10.2555 102.431 10.4525C102.718 10.5156 103.022 10.5672 103.108 10.5672C103.253 10.5672 103.925 10.7674 104.077 10.8562C104.126 10.8842 104.105 11.0575 104.007 11.4627C103.846 12.1261 103.7 12.8457 103.587 13.5421C103.542 13.8158 103.465 14.2456 103.415 14.4974C103.365 14.7492 103.293 15.1834 103.255 15.4628C103.216 15.7418 103.148 16.1849 103.103 16.4479C103.059 16.7104 102.98 17.2341 102.929 17.6121C102.878 17.9896 102.784 18.6344 102.721 19.0449C102.42 21.0072 102.282 23.2596 102.419 23.9678C102.661 25.2168 102.803 25.5005 103.317 25.7599C103.664 25.935 104.403 25.9723 104.688 25.8294C104.777 25.7846 104.969 25.7298 105.115 25.7076C105.26 25.6854 105.455 25.6223 105.549 25.5675C105.777 25.4335 105.98 25.6961 106.138 26.3276C106.188 26.5268 106.443 27.4997 106.645 28.2645C106.795 28.8294 106.929 31.1606 106.842 31.6692C106.77 32.083 106.769 32.0851 106.547 32.1306C106.425 32.1557 106.163 32.2306 105.964 32.2972C105.766 32.3635 105.51 32.4179 105.396 32.4179C105.281 32.4179 105.112 32.4466 105.019 32.482C104.755 32.5823 103.304 32.7163 102.51 32.7141C101.423 32.7113 100.685 32.5748 100.065 32.2628C99.9082 32.184 99.7516 32.1195 99.7167 32.1195C99.6393 32.1195 98.8963 31.531 98.7274 31.3357C97.709 30.1594 97.1341 28.3325 97.0196 25.9103C96.9908 25.3028 96.9364 24.2092 96.8983 23.4799C96.8461 22.4858 96.8457 21.7691 96.8965 20.6142C96.9336 19.7674 96.9901 18.3625 97.0221 17.4924C97.0538 16.6223 97.1193 15.5208 97.1676 15.0448C97.2158 14.5687 97.2716 13.9508 97.2918 13.6718C97.385 12.379 97.6384 10.3773 97.7432 10.1086C97.8192 9.91271 98.5698 9.88083 99.4759 10.0341ZM10.7787 14.0604C10.8403 14.2209 10.6826 14.3172 10.2416 14.3885C10.0044 14.4269 9.73833 14.496 9.65085 14.5426C9.56301 14.5888 9.42693 14.6267 9.34845 14.6267C9.26961 14.6267 9.09933 14.6805 8.97009 14.7464C8.84049 14.8119 8.70657 14.8657 8.67237 14.8657C8.56905 14.8657 7.86165 15.2142 7.57869 15.4044C7.43289 15.5022 7.28529 15.5821 7.25001 15.5821C7.21473 15.5821 7.11501 15.6494 7.02789 15.7318C6.32121 16.4013 5.87985 16.8462 5.87985 16.8895C5.87985 16.9182 5.82585 16.9555 5.75997 16.9726C5.69121 16.9906 5.64009 17.054 5.64009 17.1213C5.64009 17.1861 5.60229 17.2703 5.55585 17.3086C5.50977 17.3466 5.45541 17.4433 5.43525 17.5232C5.41509 17.6027 5.34489 17.6969 5.27937 17.7317C5.20485 17.7715 5.15985 17.8567 5.15985 17.9588C5.15985 18.0491 5.12349 18.1755 5.07921 18.2404C4.55433 19.0041 4.48305 21.3797 4.95537 22.3683C5.06805 22.6041 5.15985 22.8294 5.15985 22.8695C5.15985 22.91 5.21457 22.9992 5.28117 23.0683C5.34777 23.1374 5.53065 23.3283 5.68689 23.4924C5.84349 23.6568 6.03897 23.8384 6.12069 23.8961C6.77769 24.3589 7.15533 24.5642 7.45341 24.6197C7.57581 24.6426 7.71441 24.6996 7.76157 24.7461C7.80837 24.7931 8.03085 24.8486 8.25837 24.8697C8.48481 24.8909 8.79153 24.9485 8.93985 24.9976C9.12525 25.0592 9.65157 25.1033 10.62 25.1391C12.0769 25.1925 12.3159 25.2312 13.1101 25.5417C13.3203 25.6238 13.4157 25.6965 13.429 25.7846C13.4406 25.8591 13.5075 25.925 13.5936 25.9465C13.8805 26.0181 13.9518 26.9584 13.6926 27.2461C13.6296 27.3159 13.5601 27.423 13.5385 27.4839C13.509 27.5667 13.4618 27.5853 13.3527 27.5581C13.2498 27.5326 13.1893 27.552 13.149 27.6236C13.0644 27.7744 12.0052 27.8174 11.7925 27.6788C11.7108 27.6254 11.5286 27.5821 11.3871 27.5817C11.2456 27.5814 11.0545 27.5423 10.9623 27.4943C10.8702 27.4467 10.6948 27.3904 10.5724 27.3697C10.45 27.3489 10.2826 27.2851 10.1998 27.2278C10.1174 27.1701 9.94857 27.1042 9.82509 27.0813C9.70125 27.0584 9.60009 27.0179 9.60009 26.9914C9.60009 26.9649 9.49857 26.8983 9.37509 26.8435C8.96325 26.6601 8.70009 26.5071 8.70009 26.4512C8.70009 26.4208 8.63925 26.3771 8.56509 26.3541C8.49057 26.3309 8.36565 26.2617 8.28681 26.2008C8.06325 26.0267 7.87497 26.0601 7.65969 26.3115C7.55529 26.4333 7.39581 26.6052 7.30509 26.6937C7.21437 26.7818 7.13985 26.8907 7.13985 26.9359C7.13985 26.9814 7.09269 27.0616 7.03509 27.1143C6.97713 27.1669 6.87597 27.283 6.81009 27.3715C6.74385 27.4603 6.63297 27.591 6.56313 27.662C6.49365 27.7329 6.41769 27.8515 6.39429 27.9252C6.37089 27.9994 6.32589 28.0596 6.29457 28.0596C6.26289 28.0596 6.21033 28.1294 6.17793 28.2147C6.14517 28.2999 6.06489 28.3838 5.99937 28.4009C5.88381 28.431 5.85537 28.4862 5.87553 28.6417C5.88093 28.6829 5.85645 28.7165 5.82117 28.7165C5.78589 28.7165 5.73117 28.7842 5.69949 28.867C5.66781 28.9497 5.55081 29.1593 5.43957 29.3319C5.32869 29.5049 5.20341 29.7528 5.16165 29.8829C5.11953 30.0129 5.06157 30.1451 5.03277 30.1762C4.94745 30.2676 4.97229 30.5677 5.06769 30.6043C5.11593 30.6229 5.16993 30.6838 5.18793 30.7397C5.20557 30.7956 5.36181 30.9471 5.53497 31.0768C5.70813 31.2061 5.86329 31.3286 5.87985 31.3494C5.89641 31.3701 5.97057 31.4056 6.04509 31.4289C6.11925 31.4518 6.20817 31.5227 6.24201 31.5861C6.27621 31.6495 6.35865 31.7015 6.42525 31.7015C6.49185 31.7015 6.64593 31.7531 6.76797 31.8161C6.89001 31.8788 7.05741 31.9594 7.13985 31.9945C7.22265 32.03 7.33029 32.0826 7.37997 32.112C7.42929 32.1414 7.76697 32.2606 8.12985 32.3778C8.73789 32.5734 9.06873 32.6511 10.2301 32.871C10.8216 32.9828 13.8546 32.981 14.4298 32.8682C15.1567 32.7256 16.0246 32.4813 16.2601 32.3527C16.3094 32.3258 16.4984 32.2338 16.6798 32.1485C17.0197 31.9884 17.5284 31.6807 17.7141 31.5224C18.0327 31.2509 18.622 30.6355 18.6933 30.4997C18.7383 30.4134 18.8172 30.327 18.8679 30.3077C18.9183 30.2883 18.9601 30.2378 18.9597 30.1959C18.9597 29.9803 19.296 29.4355 19.4508 29.4011L19.6113 29.3656L19.512 29.0991C19.3953 28.7857 19.4526 28.6374 19.701 28.608C19.8864 28.5858 19.9332 28.2541 19.7701 28.1194C19.6977 28.0596 19.6801 27.8776 19.6801 27.1941C19.6801 26.5103 19.6977 26.3283 19.7701 26.2685C19.9281 26.1381 19.8824 25.9297 19.6869 25.891C19.4407 25.8419 19.2916 25.2695 19.5192 25.2466C19.558 25.2426 19.5091 25.2226 19.4101 25.2014C19.288 25.1756 19.224 25.1226 19.2117 25.037C19.2016 24.9672 19.1275 24.8486 19.0468 24.773C18.9662 24.6978 18.9 24.6115 18.9 24.5814C18.9 24.5119 18.2523 23.8807 18.1814 23.8807C18.1519 23.8807 18.1108 23.827 18.09 23.7611C18.0676 23.6916 17.9992 23.6418 17.9258 23.6418C17.8563 23.6418 17.757 23.6049 17.7048 23.5601C17.6526 23.515 17.5291 23.4526 17.4301 23.4211C17.298 23.3792 17.245 23.3212 17.231 23.2044C17.2116 23.0421 17.1374 22.9959 17.0701 23.1045C17.0136 23.1955 16.6122 23.1758 16.502 23.0765C16.4458 23.026 16.174 22.963 15.8558 22.9272C15.5538 22.8931 15.2308 22.8355 15.1383 22.7993C15.0458 22.7631 14.4568 22.7115 13.8301 22.6846C12.6943 22.6363 12.4801 22.6066 12.4801 22.4962C12.4801 22.4626 12.4034 22.455 12.2979 22.478C11.9473 22.5546 11.0926 21.979 11.0199 21.6172C10.8914 20.9771 11.4602 20.4895 12.4858 20.3606C12.9466 20.3026 13.5763 20.3208 13.7998 20.3989C13.8495 20.4161 14.0518 20.438 14.2498 20.4473C14.45 20.4566 14.7387 20.52 14.9 20.5902C15.0595 20.6597 15.229 20.7163 15.2769 20.7163C15.4101 20.7163 16.2766 21.1834 16.3897 21.3159C16.4444 21.3801 16.5304 21.4327 16.5812 21.4327C16.6316 21.4327 16.6888 21.4581 16.7079 21.4893C16.7929 21.6258 17.2994 21.9123 17.3998 21.8805C17.5399 21.8364 18.2116 21.1949 18.2592 21.0598C18.2797 21.0021 18.324 20.9552 18.3582 20.9552C18.392 20.9552 18.4201 20.9151 18.4201 20.866C18.4201 20.8173 18.4741 20.7435 18.54 20.7027C18.6058 20.6615 18.6598 20.5956 18.6598 20.5558C18.6598 20.5161 18.7275 20.4115 18.81 20.3226C18.8924 20.2341 18.9601 20.1095 18.9601 20.0454C18.9601 19.9795 19.0119 19.9157 19.08 19.8978C19.1696 19.8745 19.1998 19.8165 19.1998 19.6685C19.1998 19.5231 19.2319 19.4608 19.3201 19.4328C19.4086 19.4049 19.44 19.3426 19.44 19.1935C19.44 19.0657 19.4803 18.9632 19.5505 18.9138C19.616 18.8676 19.675 18.73 19.6956 18.5771C19.7352 18.2776 19.7434 18.2654 19.9148 18.2525C20.0048 18.2457 20.0314 18.216 20.0048 18.1515C19.8658 17.8195 19.9616 17.4924 20.1974 17.4924C20.3691 17.4924 20.399 17.2442 20.2456 17.0916C20.0761 16.9229 20.2906 16.483 20.5034 16.5639C20.5527 16.5829 20.5801 16.541 20.5801 16.4457C20.5801 16.3648 20.5596 16.3017 20.5351 16.3057C20.4192 16.3236 20.1985 16.2856 20.2651 16.2591C20.3929 16.2075 20.3544 16.0001 20.2168 16.0001C20.0912 16.0001 19.7341 15.84 19.6801 15.7594C19.6635 15.735 19.5555 15.672 19.44 15.6197C19.3244 15.5674 19.1894 15.5015 19.1401 15.4728C19.0904 15.4442 18.9151 15.3596 18.7498 15.2851C18.585 15.2106 18.3538 15.1014 18.2365 15.0423C18.1191 14.9835 17.9168 14.9155 17.7865 14.8918C17.6565 14.8678 17.456 14.7983 17.3408 14.7374C17.226 14.6765 17.0424 14.6267 16.9329 14.6267C16.8235 14.6267 16.6611 14.5898 16.5718 14.5443C16.4829 14.4989 16.2615 14.443 16.0801 14.4201C15.4584 14.3416 15.3 14.2803 15.3 14.117C15.3 14.0264 15.2658 13.9701 15.21 13.9701C15.1603 13.9701 15.12 14.0103 15.12 14.0597C15.12 14.1088 15.0861 14.151 15.0451 14.1532C14.9709 14.1571 11.1996 14.1553 11.0548 14.1514C11.0138 14.1503 10.98 14.1088 10.98 14.0597C10.98 14.0103 10.9267 13.9701 10.8619 13.9701C10.7809 13.9701 10.7546 13.9988 10.7787 14.0604ZM14.6098 14.3574C14.9068 14.4061 15.2578 14.4466 15.39 14.4473C15.5221 14.4483 15.8727 14.5161 16.1694 14.5977C16.4664 14.6794 16.7835 14.7464 16.8746 14.7464C16.9657 14.7464 17.141 14.8001 17.2641 14.8657C17.3876 14.9312 17.537 14.9849 17.5964 14.9849C17.6562 14.9849 17.8106 15.0387 17.9398 15.1046C18.0694 15.1701 18.2037 15.2239 18.239 15.2239C18.2952 15.2239 19.2175 15.6663 19.6218 15.8873C20.1186 16.1584 20.1978 16.3662 20.0113 16.9121C19.9627 17.055 19.8835 17.3445 19.8356 17.5562C19.5703 18.7243 18.6883 20.4014 17.8833 21.2686C17.4099 21.7787 17.3458 21.782 16.677 21.3263C16.0059 20.8696 15.6708 20.7012 14.8964 20.4333L14.2498 20.2094L13.14 20.2091C11.8533 20.2091 11.5635 20.2961 11.0966 20.8238C10.6102 21.3736 10.823 22.0775 11.5812 22.4267C12.2724 22.7448 12.3634 22.7631 13.41 22.7896C13.9708 22.8036 14.5177 22.8423 14.625 22.8752C14.7322 22.9078 15.1102 22.9698 15.4652 23.0128C16.664 23.1582 17.8837 23.7059 18.5475 24.3976C20.048 25.9608 19.7769 29.395 18.0223 31.0485C17.136 31.8835 16.3094 32.2825 14.67 32.6669C13.4287 32.9581 9.79053 32.8349 9.12273 32.4792C9.05937 32.4455 8.91825 32.4172 8.80881 32.4165C8.69937 32.4158 8.49489 32.3635 8.35413 32.2997C8.21337 32.2363 7.99737 32.1657 7.87425 32.1435C7.75077 32.1213 7.58265 32.0568 7.49985 32.0006C7.41741 31.944 7.27881 31.8809 7.19205 31.8602C6.92421 31.7957 5.75709 31.0986 5.46657 30.8296C5.06085 30.4531 5.19693 29.7826 5.85321 28.9264C5.93385 28.8211 6.00009 28.7069 6.00009 28.6725C6.00009 28.6381 6.04113 28.594 6.09153 28.575C6.14157 28.5557 6.20241 28.4919 6.22653 28.4332C6.32049 28.2025 7.83033 26.2761 7.95417 26.2288C8.00025 26.2116 8.17125 26.2947 8.33433 26.414C8.75013 26.7174 9.92697 27.3131 10.4508 27.4846C11.6409 27.8751 11.6697 27.8808 12.466 27.8787C13.5291 27.8758 14.04 27.475 14.04 26.6439C14.04 25.5829 13.1353 25.1079 10.9501 25.0209C7.90809 24.8995 6.39141 24.3324 5.42301 22.9533C4.87977 22.1799 4.60653 20.7385 4.82397 19.791C4.86897 19.594 4.92441 19.2849 4.94673 19.1043C5.07705 18.0537 6.18009 16.4826 7.30509 15.7454C7.99197 15.2948 9.17781 14.7467 9.46653 14.7464C9.54141 14.7464 9.75741 14.6912 9.94641 14.6239C10.1354 14.5565 10.5195 14.4731 10.8 14.4383C11.0804 14.4039 11.4451 14.3552 11.61 14.3305C12.1665 14.247 14.0374 14.2639 14.6098 14.3574ZM67.5882 15.0799C67.5345 15.1662 67.379 15.1791 66.362 15.1809C65.5102 15.1823 65.156 15.2045 65.0437 15.2629C64.9591 15.3066 64.809 15.3432 64.71 15.3442C64.3852 15.3471 63.2437 15.6347 62.9701 15.7827C62.8711 15.8361 62.7552 15.8801 62.7123 15.8801C62.6436 15.8805 62.0668 16.1412 61.785 16.2992C61.7274 16.3318 61.6435 16.3784 61.5988 16.4031C61.3688 16.5303 61.0315 16.7778 60.899 16.9161C60.8173 17.002 60.7172 17.0729 60.6772 17.0737C60.6369 17.074 60.5754 17.1285 60.5401 17.194C60.5048 17.2596 60.4504 17.3133 60.4195 17.3133C60.3619 17.3133 59.8201 17.8291 59.8201 17.8839C59.8201 17.9266 59.3712 18.5122 59.2232 18.663C59.1555 18.7322 59.1001 18.8296 59.1001 18.8794C59.1001 18.9295 59.0594 19.0041 59.0101 19.0449C58.9604 19.0857 58.9201 19.1452 58.9201 19.1771C58.9201 19.2093 58.8708 19.3067 58.8103 19.3938C58.7502 19.4808 58.6648 19.6463 58.6206 19.7613C58.5766 19.8759 58.491 20.0257 58.4301 20.0934C58.3696 20.1611 58.32 20.2803 58.32 20.3581C58.32 20.5272 58.0968 21.1755 57.9816 21.3417C57.9366 21.4066 57.8995 21.581 57.8988 21.7297C57.898 21.8783 57.8527 22.215 57.798 22.4776C57.681 23.0411 57.6619 25.5406 57.771 26.0894C57.8066 26.27 57.8534 26.606 57.875 26.8359C57.8966 27.0655 57.9474 27.3073 57.988 27.3732C58.0287 27.4388 58.0806 27.5932 58.1036 27.7164C58.1266 27.8396 58.1644 27.9403 58.1882 27.9403C58.2339 27.9403 58.3801 28.3637 58.3801 28.4973C58.3801 28.5421 58.4341 28.627 58.5 28.6864C58.5658 28.7459 58.6198 28.8534 58.6198 28.9254C58.6198 28.9974 58.6738 29.1048 58.7401 29.1643C58.806 29.2238 58.86 29.3362 58.86 29.414C58.86 29.492 58.8978 29.5705 58.9438 29.588C58.9903 29.6056 59.1307 29.7854 59.256 29.9875C59.4889 30.3636 60.5376 31.4626 60.6632 31.4626C60.7014 31.4626 60.8421 31.55 60.976 31.6567C61.1096 31.7635 61.295 31.891 61.3875 31.9404C61.9448 32.2366 62.5406 32.5028 62.8801 32.6074C63.0943 32.6733 63.3376 32.7629 63.4208 32.8066C63.5036 32.8499 63.7736 32.9054 64.0202 32.9294C64.2672 32.9538 64.5642 33.0158 64.6797 33.0677C65.0005 33.211 68.1102 33.24 68.58 33.1039C68.7614 33.0512 69.0584 32.9817 69.2398 32.9495C70.2064 32.7775 71.6518 32.0869 72.477 31.4031C72.7218 31.2 73.0922 30.8368 73.5332 30.3675C73.6826 30.2085 73.7848 30.1469 73.8644 30.1676C73.9278 30.1841 73.9951 30.1734 74.0134 30.1436C74.0318 30.1139 74.0185 30.0895 73.9836 30.0895C73.8853 30.0895 73.9087 29.7915 74.0098 29.7528C74.0595 29.7342 74.0998 29.6676 74.0998 29.6056C74.0998 29.5433 74.1265 29.4924 74.1592 29.4924C74.1916 29.4924 74.2586 29.4054 74.3079 29.2986C74.4004 29.0987 74.4674 28.983 74.6524 28.704C74.7115 28.6148 74.7601 28.4934 74.7601 28.4335C74.7601 28.2559 74.9347 28.0596 75.0934 28.0596C75.2551 28.0596 75.2961 27.9149 75.15 27.859C74.943 27.7798 75.1035 27.2837 75.3364 27.2837C75.4077 27.2837 75.4113 27.2593 75.3548 27.1544C75.1989 26.8649 75.4066 26.0894 75.6396 26.0894C75.749 26.0894 75.7206 25.5475 75.6039 25.4078C75.5096 25.2946 75.5125 23.0002 75.6072 22.887C75.7602 22.7036 75.7429 22.2974 75.5776 22.1896C75.3825 22.0624 75.2518 21.4993 75.353 21.221C75.4477 20.9595 75.4372 20.8954 75.2986 20.8954C75.0834 20.8954 74.9498 20.2173 75.15 20.141C75.3073 20.0808 75.2468 20.0121 75.0448 20.021C74.8393 20.0303 74.7914 19.8924 74.9073 19.627C74.9437 19.5432 74.9232 19.5224 74.8029 19.5224C74.6845 19.5224 74.6334 19.4733 74.5588 19.2888C74.5074 19.1602 74.4393 19.0392 74.408 19.0198C74.3396 18.9779 74.3932 18.734 74.4847 18.6727C74.5207 18.6483 74.467 18.6283 74.3655 18.6279C74.1664 18.6269 73.8601 18.2611 73.8601 18.0243C73.8601 17.9617 73.8241 17.9104 73.7802 17.9104C73.7362 17.9104 73.4868 17.6991 73.225 17.4405C72.3398 16.5646 71.0535 15.8772 69.8101 15.6147C69.6121 15.5731 69.3421 15.5108 69.21 15.4761C69.0778 15.4417 68.7808 15.3969 68.5501 15.3765C67.7509 15.3063 67.689 15.2887 67.6684 15.1279C67.6526 15.0011 67.6414 14.9946 67.5882 15.0799ZM84.5391 15.0598C84.537 15.2307 84.4142 15.2844 83.8216 15.3729C83.4789 15.4241 83.1693 15.4886 83.134 15.5158C83.0988 15.5434 82.9526 15.5835 82.8093 15.6054C82.666 15.6272 82.45 15.6946 82.3294 15.7555C82.2088 15.8163 82.0242 15.8844 81.919 15.907C81.8143 15.9295 81.6962 15.9865 81.6566 16.0338C81.6174 16.0807 81.5364 16.1194 81.477 16.1194C81.4172 16.1194 81.3279 16.1595 81.2786 16.2089C81.1695 16.3175 80.883 16.3279 80.8722 16.224C80.8678 16.1828 80.8473 16.243 80.8272 16.3576C80.8012 16.5027 80.7537 16.5722 80.6698 16.5865C80.604 16.598 80.523 16.6384 80.4898 16.6768C80.4571 16.7151 80.3221 16.8265 80.1903 16.9246C80.0586 17.0224 79.7562 17.2979 79.5178 17.5365C79.2795 17.775 79.0567 17.9703 79.0225 17.9703C78.9879 17.9703 78.9598 18.0211 78.9598 18.0831C78.9598 18.1454 78.9195 18.2117 78.8698 18.2307C78.8205 18.2493 78.7798 18.3202 78.7798 18.3879C78.7798 18.4556 78.742 18.5258 78.6956 18.5434C78.6488 18.5613 78.579 18.6526 78.5401 18.7461C78.5008 18.84 78.431 18.9313 78.3846 18.9489C78.3381 18.9668 78.3 19.0463 78.3 19.1255C78.3 19.2136 78.2413 19.3078 78.1498 19.3676C78.0462 19.4353 78.0001 19.5195 78.0001 19.6409C78.0001 19.757 77.9583 19.839 77.877 19.882C77.797 19.9246 77.7661 19.9845 77.788 20.054C77.8075 20.1141 77.7697 20.2266 77.7009 20.3133C77.6343 20.3978 77.58 20.544 77.58 20.6386C77.58 20.7331 77.5285 20.9112 77.4651 21.0344C77.4021 21.1576 77.333 21.3983 77.3114 21.5695C77.2902 21.7404 77.2351 22.0015 77.1897 22.1491C76.9388 22.9641 76.9482 26.1722 77.2027 26.6575C77.2369 26.7227 77.284 26.9326 77.3074 27.1236C77.3305 27.3149 77.401 27.5835 77.4633 27.7207C77.526 27.8579 77.5778 28.0331 77.5785 28.1101C77.5792 28.1867 77.634 28.3182 77.6998 28.4017C77.7661 28.4851 77.8201 28.6109 77.8201 28.6814C77.8201 28.7516 77.8741 28.8552 77.94 28.9114C78.0058 28.9676 78.0598 29.0636 78.0598 29.1245C78.0598 29.1854 78.1138 29.2839 78.1801 29.3434C78.246 29.4029 78.3 29.4835 78.3 29.5225C78.3 29.5615 78.354 29.6558 78.4198 29.7313C78.4861 29.8069 78.5401 29.9169 78.5401 29.9753C78.5401 30.0337 78.5941 30.0985 78.66 30.1193C78.7258 30.1404 78.7798 30.1805 78.7798 30.2092C78.7798 30.269 79.1985 30.7411 79.4854 31.0044C79.9466 31.4282 80.0823 31.5378 80.2951 31.6571C80.4186 31.7266 80.5201 31.8021 80.5201 31.8254C80.5201 31.8487 80.5824 31.8831 80.659 31.9024C80.7354 31.9214 80.861 31.9916 80.938 32.0579C81.0151 32.1245 81.1224 32.179 81.1756 32.179C81.2293 32.179 81.3402 32.2263 81.4215 32.2836C81.5922 32.4036 81.829 32.4981 82.3798 32.6661C83.1358 32.8968 83.3677 32.9552 83.5254 32.9552C83.6132 32.9552 83.8029 33.0018 83.9473 33.0584C84.3451 33.2153 87.7683 33.216 88.0743 33.0598C88.1866 33.0021 88.3486 32.9549 88.4343 32.9541C88.8048 32.952 89.82 32.6224 90.2998 32.3491C90.3495 32.3208 90.4575 32.2682 90.54 32.232C90.747 32.1414 90.7891 32.1163 91.107 31.8956C91.2603 31.7889 91.4061 31.7015 91.431 31.7015C91.4558 31.7015 91.6232 31.5675 91.8032 31.4038C91.9839 31.2394 92.1884 31.1058 92.2608 31.1054C92.3385 31.1047 92.4073 31.056 92.43 30.9851C92.4508 30.9195 92.5066 30.8658 92.5542 30.8658C92.6046 30.8658 92.6398 30.807 92.6398 30.7232C92.6398 30.6312 92.6823 30.5699 92.7601 30.5498C92.827 30.5323 92.88 30.4685 92.88 30.4048C92.88 30.3421 92.961 30.2138 93.06 30.1193C93.159 30.0251 93.24 29.9165 93.24 29.8786C93.24 29.8406 93.294 29.7611 93.3598 29.7016C93.4261 29.6421 93.4801 29.5615 93.4801 29.5225C93.4801 29.4835 93.5341 29.4029 93.6 29.3434C93.6658 29.2839 93.7198 29.2012 93.7198 29.1596C93.7198 29.1177 93.7875 29.0038 93.87 28.9064C93.9524 28.8089 94.0201 28.6814 94.0201 28.623C94.0201 28.5646 94.0564 28.4744 94.1007 28.4224C94.1454 28.3709 94.2159 28.2025 94.2577 28.0485C94.2994 27.8948 94.3671 27.7558 94.4085 27.7401C94.4517 27.7236 94.4838 27.6072 94.4838 27.4653C94.4838 27.2045 94.6944 26.8954 94.8355 26.9491C94.8794 26.966 94.9035 26.9212 94.8985 26.8313C94.8938 26.7518 94.869 26.6866 94.8434 26.6866C94.6425 26.6866 94.7419 25.6309 94.9701 25.3422C95.076 25.2082 95.0936 25.2029 95.1181 25.2964C95.1336 25.3551 95.1487 24.8389 95.1519 24.1494C95.1555 23.453 95.1357 22.9307 95.1076 22.9744C95.0223 23.1088 94.8751 22.9006 94.8088 22.5521C94.6843 21.8969 94.6843 21.8708 94.8031 21.6501C94.9518 21.374 94.9514 21.2536 94.8013 21.2536C94.7361 21.2536 94.6386 21.1866 94.5842 21.1042C94.4913 20.9631 94.4924 20.8721 94.5921 20.5522C94.6263 20.4426 94.6108 20.4179 94.509 20.4179C94.4406 20.4179 94.3556 20.3649 94.3207 20.2997C94.2523 20.1729 94.2984 19.8806 94.3866 19.8806C94.4157 19.8806 94.4398 19.8537 94.4398 19.8208C94.4398 19.7882 94.3758 19.7613 94.2973 19.7613C94.1274 19.7613 94.0449 19.6743 93.9855 19.4325C93.9614 19.3343 93.8919 19.1896 93.8307 19.1115C93.7699 19.0331 93.7198 18.9353 93.7198 18.8937C93.7198 18.8525 93.6795 18.8031 93.6298 18.7845C93.5805 18.7655 93.5398 18.6838 93.5398 18.6029C93.5398 18.5155 93.4974 18.442 93.4351 18.422C93.3415 18.3919 93.2079 18.2192 93.0308 17.8983C92.998 17.8392 92.9376 17.7912 92.8958 17.7912C92.854 17.7912 92.8198 17.7629 92.8198 17.7285C92.8198 17.6583 92.2503 17.0747 92.1816 17.0747C92.1574 17.0747 92.0818 17.0242 92.0138 16.963C91.8399 16.8061 91.2708 16.4178 91.2146 16.4178C91.1887 16.4178 91.0684 16.3508 90.9471 16.2688C90.8258 16.1867 90.6832 16.1194 90.6307 16.1194C90.5781 16.1194 90.4618 16.0682 90.3726 16.0055C90.2833 15.9424 90.0842 15.874 89.9301 15.8532C89.7764 15.8321 89.6364 15.7784 89.6191 15.7336C89.5993 15.682 89.4369 15.6365 89.1788 15.61C88.9538 15.5867 88.7414 15.5448 88.7065 15.5172C88.6507 15.4732 88.1924 15.403 86.76 15.2203C86.5454 15.1927 86.0425 15.1691 85.6422 15.1673C85.0716 15.1648 84.8984 15.1447 84.8401 15.0745C84.7494 14.9663 84.5402 14.9559 84.5391 15.0598ZM68.1001 15.4288C68.5785 15.4739 69.0375 15.5362 69.12 15.5678C69.2024 15.5993 69.4105 15.643 69.5822 15.6648C69.7539 15.6867 70.0106 15.7572 70.1521 15.8214C70.2939 15.8851 70.4732 15.9381 70.5506 15.9389C70.628 15.9396 70.763 15.9786 70.8508 16.0255C70.9383 16.0721 71.1921 16.1953 71.415 16.2989C73.2132 17.136 74.5308 18.8149 75.0621 20.9455C75.2284 21.6136 75.3091 22.1892 75.4185 23.4999C75.5917 25.5682 74.9718 28.2487 74.0325 29.4931C73.9213 29.6407 73.7488 29.8821 73.6498 30.0294C71.3242 33.49 64.5663 34.215 60.8083 31.4074C60.0667 30.8536 58.9201 29.5619 58.9201 29.2803C58.9201 29.2635 58.7984 29.007 58.6501 28.7101C58.5014 28.4131 58.3801 28.1172 58.3801 28.0524C58.3801 27.9876 58.3354 27.8486 58.2807 27.7436C57.5377 26.314 57.6748 22.1004 58.5237 20.2685C58.5694 20.17 58.6839 19.915 58.7782 19.7018C59.4223 18.2472 60.7881 16.8838 62.3898 16.0975C62.5658 16.0109 62.7519 15.9403 62.8034 15.9403C62.8549 15.9403 63.0079 15.8891 63.1432 15.826C64.0551 15.4037 66.0963 15.2403 68.1001 15.4288ZM87.5401 15.4273C87.9526 15.4721 88.3576 15.5348 88.4401 15.5667C88.5225 15.5986 88.7385 15.6437 88.92 15.667C89.1014 15.6903 89.3682 15.7612 89.5125 15.8249C89.6569 15.8884 89.8333 15.9403 89.9042 15.9403C89.9751 15.9403 90.0889 15.979 90.1569 16.0263C90.2246 16.0735 90.4219 16.166 90.595 16.2315C91.9141 16.7301 93.5478 18.4041 93.961 19.6807C94.0021 19.8072 94.0582 19.939 94.0856 19.9737C94.113 20.0081 94.1745 20.1829 94.222 20.3617C94.2696 20.5404 94.3405 20.7672 94.3801 20.8657C94.5777 21.3607 94.7527 22.8713 94.7563 24.1193C94.7656 27.0638 94.0568 28.9984 92.3295 30.7461C91.6779 31.4056 91.6286 31.4482 91.1988 31.7258C91.0508 31.8211 90.8568 31.9486 90.7675 32.0092C90.6778 32.0697 90.5896 32.1195 90.5713 32.1195C90.5526 32.1195 90.3153 32.223 90.0439 32.3498C89.5154 32.5959 88.8782 32.8005 88.4401 32.8642C88.2914 32.8861 88.0351 32.9488 87.8698 33.0039C87.4414 33.1476 84.7476 33.1447 84.2101 33.0003C84.0121 32.9473 83.7151 32.8864 83.5498 32.8653C82.9839 32.7922 81.6292 32.3291 81.18 32.0547C81.1303 32.0246 81.0288 31.9734 80.9539 31.9411C80.6378 31.8054 79.8595 31.2304 79.462 30.8393C79.0783 30.4617 78.9264 30.2719 78.4386 29.559C78.0048 28.925 77.4637 27.5283 77.3409 26.7256C77.315 26.5562 77.2473 26.1224 77.1904 25.7613C76.896 23.8922 77.387 20.8381 78.184 19.5822C78.2154 19.5328 78.2733 19.4253 78.3129 19.3433C78.89 18.1504 80.0744 16.9841 81.4201 16.2838C81.6343 16.1724 81.864 16.0535 81.9298 16.0195C82.112 15.926 82.6106 15.7615 82.98 15.6734C83.1614 15.6304 83.3936 15.5642 83.4958 15.5262C83.9599 15.3543 86.3323 15.2962 87.5401 15.4273ZM136.69 15.5792C136.603 15.8282 136.602 15.8239 136.705 15.7845C136.818 15.7415 136.853 15.6383 136.802 15.4958C136.766 15.3955 136.75 15.4069 136.69 15.5792ZM36.1069 15.9503C36.1692 16.0786 36.2181 16.1273 36.2307 16.0735C36.2422 16.0248 36.1958 15.9295 36.1278 15.8618L36.0039 15.7386L36.1069 15.9503ZM136.415 16.2372C135.846 17.501 134.596 18.8095 133.31 19.4905C132.178 20.0898 131.533 20.2567 129.63 20.4437C129.498 20.4569 129.705 20.4562 130.091 20.4426C130.995 20.4107 132.636 20.0518 132.71 19.8698C132.721 19.843 132.764 19.8208 132.806 19.8208C132.913 19.8208 133.625 19.4558 133.766 19.3282C133.83 19.2709 133.901 19.224 133.922 19.224C133.944 19.224 134.02 19.1767 134.091 19.1194C134.163 19.0621 134.291 18.9611 134.378 18.8955C134.463 18.83 134.577 18.7289 134.63 18.6716C134.683 18.6143 134.775 18.567 134.833 18.567C134.892 18.567 134.941 18.5337 134.942 18.4925C134.945 18.3904 135.127 18.182 135.288 18.0963C135.36 18.0573 135.42 17.9928 135.42 17.9531C135.42 17.9133 135.513 17.7804 135.626 17.6583C135.739 17.5361 135.848 17.3832 135.869 17.318C135.889 17.2531 135.959 17.1836 136.023 17.1632C136.096 17.1403 136.14 17.0726 136.14 16.9845C136.14 16.9064 136.192 16.8064 136.255 16.7627C136.318 16.7187 136.379 16.603 136.39 16.5059C136.405 16.3723 136.447 16.3214 136.561 16.2989C136.702 16.2706 136.707 16.2569 136.646 16.0696L136.581 15.8708L136.415 16.2372ZM128.58 20.3581C128.629 20.39 128.764 20.4132 128.88 20.41L129.09 20.4039L128.91 20.3581C128.629 20.2868 128.469 20.2868 128.58 20.3581ZM66.0301 20.4132C64.3557 20.7432 63.6613 22.5235 63.9565 25.7312C64.0447 26.6901 64.5026 27.619 65.0289 27.9059C66.1874 28.5378 67.8906 28.2208 68.5072 27.2586C69.6016 25.5525 69.5786 22.114 68.4655 20.9359C68.0112 20.4548 66.9621 20.2298 66.0301 20.4132ZM85.3412 20.4165C83.8645 20.7299 83.1132 22.3035 83.246 24.806C83.3742 27.2224 83.9127 28.0764 85.3729 28.1778C86.1098 28.2286 86.797 28.1534 87.0127 27.998C87.102 27.9335 87.1984 27.8805 87.2269 27.8805C87.5156 27.8805 88.0862 26.962 88.4005 25.9906C88.9264 24.3661 88.5988 21.6333 87.7878 20.8764C87.3237 20.443 86.2056 20.2331 85.3412 20.4165ZM13.7217 20.5157C13.6735 20.5633 13.7278 20.6568 13.8034 20.6568C13.8344 20.6568 13.86 20.6163 13.86 20.5673C13.86 20.4749 13.789 20.4487 13.7217 20.5157ZM67.9042 20.6636C68.7621 21.0795 69.1236 22.0177 69.1668 23.9402C69.1898 24.9768 68.9796 26.3423 68.778 26.4655C68.7351 26.4921 68.6998 26.5795 68.6998 26.6601C68.6998 26.7421 68.634 26.8639 68.5501 26.9366C68.4676 27.0079 68.4 27.1171 68.4 27.1795C68.4 27.3063 67.8963 27.8017 67.7098 27.8583C67.644 27.8783 67.5493 27.9285 67.5 27.9693C67.2746 28.1563 65.5012 28.118 65.3922 27.9242C65.3601 27.8672 65.2662 27.821 65.183 27.821C64.9839 27.821 64.5217 27.3432 64.4392 27.0526C64.4058 26.9334 64.3381 26.7836 64.2891 26.7199C64.1606 26.5529 64.1793 26.3495 64.3334 26.242C64.4223 26.1801 64.4374 26.1489 64.3784 26.1482C64.3251 26.1478 64.3143 26.1299 64.351 26.1034C64.3849 26.0794 64.4158 25.8849 64.4205 25.6718L64.4288 25.2835L64.3888 25.6223C64.337 26.0654 64.2942 26.0941 64.144 25.7857C63.9597 25.406 63.9561 23.3588 64.1394 23.0597C64.3028 22.7928 64.3694 22.8161 64.3957 23.1492L64.4184 23.4329L64.4292 23.1245C64.4349 22.9547 64.4148 22.8068 64.3838 22.7961C64.2574 22.7513 64.2348 22.1445 64.3582 22.1126C64.4468 22.0893 64.4727 22.0288 64.4727 21.8425C64.4727 21.6766 64.5048 21.5842 64.5764 21.5445C64.6333 21.5126 64.6801 21.4524 64.6801 21.4109C64.6801 21.3231 64.9962 20.9552 65.0714 20.9552C65.0995 20.9552 65.178 20.9033 65.246 20.8395C65.314 20.7761 65.4375 20.7113 65.52 20.6959C65.6024 20.6805 65.7511 20.6253 65.8501 20.573C66.2072 20.3849 67.4416 20.4394 67.9042 20.6636ZM87.1682 20.6035C87.3234 20.6726 87.5192 20.803 87.6034 20.8932C87.688 20.9832 87.7834 21.0677 87.8158 21.0809C87.922 21.1236 88.2 21.7246 88.2 21.9113C88.2 22.0116 88.2414 22.1566 88.2918 22.2333C88.4466 22.4683 88.4808 22.9866 88.3479 23.0833C88.2558 23.1503 88.2532 23.1643 88.3321 23.1643C88.623 23.1643 88.6114 25.0596 88.3159 25.8222C88.2522 25.987 88.2 26.1682 88.2 26.2248C88.2 26.4089 87.8187 27.163 87.7078 27.1981C87.643 27.2185 87.5998 27.2898 87.5998 27.3772C87.5998 27.4796 87.5667 27.5223 87.4868 27.5223C87.4245 27.5223 87.3309 27.5875 87.2784 27.667C87.2262 27.7469 87.1218 27.831 87.0465 27.8543C86.9713 27.8776 86.8917 27.9249 86.8694 27.9596C86.7657 28.1205 84.9175 28.1284 84.7569 27.9686C84.717 27.9288 84.6248 27.8776 84.5517 27.8543C84.1928 27.7411 83.7003 27.1089 83.6535 26.7016C83.6373 26.5619 83.6031 26.4476 83.5772 26.4476C83.4051 26.4476 83.3425 25.1065 83.4973 24.7386C83.5959 24.504 83.6474 23.9287 83.565 23.9792C83.5401 23.9946 83.52 23.9398 83.52 23.8578C83.52 23.7758 83.4897 23.6898 83.4526 23.6672C83.3547 23.607 83.4166 22.7316 83.5311 22.5571C83.5812 22.4805 83.6413 22.2924 83.664 22.1391C83.687 21.9858 83.745 21.8282 83.7928 21.7888C83.8407 21.749 83.88 21.6774 83.88 21.6297C83.88 20.8431 86.1314 20.1403 87.1682 20.6035ZM109.784 22.757C109.881 22.8534 109.937 22.8727 109.984 22.8261C110.031 22.7792 109.993 22.7416 109.85 22.6922L109.65 22.623L109.784 22.757ZM33.48 24.9851C33.4159 25.0621 33.4371 25.0746 33.6301 25.0746C33.823 25.0746 33.8439 25.0621 33.7798 24.9851C33.7388 24.9356 33.6715 24.8955 33.6301 24.8955C33.5887 24.8955 33.521 24.9356 33.48 24.9851ZM103.74 25.4926C103.74 25.5252 103.78 25.5521 103.83 25.5521C103.879 25.5521 103.92 25.5252 103.92 25.4926C103.92 25.4597 103.879 25.4328 103.83 25.4328C103.78 25.4328 103.74 25.4597 103.74 25.4926Z" fill="white"/>
</svg>
