<svg width="128" height="40" viewBox="0 0 128 40" fill="none" xmlns="http://www.w3.org/2000/svg">
<g clip-path="url(#clip0_503_24)">
<path fill-rule="evenodd" clip-rule="evenodd" d="M14.6453 2.21019C14.6453 2.25397 14.6 2.29008 14.5447 2.29008C14.4891 2.29008 14.43 2.32587 14.413 2.36996C14.3964 2.41374 14.3475 2.44985 14.305 2.44985C14.2625 2.44985 14.1558 2.52174 14.0679 2.60961C13.9801 2.69749 13.8922 2.76938 13.873 2.76938C13.7672 2.76938 12.4849 4.00023 12.0424 4.52683C11.9069 4.68787 11.7663 4.8387 11.7296 4.86234C11.6931 4.88567 11.6631 4.93072 11.6631 4.96268C11.6631 4.99431 11.6033 5.07611 11.5299 5.14385C11.4567 5.21159 11.3969 5.2886 11.3969 5.3148C11.3969 5.34101 11.349 5.40555 11.2902 5.45859C11.2317 5.51164 11.1838 5.58801 11.1838 5.62827C11.1838 5.66885 11.1477 5.7155 11.1039 5.73244C11.0598 5.74905 11.024 5.79634 11.024 5.83724C11.024 5.87815 10.9854 5.91138 10.9381 5.91138C10.8761 5.91138 10.8601 5.94365 10.8818 6.02609C10.9029 6.10629 10.8122 6.30984 10.5796 6.7051C9.84398 7.95449 9.21833 9.42787 8.76843 10.9706C8.56424 11.6704 8.5243 11.8244 8.4163 12.3286C8.35335 12.6216 8.27922 12.9571 8.25174 13.0744C8.22426 13.1914 8.17888 13.431 8.15076 13.6068C8.12265 13.7825 8.07599 14.0701 8.04723 14.2458C7.68999 16.4164 7.574 19.1635 7.77307 20.7391C7.8357 21.2347 7.89801 21.6581 7.91175 21.6801C7.92517 21.7022 7.96032 21.8479 7.9894 22.0038C8.87068 26.7103 13.0572 29.0215 19.1057 28.1408L19.332 28.1079V22.6528V17.1974L19.4457 17.3035C19.5969 17.4441 19.8774 17.5741 20.0324 17.5754C20.1011 17.5757 20.189 17.5962 20.2276 17.6204C20.3343 17.6882 20.9335 17.5307 21.1258 17.384C21.3377 17.2226 21.3556 17.2233 21.3556 17.3907C21.3556 17.5223 21.3648 17.5259 21.662 17.5105L21.9681 17.4945V15.3377V13.1808L21.7087 13.1511C21.3057 13.1048 21.2891 13.1409 21.3108 14.0151C21.3278 14.6964 21.3092 14.8389 21.222 14.698C20.975 14.2979 19.9269 14.3113 19.4518 14.7207L19.332 14.8235V10.9533C19.332 7.64678 19.3211 7.08311 19.2566 7.08311C19.2147 7.08311 19.1131 7.04861 19.03 7.00643C18.7542 6.86615 18.4913 6.76358 18.4085 6.76358C18.3631 6.76358 18.3133 6.74217 18.2973 6.71629C18.281 6.69041 18.1778 6.65206 18.0679 6.63161C17.9576 6.61116 17.8436 6.57633 17.8142 6.5546C17.695 6.46641 16.134 6.09415 15.1914 5.92895L14.6453 5.83341V4.08843C14.6453 3.11416 14.6661 2.34312 14.6926 2.34312C14.7185 2.34312 14.7521 2.29519 14.7674 2.23672C14.7856 2.16738 14.769 2.13031 14.7204 2.13031C14.6792 2.13031 14.6453 2.1661 14.6453 2.21019ZM20.8651 15.1086C21.3076 15.3856 21.4578 15.8707 21.2712 16.4184C21.0153 17.1696 20.0599 17.2159 19.7103 16.4941C19.5959 16.2576 19.5496 15.6572 19.6457 15.6572C19.6719 15.6572 19.7093 15.593 19.7288 15.5147C19.7694 15.353 19.9643 15.1271 20.0643 15.1255C20.1008 15.1252 20.1308 15.1006 20.1308 15.0715C20.1308 14.9801 20.7066 15.0095 20.8651 15.1086Z" fill="white"/>
<path fill-rule="evenodd" clip-rule="evenodd" d="M21.6694 0.0236241C21.6563 0.036725 21.4361 0.0517432 21.1798 0.0574949C20.9236 0.0632465 20.704 0.0836968 20.6919 0.103188C20.6798 0.123 20.5785 0.13642 20.467 0.133544L20.264 0.128112L20.2781 3.76539C20.288 6.3859 20.3085 7.40266 20.3513 7.40266C20.3836 7.40266 20.5877 7.51035 20.805 7.64232C21.022 7.77396 21.2134 7.88197 21.2303 7.88197C21.354 7.88197 23.5591 9.27323 24.2924 9.8142L24.8136 10.1986L24.8155 12.2845L24.8174 14.3708L24.6442 14.4078C24.3004 14.482 23.8055 14.8312 23.8055 14.9999C23.8055 15.2144 24.3295 15.3984 24.4826 15.2377C24.6871 15.0233 24.8174 15.0402 24.8174 15.2808C24.8174 15.4751 24.8037 15.4975 24.6874 15.4975C24.6158 15.4975 24.5446 15.5182 24.5286 15.5438C24.5129 15.5694 24.4337 15.6036 24.3525 15.6198C23.8291 15.7256 23.5224 16.496 23.7943 17.0226C23.9115 17.2498 24.294 17.5744 24.4445 17.5744C24.4915 17.5744 24.5944 17.6045 24.673 17.6409L24.8165 17.7077L24.8168 22.162L24.8174 26.6163L24.5644 26.7359C23.5904 27.196 21.022 27.984 20.1308 28.0961C19.9698 28.1166 19.802 28.1552 19.7579 28.1821C19.4898 28.3473 21.5358 27.9006 22.767 27.5251C25.5661 26.6716 28.711 25.0803 30.4215 23.652L30.78 23.3526L30.7809 19.6358C30.7816 17.1865 30.7634 15.8972 30.7276 15.8547C30.6979 15.8192 30.4943 15.5444 30.2754 15.2438C29.9118 14.7443 29.6495 14.4222 28.7902 13.4205L28.4934 13.0744L28.4927 7.23555C28.4921 1.85265 28.4988 1.39699 28.5793 1.40402C28.7794 1.42063 28.7046 1.2794 28.4959 1.24585C28.3767 1.227 28.279 1.19217 28.279 1.16916C28.279 1.14583 28.2071 1.111 28.1192 1.09183C28.0313 1.07234 27.9594 1.03719 27.9594 1.01355C27.9594 0.9899 27.8696 0.954432 27.7597 0.93494C27.5769 0.902667 27.2411 0.798498 26.9743 0.691773C26.7771 0.612848 26.1783 0.472252 25.7891 0.413458C25.577 0.381504 25.4031 0.337408 25.4031 0.31536C25.4031 0.293312 25.2175 0.258483 24.9903 0.237713C24.7634 0.217263 24.5538 0.181475 24.5244 0.158468C24.4286 0.0836968 21.7365 -0.043798 21.6694 0.0236241ZM49.6077 18.8791C49.6077 25.2938 49.6137 27.9261 49.6214 24.7282C49.6288 21.5306 49.6288 16.2822 49.6214 13.0652C49.6137 9.84839 49.6077 12.4644 49.6077 18.8791ZM9.80788 8.01713C9.71841 8.21301 9.73566 8.25487 9.83216 8.07688C9.87722 7.99381 9.90406 7.91584 9.89192 7.9037C9.87977 7.89123 9.84175 7.94268 9.80788 8.01713ZM8.63358 11.1927C8.63039 11.2416 8.61377 11.3253 8.59684 11.379C8.56776 11.4716 8.56936 11.4716 8.62719 11.3818C8.66043 11.3294 8.67704 11.2457 8.66394 11.1952C8.64221 11.1128 8.63934 11.1128 8.63358 11.1927ZM8.44793 11.8829C8.40352 12.1046 8.44634 12.1478 8.49427 11.9292C8.51472 11.8372 8.52015 11.7509 8.50641 11.7372C8.49299 11.7237 8.46647 11.7893 8.44793 11.8829ZM8.28146 12.6216C8.26101 12.7137 8.25557 12.8003 8.26931 12.8137C8.28273 12.8271 8.30926 12.7619 8.32811 12.6683C8.34664 12.5747 8.35207 12.4884 8.33993 12.4763C8.32811 12.4641 8.30159 12.5296 8.28146 12.6216ZM22.9267 13.1399C23.2798 13.1911 23.4214 13.6403 23.1418 13.8234C22.8759 13.9976 22.5826 13.8241 22.5791 13.4905C22.5775 13.3636 22.5692 13.355 22.5235 13.4329C22.4663 13.531 22.52 13.6815 22.6756 13.8598C22.9037 14.1215 23.4271 13.8068 23.3565 13.4508C23.3156 13.2451 23.1341 13.1013 22.9267 13.1102L22.767 13.1169L22.9267 13.1399ZM8.12904 13.3783C8.11114 13.4454 8.09836 13.5483 8.10092 13.6068C8.10347 13.6656 8.12744 13.6199 8.15428 13.5058C8.20636 13.2844 8.184 13.1728 8.12904 13.3783ZM7.96831 14.3011C7.9501 14.3487 7.93827 14.4756 7.94243 14.5833C7.9485 14.7577 7.95361 14.7501 7.9878 14.5123C8.0287 14.2289 8.02231 14.1605 7.96831 14.3011ZM25.616 14.55C26.2036 14.7683 26.3058 15.0399 26.3074 16.3896L26.3084 17.468H26.0687C25.838 17.468 25.8291 17.462 25.8291 17.3083C25.8291 17.1274 25.7278 17.0958 25.6335 17.2469C25.3824 17.6489 24.4691 17.6601 24.0544 17.2661C23.2421 16.4941 24.094 15.361 25.2999 15.6093C25.7837 15.709 25.8048 15.7055 25.7856 15.5272C25.7201 14.922 24.9152 14.7264 24.4059 15.192L24.2876 15.3003L24.0732 15.1584C23.8182 14.99 23.8214 15.0047 24.0052 14.8306C24.3809 14.4743 25.083 14.3522 25.616 14.55ZM28.6429 14.467C28.7535 14.4967 28.7634 14.5216 28.7314 14.6916C28.6701 15.0191 28.6247 15.0648 28.3937 15.0338C27.7447 14.9469 27.5335 15.3156 27.5335 16.535V17.468H27.2405H26.9475V16.0033V14.5389H27.214H27.4801V14.7437V14.9485L27.6846 14.7536C27.9639 14.4881 28.3218 14.381 28.6429 14.467ZM22.6602 14.5523C22.6193 14.6689 22.6056 18.1531 22.6462 18.0889C22.6679 18.0547 22.6858 17.2399 22.6861 16.2778L22.6871 14.5286L22.9485 14.5472C23.0919 14.5571 23.1983 14.5475 23.1849 14.5254C23.1424 14.4571 22.6855 14.4801 22.6602 14.5523ZM7.79129 15.817C7.79129 15.978 7.80151 16.0439 7.81365 15.9633C7.8258 15.8828 7.8258 15.7512 7.81365 15.6707C7.80151 15.5901 7.79129 15.656 7.79129 15.817ZM24.6308 16.1129C23.9716 16.4522 24.3563 17.2134 25.1149 17.0712C25.637 16.9731 25.9841 16.2714 25.5913 16.1071C25.3485 16.0058 24.8331 16.0087 24.6308 16.1129ZM7.73441 16.2963C7.73441 16.3989 7.74559 16.4407 7.75901 16.3896C7.77212 16.3382 7.77212 16.2544 7.75901 16.203C7.74559 16.1519 7.73441 16.1937 7.73441 16.2963ZM24.8174 16.5625C24.8174 17.0392 24.7737 17.0833 24.519 16.8644C24.2525 16.635 24.4155 16.1787 24.7775 16.1407C24.7992 16.1385 24.8174 16.3283 24.8174 16.5625ZM7.63855 18.7992C7.63855 19.5169 7.64622 19.8106 7.65549 19.4517C7.66475 19.0929 7.66475 18.5059 7.65549 18.1471C7.64622 17.7882 7.63855 18.0816 7.63855 18.7992ZM23.1737 18.0129C23.1606 18.2723 22.9977 18.5931 22.8254 18.6983C22.7347 18.7535 22.6887 18.7989 22.7229 18.7992C22.9533 18.7999 23.2603 18.2905 23.2054 17.9982C23.1817 17.8713 23.1808 17.8719 23.1737 18.0129ZM22.0998 18.3762C22.0675 18.4366 22.049 18.5094 22.0586 18.5382C22.0681 18.5672 22.1036 18.518 22.1375 18.4289C22.2075 18.2436 22.1864 18.2142 22.0998 18.3762ZM22.0116 18.7174C22.0256 18.8564 22.3033 18.9379 22.5088 18.8631C22.6459 18.813 22.6312 18.8072 22.3583 18.8034C22.1183 18.8002 22.0503 18.7801 22.0282 18.7062C22.0065 18.6315 22.003 18.6337 22.0116 18.7174ZM7.78777 21.2491C7.78777 21.3517 7.79864 21.3935 7.81206 21.3424C7.82548 21.291 7.82548 21.2072 7.81206 21.1558C7.79864 21.1047 7.78777 21.1465 7.78777 21.2491ZM9.58612 25.5795C9.58612 25.5887 9.66409 25.6667 9.75931 25.7526L9.93218 25.9089L9.77592 25.736C9.63022 25.5747 9.58612 25.5382 9.58612 25.5795ZM10.3051 26.3019C10.5064 26.5256 11.1838 27.0532 11.1838 26.9864C11.1838 26.9749 11.07 26.8844 10.9307 26.7851C10.7917 26.6857 10.5581 26.4965 10.4115 26.3646C10.2364 26.2067 10.1999 26.1853 10.3051 26.3019ZM12.5683 27.7239C12.5683 27.7596 12.8451 27.8603 12.8716 27.8338C12.8834 27.8216 12.8205 27.7865 12.731 27.7552C12.6415 27.7242 12.5683 27.7098 12.5683 27.7239ZM13.7136 28.1191C13.772 28.1444 13.8679 28.1648 13.9264 28.1648H14.0331L13.9264 28.1191C13.8679 28.0939 13.772 28.0734 13.7136 28.0734H13.6068L13.7136 28.1191ZM14.4325 28.2789C14.5057 28.3022 14.6495 28.3211 14.7521 28.3208L14.9383 28.3198L14.7252 28.2757C14.4408 28.2169 14.2456 28.2191 14.4325 28.2789ZM18.9108 28.2853C18.6942 28.3102 18.5024 28.346 18.4849 28.3642C18.4456 28.4054 19.245 28.3386 19.4949 28.2799L19.678 28.2364L19.4917 28.238C19.3892 28.239 19.1278 28.26 18.9108 28.2853ZM15.6838 28.4473C16.0251 28.4923 17.6704 28.492 18.0538 28.4467C18.2149 28.4275 17.6876 28.4121 16.8821 28.4121C16.0769 28.4121 15.5375 28.4278 15.6838 28.4473Z" fill="white"/>
<path fill-rule="evenodd" clip-rule="evenodd" d="M19.964 0.16421C19.9285 0.185938 19.7355 0.220448 19.5355 0.240579C19.3354 0.260709 19.16 0.296178 19.1453 0.319823C19.1309 0.34315 18.9753 0.378938 18.7996 0.399388C18.6235 0.419838 18.4797 0.459141 18.4797 0.486941C18.4797 0.514421 18.45 0.531995 18.4133 0.525605C18.3318 0.511225 17.8994 0.623382 17.7809 0.689846C17.733 0.716367 17.6074 0.754712 17.5013 0.774523C17.3949 0.794334 17.3083 0.832039 17.3083 0.857922C17.3083 0.884124 17.2502 0.905213 17.1789 0.905213C17.1076 0.905213 17.0137 0.941321 16.9696 0.985097C16.9258 1.02919 16.8552 1.06498 16.813 1.06498C16.7708 1.06498 16.4756 1.19919 16.157 1.36311C15.3917 1.75646 15.2614 1.82963 15.24 1.87724C15.2304 1.89929 15.1936 1.91718 15.1588 1.91718C15.1236 1.91718 15.0533 1.96607 15.0019 2.02583C14.9508 2.0859 14.8862 2.12073 14.8584 2.10379C14.8309 2.08654 14.7929 2.13351 14.7744 2.20796C14.7555 2.28241 14.7191 2.34312 14.6929 2.34312C14.6661 2.34312 14.6453 3.10202 14.6453 4.08843V5.83341L15.1914 5.92895C16.134 6.09415 17.6949 6.46641 17.8141 6.55461C17.8435 6.57633 17.9576 6.61116 18.0678 6.63161C18.1778 6.65206 18.281 6.69041 18.2973 6.71629C18.3132 6.74217 18.3631 6.76358 18.4085 6.76358C18.4912 6.76358 18.7542 6.86615 19.03 7.00643C19.113 7.04861 19.2147 7.08312 19.2565 7.08312C19.3211 7.08312 19.3319 7.64678 19.3319 10.9533V14.8236L19.4518 14.7207C19.9269 14.3113 20.975 14.2979 21.222 14.698C21.3092 14.8389 21.3277 14.6964 21.3108 14.0151C21.2891 13.1409 21.3057 13.1048 21.7086 13.1511L21.9681 13.1808V15.3377V17.4946L21.662 17.5105C21.3648 17.5259 21.3555 17.5224 21.3555 17.3907C21.3555 17.2233 21.3377 17.2226 21.1258 17.384C20.9334 17.5307 20.3343 17.6882 20.2276 17.6205C20.1889 17.5962 20.1011 17.5757 20.0324 17.5754C19.8774 17.5741 19.5968 17.4441 19.4457 17.3035L19.3319 17.1974V22.6528V28.1079L19.1057 28.1408C18.0605 28.2929 17.3514 28.3361 16.1631 28.3195C14.7166 28.2993 14.8035 28.3613 16.2963 28.4147C18.8504 28.5058 22.3007 27.805 24.5643 26.7358L24.8174 26.6163L24.8168 22.162L24.8164 17.7077L24.673 17.6409C24.5944 17.6045 24.4915 17.5744 24.4445 17.5744C24.294 17.5744 23.9115 17.2498 23.7942 17.0226C23.5223 16.496 23.8291 15.7256 24.3525 15.6198C24.4336 15.6035 24.5129 15.5693 24.5285 15.5438C24.5445 15.5182 24.6158 15.4975 24.6873 15.4975C24.8037 15.4975 24.8174 15.4751 24.8174 15.2808C24.8174 15.0402 24.687 15.0233 24.4825 15.2377C24.3295 15.3984 23.8054 15.2143 23.8054 14.9999C23.8054 14.8312 24.3004 14.482 24.6442 14.4078L24.8174 14.3708L24.8155 12.2845L24.8136 10.1986L24.2924 9.81419C23.5591 9.27322 21.354 7.88196 21.2303 7.88196C21.2134 7.88196 21.022 7.77395 20.805 7.64231C20.5877 7.51034 20.3832 7.40265 20.3503 7.40265C20.2589 7.40265 20.2656 0.176991 20.357 0.146316C20.3937 0.134173 20.3346 0.124268 20.226 0.124268C20.1173 0.124268 19.9994 0.142162 19.964 0.16421ZM23.2053 13.1952C23.5063 13.4288 23.3162 13.9531 22.9302 13.9531C22.6471 13.9531 22.4385 13.6457 22.5394 13.378C22.6407 13.1102 22.9766 13.0182 23.2053 13.1952ZM23.1929 16.4388C23.1929 18.3017 23.1894 18.3707 23.083 18.5158C22.8701 18.8069 22.2221 18.9948 22.0441 18.8168C21.9266 18.6992 22.0997 18.2908 22.2611 18.3062C22.6056 18.3394 22.6056 18.3384 22.6219 16.3874C22.6394 14.3225 22.6139 14.4749 22.9395 14.496L23.1929 14.5123V16.4388ZM20.1308 15.0715C20.1308 15.1006 20.1007 15.1252 20.0643 15.1255C19.9643 15.1271 19.7694 15.353 19.7288 15.5147C19.7093 15.593 19.6719 15.6572 19.6457 15.6572C19.4131 15.6572 19.6959 16.6289 19.9946 16.8571C20.836 17.4984 21.8614 16.0566 21.1054 15.2955C20.8619 15.0504 20.1308 14.8823 20.1308 15.0715ZM24.6643 16.1739C24.3653 16.2928 24.287 16.6647 24.519 16.8644C24.7736 17.0833 24.8174 17.0392 24.8174 16.5625C24.8174 16.3282 24.7992 16.1384 24.7775 16.1407C24.7554 16.1429 24.7046 16.1579 24.6643 16.1739ZM7.73821 16.7222C7.73821 16.8833 7.74811 16.9494 7.76026 16.8689C7.7724 16.7884 7.7724 16.6564 7.76026 16.5759C7.74811 16.4954 7.73821 16.5612 7.73821 16.7222ZM7.73438 20.6634C7.73438 20.7656 7.74556 20.8078 7.75898 20.7564C7.77208 20.7052 7.77208 20.6212 7.75898 20.5701C7.74556 20.519 7.73438 20.5608 7.73438 20.6634ZM12.8348 27.7906C12.8786 27.8178 12.9744 27.8558 13.0476 27.8756C13.1403 27.9002 13.1566 27.8961 13.101 27.8619C13.0569 27.8347 12.9613 27.7964 12.8878 27.7769C12.7955 27.752 12.7792 27.7564 12.8348 27.7906ZM13.3141 27.9514C13.3579 27.9772 13.4659 28.0137 13.5538 28.0328C13.656 28.0549 13.6848 28.0504 13.6336 28.0204C13.5895 27.9948 13.4819 27.9581 13.394 27.9392C13.2917 27.9172 13.263 27.9213 13.3141 27.9514ZM14.1129 28.1725C14.1861 28.1958 14.3059 28.215 14.3791 28.215H14.5124L14.3791 28.1725C14.3059 28.1488 14.1861 28.1297 14.1129 28.1297H13.9797L14.1129 28.1725Z" fill="white"/>
<path fill-rule="evenodd" clip-rule="evenodd" d="M28.6707 1.39699C28.6544 1.42351 28.6075 1.43214 28.5666 1.41648C28.503 1.3922 28.4921 2.24664 28.4927 7.23107L28.4934 13.0744L28.7902 13.4205C29.6495 14.4222 29.9118 14.7443 30.2754 15.2438C30.4943 15.5444 30.6979 15.8192 30.7276 15.8547C30.7634 15.8972 30.7816 17.1865 30.7809 19.6358L30.78 23.3526L30.4215 23.652C27.19 26.3502 21.177 28.492 16.8329 28.492C15.3991 28.492 13.2729 28.1169 12.5684 27.7398C12.5246 27.7165 12.3447 27.6322 12.1689 27.5523C10.0431 26.5879 8.53741 24.6359 7.9648 22.1013C7.91527 21.8815 7.85168 21.606 7.82389 21.4888C7.52959 20.2557 7.56538 17.4121 7.90696 14.8584C8.04916 13.7956 8.36326 12.1506 8.52207 11.6365C8.54923 11.5486 8.6224 11.2968 8.68503 11.0773C8.79815 10.6789 9.11545 9.70396 9.20779 9.46974C9.40111 8.98117 9.49665 8.73992 9.55066 8.60444C9.68582 8.26509 10.3473 6.95308 10.5508 6.62044C10.8962 6.05614 10.8978 6.0408 10.6048 6.06413C10.4693 6.07467 10.3463 6.0996 10.3316 6.11973C10.3169 6.13954 10.0894 6.18619 9.82578 6.22326C9.56216 6.26032 9.32379 6.31305 9.29599 6.34053C9.26819 6.36801 9.19405 6.3907 9.13174 6.3907C9.00776 6.3907 8.33386 6.58178 8.19487 6.65655C8.14694 6.68211 8.02136 6.71918 7.91527 6.73899C7.80887 6.75912 7.72227 6.79459 7.72227 6.81855C7.72227 6.8422 7.64431 6.87831 7.54908 6.89844C7.45386 6.91889 7.35193 6.95372 7.32285 6.97609C7.29346 6.99845 7.20974 7.03488 7.13624 7.05725C6.93749 7.11764 6.20831 7.46306 6.17732 7.51163C6.1623 7.53495 6.08433 7.57042 6.00413 7.59055C5.92393 7.61068 5.8581 7.6436 5.8581 7.66405C5.8581 7.68418 5.77438 7.73115 5.67181 7.76821C5.56924 7.80528 5.48552 7.858 5.48552 7.88516C5.48552 7.91264 5.45133 7.93501 5.40947 7.93501C5.36761 7.93501 5.30147 7.96665 5.26281 8.00531C5.22414 8.04365 5.08418 8.13856 4.9519 8.21588C4.81961 8.29353 4.65888 8.40569 4.59466 8.46544C4.53043 8.52519 4.45438 8.57408 4.4253 8.57408C4.39622 8.57408 4.35309 8.60412 4.32976 8.64087C4.30644 8.67729 4.20322 8.7658 4.10065 8.83706C3.63158 9.16363 2.50713 10.2894 2.18248 10.7578C2.11154 10.86 2.03422 10.968 2.01121 10.9974C1.79265 11.2732 1.59773 11.5605 1.59773 11.6065C1.59773 11.6378 1.57376 11.663 1.54437 11.663C1.51529 11.663 1.49132 11.6892 1.49132 11.7215C1.49132 11.7535 1.44659 11.8433 1.39163 11.9212C1.33699 11.9989 1.27372 12.1225 1.25135 12.1957C1.22899 12.2689 1.19575 12.3408 1.17786 12.3555C1.11459 12.4066 0.745528 13.1914 0.745528 13.2745C0.745528 13.3205 0.727634 13.3665 0.705586 13.3761C0.649028 13.4013 0.435578 14.0426 0.394039 14.3126C0.374867 14.4369 0.340676 14.5389 0.317989 14.5389C0.295302 14.5389 0.259834 14.6887 0.239064 14.8718C0.218294 15.0549 0.181228 15.2294 0.156624 15.26C-0.0104936 15.4677 -0.0111327 18.9884 0.156304 19.1961C0.180908 19.2268 0.218294 19.4258 0.239064 19.638C0.260153 19.8505 0.294024 20.0243 0.314474 20.0243C0.334925 20.0243 0.379021 20.1978 0.412891 20.4103C0.446443 20.6228 0.48287 20.8324 0.493734 20.8762C0.522492 20.99 0.650626 21.5849 0.660532 21.6485C0.665005 21.6779 0.683219 21.7259 0.701113 21.7549C0.719007 21.7843 0.750321 21.9342 0.771091 22.0879C0.791861 22.2416 0.827968 22.3675 0.850975 22.3675C0.874301 22.3675 0.90945 22.4988 0.929581 22.6595C0.949711 22.8203 0.985499 22.9637 1.00946 22.9784C1.03343 22.9931 1.06986 23.1194 1.09095 23.259C1.11172 23.3983 1.14527 23.5245 1.1654 23.5392C1.18553 23.5536 1.23122 23.6974 1.26701 23.8588C1.30248 24.0198 1.33955 24.1754 1.34913 24.2048C1.35904 24.2342 1.39546 24.3659 1.43029 24.4978C1.46512 24.6295 1.51529 24.7765 1.54213 24.8241C1.56865 24.8717 1.60668 24.9979 1.62681 25.1043C1.64662 25.2107 1.68209 25.3094 1.70573 25.3241C1.72906 25.3385 1.76453 25.4459 1.78402 25.5628C1.80383 25.6798 1.84186 25.7888 1.8687 25.8054C1.89554 25.822 1.91727 25.876 1.91759 25.9255C1.9179 25.975 1.95146 26.0798 1.99236 26.1585C2.03358 26.2371 2.08374 26.3809 2.10419 26.478C2.12464 26.5751 2.17226 26.7266 2.20996 26.8145C2.27099 26.9563 2.34385 27.1388 2.37005 27.2139C2.39146 27.2762 2.4723 27.4686 2.56433 27.6769C2.61833 27.7996 2.66274 27.9376 2.66274 27.983C2.66274 28.0287 2.68479 28.0658 2.71195 28.0658C2.73879 28.0658 2.77778 28.1431 2.79855 28.2374C2.81932 28.3313 2.85606 28.4454 2.88067 28.4901C2.90495 28.5352 2.98803 28.7157 3.06472 28.8914C3.3523 29.5481 4.21057 31.2241 4.27384 31.2525C4.29589 31.2621 4.31378 31.3023 4.31378 31.3416C4.31378 31.3813 4.34414 31.4452 4.38089 31.4838C4.41795 31.5225 4.47771 31.6142 4.51381 31.6874C4.58635 31.835 4.5921 31.844 5.00622 32.475C5.16726 32.7204 5.32288 32.9614 5.35228 33.0099C5.38167 33.0588 5.41746 33.1106 5.43216 33.1253C5.44718 33.1397 5.5309 33.2595 5.61877 33.3915C5.70664 33.5231 5.80985 33.6644 5.84851 33.7053C5.88718 33.7458 5.95843 33.8417 6.007 33.9181C6.05557 33.9948 6.12587 34.0762 6.16326 34.0999C6.20032 34.1232 6.231 34.175 6.231 34.2152C6.231 34.2552 6.24953 34.2961 6.2719 34.3057C6.29459 34.3156 6.42016 34.453 6.55149 34.6111C6.68282 34.7696 6.89787 35.0118 7.02984 35.1499C7.16149 35.2876 7.31934 35.4576 7.38037 35.5276C7.56219 35.7365 8.31086 36.4318 8.70868 36.7613C9.13366 37.1131 9.1244 37.1058 9.37299 37.278C9.47557 37.3489 9.57878 37.4381 9.6021 37.4761C9.62543 37.5141 9.67751 37.5454 9.71745 37.5454C9.7574 37.5454 9.7983 37.5633 9.80788 37.5854C9.83313 37.6416 10.1578 37.865 10.215 37.865C10.2409 37.865 10.3175 37.9129 10.385 37.9714C10.4524 38.0302 10.5399 38.0781 10.5796 38.0781C10.6189 38.0781 10.6511 38.0963 10.6511 38.119C10.6511 38.1417 10.7652 38.2197 10.9042 38.2922C11.0432 38.3647 11.1653 38.442 11.1749 38.4641C11.1848 38.4861 11.2206 38.5047 11.2547 38.5056C11.2889 38.5066 11.4369 38.5663 11.5832 38.6382C11.7296 38.7105 11.8794 38.7696 11.9162 38.7699C11.9526 38.7702 11.9826 38.7942 11.9826 38.8236C11.9826 38.853 12.0079 38.8769 12.0389 38.8769C12.0878 38.8769 12.3511 38.9833 12.7016 39.1447C12.9604 39.2639 13.9542 39.5713 14.182 39.6026C14.3197 39.6215 14.4325 39.6553 14.4325 39.6777C14.4325 39.7001 14.5821 39.7355 14.7652 39.7563C14.9483 39.7771 15.1221 39.8129 15.1515 39.8359C15.4071 40.0375 20.0116 40.0378 20.2641 39.8365C20.2931 39.8132 20.4721 39.7764 20.6612 39.755C20.8504 39.7336 21.0421 39.6959 21.0872 39.6713C21.1322 39.6467 21.277 39.6036 21.409 39.5751C21.81 39.4892 22.2829 39.3569 22.3743 39.3054C22.4219 39.2789 22.5478 39.2406 22.6539 39.2208C22.7599 39.2009 22.8469 39.1642 22.8469 39.1396C22.8469 39.115 22.9306 39.0789 23.0332 39.0597C23.1357 39.0405 23.2198 39.0035 23.2198 38.9773C23.2198 38.9514 23.2639 38.93 23.3179 38.93C23.4508 38.93 25.1958 38.0452 25.2344 37.9583C25.2443 37.9362 25.2808 37.9183 25.3156 37.9183C25.3504 37.9183 25.5064 37.8343 25.662 37.7317C25.8176 37.6292 25.955 37.5454 25.9674 37.5454C25.9799 37.5454 26.1093 37.4614 26.2553 37.3591C26.4011 37.2566 26.5426 37.1725 26.5698 37.1725C26.5969 37.1725 26.6273 37.1546 26.6369 37.1326C26.6529 37.0965 27.3034 36.6376 27.5236 36.5069C27.5728 36.4775 27.6252 36.4411 27.6399 36.4258C27.6546 36.4104 27.8339 36.2667 28.0384 36.1062C28.2429 35.9458 28.4509 35.7787 28.5004 35.7346C28.5503 35.6908 28.6228 35.6308 28.6615 35.6017C29.2855 35.1313 31.2082 33.2061 31.2082 33.0515C31.2082 33.0361 31.2618 32.9655 31.328 32.8949C31.5587 32.6469 31.6811 32.4837 31.7143 32.3789C31.7328 32.3207 31.7709 32.2731 31.799 32.2731C31.8274 32.2731 31.8661 32.2312 31.8853 32.1798C31.9169 32.0948 32.1029 31.8043 32.1668 31.7404C32.1811 31.7257 32.2233 31.6599 32.2597 31.5941C32.2965 31.5283 32.3562 31.4203 32.393 31.3544C32.4297 31.2886 32.4716 31.2225 32.4863 31.2081C32.5901 31.1036 33.2851 29.6756 33.2851 29.566C33.2851 29.5385 33.3209 29.4474 33.3647 29.3634C33.4085 29.2794 33.4443 29.1688 33.4446 29.1177C33.4446 29.0666 33.4666 29.0244 33.4935 29.0244C33.52 29.0244 33.5587 28.9228 33.5794 28.7981C33.5999 28.6735 33.6315 28.5479 33.6491 28.5185C33.667 28.4891 33.6871 28.4412 33.6941 28.4121C33.7012 28.3827 33.7338 28.2629 33.7664 28.1456C33.7993 28.0287 33.829 27.8788 33.8325 27.813C33.836 27.7469 33.8561 27.6932 33.8769 27.6932C33.898 27.6932 33.9322 27.5072 33.9533 27.2803C33.9741 27.0535 34.0182 26.8506 34.0511 26.8295C34.1409 26.7723 34.1341 23.3552 34.044 23.2647C34.0073 23.2283 33.9766 23.1133 33.9753 23.0091C33.9731 22.7794 33.8427 22.1528 33.6245 21.3226C33.6015 21.235 33.6801 21.1216 33.975 20.8168C34.1843 20.6005 34.408 20.3541 34.4725 20.2694C34.5371 20.1844 34.6438 20.0617 34.7096 19.9968C34.7755 19.932 34.8295 19.8604 34.8295 19.8377C34.8295 19.8154 34.8867 19.7438 34.9563 19.6792C35.0263 19.6144 35.1001 19.508 35.1209 19.4428C35.1416 19.3773 35.1717 19.3367 35.1873 19.3523C35.2225 19.3878 35.5193 18.9568 35.5209 18.8686C35.5212 18.8334 35.5634 18.7813 35.6146 18.7526C35.6657 18.7241 35.6896 18.6832 35.6682 18.6618C35.6468 18.6404 35.5692 18.6877 35.4957 18.767L35.3621 18.9114V12.7277C35.3621 8.92493 35.381 6.5559 35.4116 6.57475C35.4858 6.62044 35.5219 6.53001 35.465 6.4415C35.4216 6.37408 35.4078 6.3744 35.357 6.44406C35.3081 6.51084 35.304 6.50797 35.3302 6.4268C35.3516 6.36098 35.2925 6.24754 35.149 6.07723C35.0317 5.93823 34.9359 5.80563 34.9359 5.78262C34.9359 5.72063 34.2946 5.06334 33.5021 4.31371C33.2513 4.0763 32.8167 3.71586 32.7052 3.65259C32.6579 3.62575 32.6074 3.58613 32.5927 3.56472C32.5534 3.50689 31.9741 3.08957 31.6076 2.85535C31.4318 2.74287 31.2229 2.60547 31.1436 2.55019C31.0644 2.49492 30.9765 2.44986 30.9484 2.44986C30.9203 2.44986 30.8893 2.43165 30.8797 2.40992C30.8698 2.38787 30.718 2.29808 30.5422 2.21021C30.3665 2.12234 30.2109 2.03574 30.1962 2.01753C30.1815 1.99963 30.1096 1.9664 30.0364 1.94372C29.9632 1.92135 29.8913 1.88812 29.8766 1.87022C29.8319 1.81494 29.375 1.59734 29.304 1.59766C29.2676 1.59766 29.2376 1.57369 29.2376 1.5443C29.2376 1.51522 29.2197 1.49445 29.1976 1.49828C29.1107 1.51394 28.8148 1.42255 28.8366 1.38708C28.8497 1.36631 28.8241 1.34906 28.7803 1.34906C28.7362 1.34906 28.687 1.37079 28.6707 1.39699ZM49.5543 18.8791C49.5543 25.3232 49.5604 27.9514 49.568 24.7199C49.5757 21.4881 49.5757 16.2158 49.568 13.0035C49.5604 9.79119 49.5543 12.4354 49.5543 18.8791ZM45.1872 18.906C45.1872 25.3059 45.1936 27.9242 45.2009 24.7241C45.2086 21.5239 45.2086 16.2877 45.2009 13.0875C45.1936 9.88769 45.1872 12.5057 45.1872 18.906ZM22.6686 13.2514C22.3778 13.5729 22.781 14.0599 23.1418 13.8234C23.307 13.7151 23.3265 13.3789 23.1757 13.2422C23.0463 13.1252 22.7785 13.1303 22.6686 13.2514ZM24.7056 14.4865C24.4183 14.535 24.2081 14.6382 24.0052 14.8306C23.8214 15.0047 23.8182 14.99 24.0732 15.1584L24.2876 15.3003L24.4059 15.192C24.9152 14.7264 25.7201 14.922 25.7856 15.5272C25.8048 15.7055 25.7837 15.709 25.2999 15.6093C24.094 15.361 23.2421 16.4941 24.0544 17.2661C24.4691 17.6601 25.3824 17.6489 25.6335 17.2469C25.7278 17.0958 25.8291 17.1274 25.8291 17.3083C25.8291 17.462 25.838 17.468 26.0687 17.468H26.3084L26.3074 16.3896C26.3055 14.737 25.9218 14.2807 24.7056 14.4865ZM28.071 14.5012C27.9709 14.5331 27.7974 14.6465 27.6846 14.7536L27.4801 14.9485V14.7437V14.5389H27.214H26.9475V16.0033V17.468H27.2405H27.5335V16.535C27.5335 15.3156 27.7447 14.9469 28.3937 15.0338C28.6247 15.0648 28.6701 15.0191 28.7314 14.6916C28.7803 14.4318 28.5218 14.3574 28.071 14.5012ZM22.6871 16.2695C22.6871 18.3126 22.6762 18.3634 22.2525 18.3298C22.1682 18.3234 22.048 18.557 22.048 18.7273C22.048 18.844 22.6232 18.8216 22.8274 18.697C23.1642 18.4918 23.1929 18.3039 23.1929 16.3228V14.5654L22.9402 14.5494L22.6871 14.5331V16.2695ZM95.3684 20.9481C95.3757 24.4675 95.3879 28.4732 95.3956 29.8501C95.4029 31.2266 95.4147 28.3748 95.4211 23.5124C95.4278 18.6503 95.4154 14.6443 95.394 14.6104C95.3725 14.5766 95.361 17.4284 95.3684 20.9481ZM25.5914 16.1071C26.162 16.3458 25.4108 17.1984 24.7408 17.0728C24.3771 17.0044 24.1729 16.5749 24.379 16.3123C24.5941 16.0384 25.1868 15.9381 25.5914 16.1071ZM105.034 27.7299C105.085 27.743 105.169 27.743 105.221 27.7299C105.272 27.7165 105.23 27.7053 105.127 27.7053C105.025 27.7053 104.983 27.7165 105.034 27.7299Z" fill="white"/>
<path fill-rule="evenodd" clip-rule="evenodd" d="M35.3637 12.7488C35.3646 16.9753 35.3825 18.9031 35.4196 18.8392C35.4886 18.7206 35.5829 18.7171 35.5375 18.8347C35.5142 18.8958 35.5237 18.9108 35.5682 18.8836C35.6036 18.8616 35.6186 18.7996 35.6014 18.7459C35.5797 18.6772 35.6039 18.6376 35.6832 18.6123C35.7452 18.5928 35.7819 18.5625 35.765 18.5455C35.7477 18.5283 35.788 18.4548 35.8541 18.3819C35.9203 18.3091 35.9385 18.2698 35.8944 18.2944C35.8506 18.319 35.8925 18.2653 35.9877 18.1752C36.0829 18.0848 36.1609 17.9726 36.1609 17.926C36.1609 17.879 36.1839 17.8406 36.2123 17.8406C36.2408 17.8406 36.2501 17.8042 36.2328 17.7592C36.2146 17.7119 36.2504 17.6352 36.3191 17.5757C36.3884 17.5157 36.4204 17.447 36.397 17.4093C36.3718 17.3684 36.3798 17.3588 36.4188 17.3831C36.4571 17.4067 36.4804 17.3821 36.4804 17.3179C36.4804 17.261 36.5137 17.1869 36.5546 17.153C36.5955 17.1191 36.6447 17.0083 36.6635 16.907C36.6827 16.8053 36.721 16.7223 36.7492 16.7223C36.777 16.7223 36.8 16.682 36.8 16.6328C36.8 16.5833 36.8498 16.4334 36.9112 16.2998C37.0927 15.9036 37.1115 15.8525 37.1492 15.6573C37.1687 15.5547 37.209 15.4409 37.2384 15.4045C37.2678 15.3681 37.2793 15.2901 37.2639 15.2313C37.2483 15.1725 37.2547 15.1361 37.2774 15.1502C37.3211 15.1773 37.3841 14.877 37.385 14.6367C37.3854 14.5584 37.409 14.4865 37.4371 14.4769C37.4656 14.467 37.5045 14.1954 37.5237 13.8733C37.5429 13.5509 37.5857 13.2527 37.6186 13.2106C37.6666 13.1492 37.6627 13.1431 37.5988 13.1809C37.5349 13.2186 37.5307 13.2125 37.5787 13.1511C37.6487 13.0613 37.6474 12.4162 37.5771 12.3072C37.5439 12.2555 37.548 12.2443 37.5905 12.2705C37.6244 12.2913 37.6519 12.283 37.6519 12.252C37.6519 12.221 37.6279 12.1957 37.5988 12.1957C37.5694 12.1957 37.5454 12.0794 37.5454 11.9372C37.5454 11.5027 37.4793 10.8661 37.4365 10.8923C37.4144 10.9061 37.3796 10.7495 37.3592 10.5447C37.3384 10.3399 37.3036 10.1833 37.2815 10.197C37.2595 10.2108 37.2528 10.1628 37.2665 10.0903C37.2802 10.0181 37.2678 9.95898 37.239 9.95898C37.2099 9.95898 37.1706 9.83915 37.1511 9.69248C37.1316 9.54614 37.0927 9.42631 37.0642 9.42631C37.0361 9.42631 37.0128 9.37838 37.0128 9.31958C37.0128 9.26079 36.9649 9.12339 36.9064 9.01411C36.8479 8.90483 36.8 8.7834 36.8 8.74442C36.8 8.70512 36.7639 8.63706 36.7201 8.59328C36.676 8.54918 36.6402 8.46578 36.6402 8.40763C36.6402 8.34915 36.622 8.31209 36.6003 8.32519C36.5782 8.33797 36.5217 8.26831 36.4744 8.16989C36.4274 8.0718 36.4127 8.00629 36.4421 8.02451C36.4715 8.0424 36.451 7.98201 36.3967 7.88966C36.3421 7.79764 36.2775 7.72222 36.2526 7.72222C36.228 7.72222 36.2242 7.69538 36.2443 7.66279C36.2644 7.6302 36.2497 7.58419 36.2114 7.56054C36.173 7.53689 36.1353 7.47554 36.128 7.4241C36.1203 7.37265 36.0762 7.30938 36.0299 7.2835C35.9836 7.25762 35.9586 7.21512 35.9746 7.18892C35.9909 7.16304 35.9554 7.11575 35.896 7.08379C35.8366 7.05216 35.788 6.98697 35.788 6.93904C35.788 6.89143 35.7707 6.8697 35.7493 6.89079C35.7282 6.9122 35.6842 6.85021 35.6516 6.75339C35.61 6.63037 35.5573 6.57541 35.4771 6.57094L35.3621 6.56519L35.3637 12.7488ZM92.3193 7.00646C92.2021 7.05248 92.0583 7.10424 91.9998 7.12182C91.941 7.13939 91.8771 7.17806 91.8576 7.20777C91.8378 7.23749 91.7844 7.26753 91.7391 7.27424C91.6349 7.28925 91.3815 7.48545 91.4182 7.5222C91.4332 7.53721 91.3844 7.56501 91.3099 7.58355C91.2351 7.6024 91.1741 7.64202 91.1741 7.67174C91.1741 7.70146 91.1051 7.79348 91.0204 7.87592C90.936 7.95868 90.8504 8.07755 90.8306 8.1405C90.8105 8.20345 90.7693 8.25457 90.7389 8.25457C90.7085 8.25457 90.6974 8.29068 90.7143 8.33446C90.7309 8.37855 90.7245 8.41434 90.6996 8.41434C90.6574 8.41434 90.581 8.58433 90.5676 8.70735C90.5644 8.73675 90.5379 8.77765 90.5085 8.79874C90.4254 8.85785 90.4382 10.5565 90.5219 10.5846C90.5584 10.5968 90.5884 10.6303 90.5884 10.6588C90.5884 10.6872 90.5622 10.6945 90.5302 10.6747C90.498 10.6549 90.5338 10.7434 90.6092 10.8712C90.6849 10.9991 90.7696 11.156 90.7977 11.2195C90.8642 11.37 91.4064 11.9292 91.4857 11.9292C91.5195 11.9292 91.547 11.9529 91.547 11.9816C91.547 12.0104 91.6068 12.0487 91.6799 12.0673C91.7528 12.0855 91.802 12.1174 91.7892 12.1382C91.7764 12.159 91.848 12.2133 91.948 12.2587C92.0484 12.304 92.1151 12.3165 92.0963 12.2858C92.0774 12.2555 92.1193 12.2705 92.189 12.3197C92.2589 12.3686 92.3963 12.4085 92.4941 12.4085C92.5916 12.4085 92.6587 12.4299 92.6427 12.4558C92.6264 12.4817 92.8756 12.5066 93.1987 12.5114C93.5217 12.5162 93.7838 12.4983 93.7838 12.4718C93.7838 12.445 93.8937 12.4082 94.0279 12.3897C94.1621 12.3712 94.3327 12.3085 94.4069 12.25C94.481 12.1916 94.5631 12.1567 94.589 12.1727C94.6145 12.1887 94.636 12.1782 94.636 12.1491C94.636 12.12 94.6871 12.0801 94.75 12.0599C94.9024 12.0117 95.4878 11.424 95.4878 11.3196C95.4878 11.2742 95.5118 11.2371 95.5412 11.2371C95.5706 11.2371 95.5946 11.2004 95.5946 11.1553C95.5946 11.1106 95.6304 11.0601 95.6744 11.0432C95.7182 11.0265 95.7543 10.9725 95.7543 10.9237C95.7543 10.8748 95.7962 10.7754 95.8473 10.7029C96.0681 10.391 95.9531 8.63769 95.6971 8.41434C95.6639 8.38526 95.5834 8.18491 95.5942 8.15807C95.6019 8.13954 95.0414 7.59473 94.8437 7.42825C94.6238 7.24324 94.335 7.08315 94.2212 7.08315C94.1611 7.08315 94.1023 7.05312 94.0899 7.01637C94.0538 6.90773 92.5919 6.89974 92.3193 7.00646ZM45.2041 7.17614C45.1951 7.19819 45.1996 12.4766 45.2143 18.906L45.2408 30.5956L47.3846 30.6096L49.528 30.6234V18.9034C49.528 10.0577 49.5431 7.19243 49.5894 7.22119C49.6277 7.24484 49.6367 7.23589 49.613 7.19787C49.5696 7.12757 45.2328 7.10648 45.2041 7.17614ZM82.8138 10.9732C82.8147 13.0834 82.8355 14.7974 82.8598 14.7827C82.8965 14.76 82.9911 15.7371 82.9822 16.0445C82.9806 16.0963 83.0017 16.1251 83.0291 16.1078C83.0569 16.0909 83.0793 16.1618 83.0793 16.2666C83.0793 16.3995 83.0553 16.4561 82.9994 16.4561C82.9553 16.4561 82.9195 16.4187 82.9195 16.373C82.9195 16.3273 82.8981 16.3034 82.8719 16.3193C82.8457 16.3356 82.8093 16.288 82.7904 16.2139C82.7719 16.1398 82.7332 16.0934 82.7048 16.111C82.6764 16.1286 82.6534 16.1132 82.6534 16.0774C82.6534 16.0413 82.545 15.9081 82.4128 15.7812C82.2805 15.6544 82.1846 15.5509 82.1996 15.5509C82.215 15.5509 82.1852 15.5068 82.1341 15.4531C82.0827 15.3994 82.0315 15.3626 82.0204 15.3713C82.0092 15.3802 81.9536 15.3281 81.8967 15.2559C81.8398 15.1837 81.7628 15.1246 81.7258 15.1246C81.6884 15.1246 81.5883 15.0632 81.5034 14.9885C81.3286 14.8345 81.0493 14.6712 80.9889 14.6878C80.9672 14.6939 80.949 14.6747 80.949 14.6453C80.949 14.6162 80.8997 14.5922 80.8394 14.5922C80.77 14.5922 80.7438 14.5696 80.7678 14.5306C80.794 14.4884 80.7697 14.4782 80.6911 14.4989C80.6278 14.5156 80.5895 14.5072 80.6061 14.4807C80.6224 14.4542 80.6013 14.4325 80.5588 14.4325C80.5166 14.4325 80.4166 14.3986 80.3367 14.3571C80.2568 14.3155 80.0504 14.2654 79.8779 14.2452C79.7056 14.2254 79.575 14.1922 79.5877 14.1714C79.6005 14.151 79.5344 14.1286 79.4411 14.1219C79.3478 14.1149 79.2235 14.0998 79.165 14.0887C79.1065 14.0772 78.795 14.0641 78.4726 14.0599C78.0926 14.0548 77.9242 14.0359 77.9932 14.0062C78.0802 13.9691 78.0834 13.9599 78.0099 13.9567C77.9603 13.9548 77.9073 13.9733 77.8916 13.9982C77.8763 14.0232 77.5814 14.0602 77.2363 14.0807C76.4371 14.1283 76.4755 14.1235 76.4755 14.1711C76.4755 14.1935 76.3441 14.228 76.1834 14.2481C76.0224 14.2682 75.9029 14.3037 75.9169 14.327C75.9313 14.35 75.8952 14.3567 75.8367 14.3414C75.7709 14.3242 75.73 14.3395 75.73 14.3817C75.73 14.4194 75.7162 14.4366 75.6996 14.42C75.6542 14.3746 75.2973 14.4846 75.2114 14.5705C75.1702 14.6117 75.0903 14.6453 75.0337 14.6453C74.9775 14.6453 74.9311 14.6664 74.9311 14.6919C74.9311 14.7175 74.8576 14.7533 74.7679 14.7712C74.6771 14.7894 74.6193 14.8277 74.6378 14.8578C74.656 14.8875 74.6231 14.9118 74.5646 14.9118C74.5062 14.9118 74.4432 14.9361 74.4247 14.9658C74.4061 14.9955 74.3688 15.006 74.3416 14.9894C74.3144 14.9725 74.2921 14.9846 74.2921 15.0163C74.2921 15.0482 74.2323 15.0968 74.1588 15.1246C74.0856 15.1524 74.0259 15.2013 74.0259 15.2329C74.0259 15.2649 74.0054 15.2783 73.9805 15.2629C73.9556 15.2476 73.8898 15.2773 73.8342 15.3291C73.7786 15.3805 73.691 15.439 73.6396 15.4585C73.5884 15.478 73.5466 15.5189 73.5466 15.5489C73.5466 15.5793 73.5207 15.6039 73.4891 15.6039C73.4574 15.6039 73.3395 15.6998 73.2271 15.817C73.1143 15.9343 72.9951 16.0302 72.9618 16.0302C72.9283 16.0302 72.912 16.048 72.9254 16.0701C72.9567 16.1222 72.8222 16.2465 72.78 16.2043C72.7621 16.1867 72.7478 16.2011 72.7478 16.2363C72.7478 16.2717 72.6519 16.3919 72.5346 16.5034C72.4174 16.6146 72.3215 16.7351 72.3215 16.7705C72.3215 16.806 72.2959 16.8194 72.2646 16.7999C72.2333 16.7807 72.1946 16.8153 72.1787 16.8769C72.1627 16.9383 72.1314 16.9888 72.1096 16.9888C72.0876 16.9888 71.971 17.1383 71.8505 17.3214C71.73 17.5045 71.6108 17.6793 71.5859 17.7093C71.5607 17.7397 71.5236 17.8304 71.5032 17.9113C71.483 17.9921 71.445 18.0448 71.4191 18.0289C71.3929 18.0129 71.3559 18.0717 71.3364 18.1599C71.3172 18.2481 71.2792 18.3199 71.2523 18.3199C71.2252 18.3199 71.2031 18.365 71.2031 18.42C71.2031 18.4749 71.1657 18.5513 71.1197 18.5893C71.0737 18.6277 71.0475 18.7024 71.0616 18.7558C71.0753 18.8092 71.0651 18.8392 71.0386 18.8229C71.012 18.8066 70.9903 18.8411 70.9903 18.8996C70.9903 18.9581 70.9647 19.022 70.9334 19.0411C70.9021 19.0606 70.8897 19.1111 70.9059 19.1536C70.9222 19.1961 70.9149 19.2182 70.8897 19.2025C70.8644 19.1869 70.8286 19.2696 70.8098 19.3862C70.7912 19.5029 70.7522 19.5981 70.7232 19.5981C70.6944 19.5981 70.6746 19.6163 70.6797 19.638C70.6922 19.6936 70.6101 20.0927 70.573 20.1563C70.5366 20.219 70.5283 20.2688 70.4797 20.7072C70.4589 20.8925 70.4247 21.0159 70.4036 20.9817C70.3468 20.8897 70.3238 21.4945 70.3311 22.8864C70.3349 23.646 70.3586 24.1502 70.3925 24.1911C70.4225 24.2278 70.4637 24.4138 70.4838 24.6043C70.5037 24.7947 70.542 24.9733 70.5688 25.0011C70.5957 25.0289 70.6174 25.0887 70.6177 25.134C70.618 25.1794 70.6513 25.2807 70.6922 25.3587C70.7331 25.437 70.7829 25.5987 70.8031 25.7182C70.8232 25.838 70.8631 25.9358 70.8916 25.9358C70.92 25.9358 70.9306 25.9562 70.9149 25.9815C70.8807 26.0367 71.0433 26.4681 71.098 26.4681C71.1194 26.4681 71.1517 26.5442 71.1705 26.6368C71.1891 26.7295 71.2638 26.8838 71.3367 26.9794C71.4099 27.0752 71.4696 27.1778 71.4696 27.2075C71.4696 27.2372 71.5115 27.2861 71.5626 27.3162C71.6182 27.3484 71.6281 27.3711 71.5872 27.3721C71.5428 27.373 71.5568 27.4149 71.6271 27.49C71.6869 27.5542 71.7358 27.6347 71.7358 27.6686C71.7358 27.7028 71.7959 27.7955 71.869 27.8744C71.9422 27.9536 72.002 28.0329 72.002 28.0508C72.002 28.069 72.0368 28.1214 72.0796 28.168C72.1221 28.2144 72.2119 28.3122 72.2793 28.3853C72.3464 28.4585 72.3956 28.5365 72.3883 28.5585C72.3809 28.5806 72.411 28.5985 72.4547 28.5985C72.4988 28.5985 72.5346 28.6256 72.5346 28.6585C72.5346 28.7109 73.0983 29.2909 73.1491 29.2909C73.1596 29.2909 73.2331 29.351 73.3124 29.4245C73.3916 29.498 73.5667 29.629 73.7012 29.7159C73.8358 29.8028 73.9812 29.9044 74.0246 29.9418C74.0678 29.9792 74.1224 30.0098 74.1464 30.0098C74.17 30.0098 74.2064 30.0341 74.2275 30.0642C74.293 30.1584 74.5755 30.3217 74.5343 30.2415C74.5138 30.2019 74.5349 30.2159 74.5809 30.2728C74.6273 30.3297 74.665 30.3559 74.665 30.3313C74.665 30.3064 74.7097 30.3268 74.765 30.3767C74.8199 30.4265 74.9334 30.4796 75.0174 30.4949C75.1011 30.5099 75.2072 30.5563 75.2529 30.5978C75.3334 30.6703 75.4932 30.7167 75.6932 30.7246C75.7463 30.7269 75.776 30.7505 75.7597 30.7771C75.7434 30.8036 75.8498 30.8416 75.9962 30.8617C76.1428 30.8819 76.2626 30.9183 76.2626 30.9426C76.2626 30.9665 76.4243 31.0033 76.6221 31.0237C76.8196 31.0445 77.0161 31.0883 77.0583 31.1212C77.12 31.1694 77.1257 31.1656 77.088 31.1014C77.0481 31.034 77.0541 31.0324 77.1264 31.0908C77.1903 31.1426 77.4443 31.1576 78.1278 31.1509C78.6314 31.1458 79.0154 31.1241 78.9809 31.103C78.9467 31.0819 79.1046 31.0487 79.3318 31.0295C79.559 31.0103 79.758 30.9736 79.7743 30.948C79.7906 30.9224 79.93 30.8841 80.0837 30.8633C80.2374 30.8422 80.3633 30.8045 80.3633 30.7793C80.3633 30.754 80.447 30.7179 80.5495 30.6984C80.6521 30.6793 80.7361 30.646 80.7361 30.6246C80.7361 30.6032 80.8291 30.5579 80.9429 30.524C81.0563 30.4898 81.1793 30.4262 81.2155 30.3824C81.2519 30.3383 81.3059 30.3025 81.3356 30.3025C81.365 30.3025 81.434 30.2511 81.4887 30.1878C81.5433 30.1249 81.588 30.0901 81.588 30.1102C81.588 30.1469 81.6647 30.092 81.8584 29.9165C81.9146 29.8654 81.976 29.8232 81.9945 29.8232C82.0526 29.8232 82.5879 29.2433 82.5578 29.2129C82.5419 29.1973 82.5569 29.1842 82.5911 29.1842C82.6252 29.1842 82.6534 29.1509 82.6534 29.11C82.6534 29.0691 82.6892 29.0222 82.7332 29.0052C82.777 28.9883 82.8131 28.9404 82.8131 28.8988C82.8131 28.8279 82.9202 28.7582 83.0291 28.7582C83.0553 28.7582 83.0835 29.1717 83.0914 29.6769L83.1058 30.5956L85.0499 30.6103C86.1187 30.6186 87.0476 30.6122 87.1134 30.5962L87.2333 30.5668V18.8517V7.1362H85.0224H82.8119L82.8138 10.9732ZM125.302 13.9992C125.344 14.026 125.139 14.0586 124.796 14.0803C124.066 14.1264 124.087 14.1238 124.114 14.1682C124.127 14.189 124.017 14.2219 123.871 14.2414C123.723 14.2609 123.618 14.2995 123.635 14.3273C123.652 14.3551 123.633 14.3654 123.593 14.35C123.553 14.3347 123.45 14.3587 123.364 14.4034C123.278 14.4485 123.188 14.4852 123.164 14.4852C123.14 14.4855 123.084 14.5216 123.04 14.5654C122.996 14.6095 122.914 14.6453 122.858 14.6453C122.801 14.6453 122.755 14.6693 122.755 14.6986C122.755 14.728 122.73 14.752 122.7 14.752C122.629 14.752 122.316 14.9703 122.259 15.0594C122.235 15.0965 122.195 15.1137 122.168 15.0978C122.143 15.0818 122.095 15.1169 122.063 15.1764C122.032 15.2358 121.971 15.2844 121.928 15.2844C121.885 15.2844 121.85 15.3125 121.85 15.3467C121.85 15.3809 121.836 15.3956 121.82 15.3793C121.804 15.363 121.635 15.5055 121.444 15.6956C121.254 15.886 121.111 16.0544 121.126 16.0698C121.141 16.0848 121.096 16.1426 121.026 16.1976C120.956 16.2526 120.884 16.3673 120.865 16.4523C120.847 16.5373 120.795 16.6207 120.751 16.6376C120.707 16.6545 120.686 16.6922 120.704 16.7213C120.723 16.752 120.702 16.7609 120.654 16.7427C120.585 16.7159 120.511 14.8664 120.565 14.5248C120.569 14.5028 119.643 14.4906 118.508 14.4983L116.444 14.5124V22.5538V30.5956L118.574 30.6083C119.746 30.6154 120.733 30.6029 120.769 30.5802C120.817 30.5492 120.837 29.4778 120.853 26.1205C120.863 23.6904 120.887 21.654 120.904 21.5952C120.922 21.5367 120.938 21.4214 120.94 21.3392C120.942 21.2568 120.965 21.2025 120.991 21.2181C121.016 21.2341 121.05 21.1482 121.067 21.0274C121.083 20.9066 121.12 20.7932 121.148 20.7753C121.177 20.7577 121.218 20.6532 121.238 20.5439C121.259 20.4343 121.295 20.3567 121.318 20.3714C121.342 20.3861 121.378 20.326 121.397 20.2378C121.416 20.1496 121.457 20.0774 121.487 20.0774C121.517 20.0774 121.529 20.0451 121.514 20.0055C121.499 19.9659 121.533 19.8933 121.59 19.8441C121.648 19.7952 121.678 19.7281 121.657 19.6949C121.635 19.6598 121.644 19.6499 121.678 19.6706C121.71 19.6901 121.751 19.6575 121.77 19.5981C121.789 19.5387 121.826 19.5035 121.852 19.5198C121.878 19.5361 121.914 19.4942 121.932 19.4271C121.95 19.36 122.056 19.2335 122.167 19.1456C122.278 19.0578 122.357 18.9641 122.341 18.9376C122.325 18.9111 122.337 18.9044 122.366 18.9223C122.395 18.9405 122.467 18.9114 122.525 18.8574C122.583 18.8034 122.683 18.7424 122.746 18.7222C122.811 18.7018 122.851 18.665 122.835 18.6401C122.82 18.6152 122.879 18.5791 122.968 18.5599C123.056 18.5404 123.128 18.5053 123.128 18.4816C123.128 18.458 123.284 18.4091 123.474 18.3733C123.664 18.3375 123.82 18.2909 123.82 18.2698C123.82 18.219 123.827 18.2187 124.745 18.21C125.325 18.2046 125.549 18.2206 125.579 18.2688C125.602 18.3062 125.679 18.3235 125.757 18.3084C125.832 18.2941 125.883 18.2998 125.87 18.3212C125.857 18.3426 125.947 18.3762 126.07 18.3957C126.193 18.4155 126.306 18.4522 126.321 18.4772C126.403 18.6094 126.722 18.5606 126.739 18.4133C126.749 18.3327 126.776 18.2669 126.799 18.2669C126.823 18.2669 126.859 18.1416 126.879 17.9886C126.899 17.8355 126.941 17.6802 126.971 17.6435C127.002 17.6064 127.039 17.4863 127.054 17.376C127.069 17.2658 127.114 17.1281 127.155 17.0702C127.195 17.0124 127.229 16.9118 127.229 16.8469C127.229 16.7817 127.251 16.7149 127.278 16.698C127.305 16.6814 127.356 16.4881 127.392 16.2688C127.427 16.0496 127.475 15.8704 127.497 15.8704C127.52 15.8704 127.555 15.7745 127.575 15.6573C127.594 15.54 127.629 15.4441 127.651 15.4441C127.705 15.4441 127.832 14.7165 127.789 14.6475C127.77 14.6172 127.723 14.5922 127.684 14.5922C127.645 14.5922 127.598 14.5545 127.581 14.5088C127.563 14.4632 127.526 14.4395 127.499 14.4564C127.471 14.4734 127.434 14.4625 127.415 14.4325C127.396 14.4021 127.359 14.3913 127.331 14.4079C127.304 14.4248 127.282 14.4149 127.282 14.3858C127.282 14.3309 127.167 14.2833 126.929 14.2401C126.852 14.2264 126.762 14.2098 126.729 14.2037C126.696 14.1976 126.654 14.1721 126.636 14.1468C126.618 14.1219 126.342 14.089 126.024 14.0743C125.705 14.0593 125.422 14.026 125.394 14.0001C125.366 13.9743 125.318 13.9535 125.287 13.9538C125.256 13.9545 125.263 13.9749 125.302 13.9992ZM104.621 14.0669C104.241 14.0855 103.85 14.1034 103.753 14.1069C103.65 14.1104 103.59 14.135 103.609 14.166C103.629 14.1973 103.569 14.2209 103.466 14.2232C103.307 14.227 103.176 14.2459 102.944 14.2992C102.9 14.3095 102.852 14.3222 102.837 14.328C102.822 14.3334 102.771 14.3341 102.722 14.3296C102.674 14.3248 102.618 14.3459 102.599 14.3766C102.58 14.4072 102.512 14.4331 102.448 14.4341C102.384 14.435 102.235 14.4823 102.118 14.5389C102.001 14.5954 101.865 14.6427 101.817 14.6437C101.768 14.6446 101.72 14.6635 101.71 14.6852C101.687 14.736 101.221 14.9648 101.14 14.9648C101.107 14.9648 101.08 14.9885 101.08 15.0172C101.08 15.046 101.014 15.0856 100.933 15.1051C100.853 15.1249 100.736 15.1792 100.673 15.2259C100.611 15.2729 100.506 15.347 100.44 15.3911C100.375 15.4349 100.29 15.5007 100.251 15.5374C100.213 15.5742 100.157 15.6039 100.127 15.6039C100.097 15.6039 100.046 15.6518 100.015 15.7106C99.9834 15.7691 99.9217 15.817 99.8779 15.817C99.7907 15.817 99.482 16.1091 99.482 16.1915C99.482 16.22 99.4584 16.243 99.4296 16.243C99.3261 16.243 98.5122 17.1111 98.4985 17.2364C98.4912 17.3051 98.5091 17.3613 98.5385 17.3613C98.5675 17.3613 98.626 17.4035 98.6682 17.4546C98.712 17.5083 98.727 17.5138 98.7033 17.4681C98.681 17.424 98.757 17.4668 98.8727 17.563C99.1967 17.8327 99.2079 17.8406 99.2641 17.8406C99.2932 17.8406 99.3363 17.8713 99.3597 17.9087C99.4022 17.9764 99.6948 18.1829 99.7524 18.1854C99.769 18.1864 99.8246 18.2289 99.8757 18.28C99.9272 18.3315 99.9997 18.3733 100.037 18.3733C100.074 18.3733 100.16 18.4212 100.228 18.4797C100.295 18.5385 100.372 18.5864 100.399 18.5864C100.425 18.5864 100.432 18.6104 100.414 18.6395C100.396 18.6689 100.407 18.6928 100.44 18.6928C100.503 18.6928 100.83 18.9092 100.857 18.9696C100.866 18.9897 100.912 18.9916 100.959 18.9737C101.012 18.9536 101.031 18.9625 101.009 18.9977C100.975 19.0523 101.059 19.1124 101.15 19.0987C101.174 19.0951 101.217 19.1341 101.246 19.1856C101.275 19.2367 101.334 19.2786 101.378 19.2786C101.423 19.2786 101.446 19.3 101.43 19.3262C101.413 19.3524 101.463 19.3894 101.539 19.4086C101.661 19.4393 101.73 19.3907 102.099 19.0149C102.33 18.7791 102.54 18.5864 102.564 18.5864C102.588 18.5864 102.651 18.5385 102.704 18.4797C102.757 18.4212 102.834 18.3733 102.874 18.3733C102.914 18.3733 102.961 18.3388 102.976 18.2966C102.993 18.2544 103.076 18.2046 103.161 18.1861C103.247 18.1672 103.316 18.1314 103.316 18.1065C103.316 18.0589 103.527 17.9717 103.596 17.9899C103.618 17.9956 103.636 17.9764 103.636 17.9474C103.636 17.918 103.666 17.894 103.703 17.8937C103.739 17.8934 103.836 17.8585 103.918 17.816C103.999 17.7735 104.052 17.7601 104.036 17.786C104.02 17.8122 104.073 17.8004 104.155 17.7601C104.235 17.7199 104.402 17.6809 104.525 17.6735C104.648 17.6665 104.736 17.6413 104.721 17.6176C104.707 17.594 104.984 17.5745 105.337 17.5745C105.69 17.5745 105.979 17.5949 105.979 17.6202C105.979 17.6454 106.128 17.6812 106.309 17.7004C106.491 17.7192 106.655 17.7608 106.675 17.7924C106.694 17.824 106.72 17.8454 106.731 17.8403C106.801 17.8081 107.149 17.9173 107.172 17.979C107.188 18.0202 107.237 18.0538 107.283 18.0538C107.327 18.0538 107.364 18.079 107.364 18.1103C107.364 18.1413 107.385 18.1535 107.411 18.1375C107.437 18.1212 107.488 18.1436 107.524 18.187C107.56 18.2302 107.606 18.2554 107.626 18.2429C107.646 18.2302 107.731 18.3017 107.814 18.4014C107.897 18.5011 107.986 18.5701 108.011 18.5548C108.036 18.5395 108.057 18.5583 108.058 18.5963C108.059 18.6347 108.143 18.7491 108.244 18.8501C108.346 18.951 108.429 19.0664 108.429 19.106C108.429 19.1459 108.452 19.1645 108.48 19.1472C108.508 19.13 108.546 19.2003 108.565 19.3035C108.585 19.4064 108.621 19.4783 108.645 19.4632C108.67 19.4479 108.681 19.484 108.669 19.5435C108.658 19.6029 108.667 19.6515 108.689 19.6515C108.74 19.6515 108.739 19.6473 108.782 20.3433C108.811 20.8158 108.805 20.8925 108.743 20.8417C108.702 20.8091 108.591 20.7654 108.496 20.7452C108.401 20.7248 108.323 20.6861 108.323 20.659C108.323 20.6321 108.305 20.6142 108.283 20.619C108.204 20.6366 107.816 20.5404 107.787 20.496C107.771 20.4711 107.61 20.4353 107.429 20.4164C107.248 20.3976 107.112 20.364 107.125 20.342C107.147 20.3068 106.23 20.2017 106.126 20.2276C106.104 20.2327 106.086 20.2148 106.086 20.1873C106.086 20.1576 105.578 20.1368 104.832 20.1359C104.143 20.1352 103.591 20.1538 103.605 20.1774C103.62 20.2007 103.531 20.2253 103.408 20.2321C103.284 20.2384 103.123 20.2512 103.05 20.2605C102.977 20.2694 102.85 20.28 102.768 20.2838C102.683 20.2876 102.632 20.3135 102.651 20.3439C102.67 20.3742 102.62 20.3988 102.534 20.4014C102.277 20.4091 102.066 20.4548 102.047 20.5069C102.038 20.5343 101.98 20.5567 101.92 20.5567C101.813 20.5567 101.522 20.6752 101.123 20.8813C101.014 20.9373 100.888 20.983 100.843 20.983C100.798 20.983 100.76 21.0069 100.76 21.036C100.76 21.0654 100.728 21.0894 100.689 21.0894C100.649 21.0894 100.574 21.1373 100.521 21.1958C100.467 21.2546 100.397 21.3025 100.364 21.3025C100.33 21.3025 100.216 21.3843 100.11 21.4843C100.004 21.5846 99.907 21.6562 99.8946 21.6441C99.8824 21.6316 99.7546 21.7575 99.6105 21.924C99.4667 22.0905 99.2772 22.3004 99.1893 22.3908C98.9401 22.6471 98.85 22.7708 98.9497 22.72C98.9957 22.6963 98.9903 22.7113 98.9363 22.7554C98.8851 22.7976 98.843 22.8506 98.843 22.8733C98.843 22.8963 98.8011 22.9494 98.75 22.9912C98.6985 23.0334 98.6867 23.0526 98.7231 23.0341C98.7599 23.0155 98.7899 23.0232 98.7899 23.051C98.7899 23.0788 98.7522 23.1162 98.7065 23.1338C98.6608 23.1513 98.6365 23.1868 98.6525 23.213C98.6688 23.2389 98.6343 23.321 98.5761 23.3948C98.518 23.4689 98.4704 23.5808 98.4704 23.6437C98.4704 23.7086 98.4464 23.7438 98.4157 23.7246C98.3857 23.706 98.3653 23.7108 98.3704 23.7348C98.3902 23.83 98.295 24.2282 98.2576 24.2052C98.2065 24.1735 98.1509 24.5825 98.1499 24.9979C98.1493 25.2261 98.1339 25.2993 98.0978 25.2433C98.063 25.1887 98.048 25.298 98.0502 25.5894C98.0524 25.8239 98.0726 26.0396 98.0949 26.0687C98.1176 26.0981 98.1502 26.3147 98.1675 26.5506C98.1847 26.7861 98.2359 27.0497 98.2809 27.1363C98.3263 27.2229 98.3637 27.3657 98.3643 27.4536C98.3653 27.5763 98.3774 27.5948 98.417 27.5334C98.4598 27.467 98.4688 27.4718 98.4698 27.56C98.4704 27.6184 98.5068 27.7351 98.5506 27.8191C98.5944 27.9028 98.6302 28.0054 98.6302 28.0469C98.6302 28.0885 98.6659 28.1364 98.71 28.153C98.7538 28.17 98.7899 28.2067 98.7899 28.2345C98.7899 28.2623 98.7599 28.27 98.7231 28.2514C98.6867 28.2329 98.695 28.2495 98.742 28.2885C98.789 28.3275 98.8446 28.4131 98.8657 28.479C98.8864 28.5448 98.9257 28.5985 98.9532 28.5985C98.9804 28.5985 99.0027 28.6243 99.0027 28.6563C99.0027 28.7157 99.1823 28.925 99.5725 29.3193C99.6952 29.4436 99.7811 29.5599 99.7632 29.5778C99.7453 29.5957 99.7575 29.6104 99.7904 29.6104C99.8233 29.6104 99.9086 29.6689 99.9799 29.7402C100.051 29.8117 100.12 29.8593 100.134 29.8466C100.147 29.8335 100.201 29.8708 100.254 29.9296C100.307 29.9884 100.384 30.0364 100.424 30.0364C100.464 30.0364 100.511 30.0722 100.528 30.1163C100.545 30.1603 100.592 30.1961 100.633 30.1961C100.674 30.1961 100.707 30.2159 100.707 30.2399C100.707 30.2866 101.143 30.5189 101.264 30.5364C101.303 30.5422 101.369 30.5748 101.409 30.6083C101.45 30.6422 101.557 30.6831 101.648 30.6988C101.738 30.7147 101.88 30.7636 101.965 30.8077C102.049 30.8518 102.156 30.8879 102.201 30.8883C102.246 30.8883 102.316 30.9183 102.355 30.955C102.413 31.009 102.419 31.0068 102.382 30.9416C102.346 30.8771 102.352 30.8739 102.415 30.9244C102.457 30.9585 102.642 31.0036 102.824 31.0244C103.007 31.0451 103.157 31.0819 103.157 31.1062C103.157 31.1627 105.026 31.1627 105.099 31.1059C105.144 31.0704 105.529 31.003 105.804 30.9822C105.839 30.9793 105.857 30.9595 105.844 30.9378C105.831 30.9161 105.942 30.8815 106.093 30.8608C106.248 30.8394 106.338 30.8061 106.302 30.7834C106.263 30.7598 106.326 30.7294 106.454 30.709C106.574 30.6898 106.672 30.6553 106.672 30.6323C106.672 30.6093 106.753 30.5607 106.853 30.5246C106.953 30.4888 107.048 30.4224 107.066 30.3776C107.083 30.3326 107.121 30.3108 107.151 30.3294C107.181 30.3476 107.219 30.3252 107.237 30.2795C107.254 30.2335 107.296 30.1955 107.33 30.1949C107.363 30.1942 107.483 30.1105 107.596 30.0086C107.709 29.9066 107.824 29.8232 107.852 29.8232C107.88 29.8232 107.888 29.7993 107.87 29.7696C107.852 29.7402 107.88 29.7002 107.933 29.681C108.025 29.6475 108.616 29.0778 108.559 29.0778C108.544 29.0778 108.562 29.0448 108.6 29.0046C108.766 28.8272 108.802 28.9662 108.802 29.7747C108.802 30.7387 108.501 30.6291 111.092 30.6103L113.142 30.5956L113.154 25.2433C113.162 21.8032 113.148 19.9195 113.115 19.971C113.079 20.0275 113.062 19.9531 113.057 19.7179C113.052 19.5348 113.043 19.3613 113.036 19.3319C113.028 19.3025 113.019 19.1932 113.016 19.0891C113.012 18.9849 112.988 18.913 112.961 18.9293C112.935 18.9456 112.896 18.8152 112.876 18.6395C112.856 18.4641 112.817 18.3337 112.791 18.35C112.765 18.3663 112.743 18.3168 112.743 18.2397C112.743 18.1631 112.714 18.0477 112.679 17.9838C112.643 17.9196 112.612 17.8435 112.609 17.8141C112.603 17.756 112.515 17.5697 112.395 17.3613C112.353 17.2882 112.318 17.1888 112.317 17.1409C112.317 17.0926 112.279 17.0389 112.233 17.0214C112.188 17.0038 112.162 16.9696 112.178 16.9453C112.193 16.921 112.164 16.8625 112.114 16.8156C111.968 16.6769 111.891 16.5711 111.891 16.5091C111.891 16.4408 111.043 15.6039 110.973 15.6039C110.947 15.6039 110.941 15.5799 110.959 15.5509C110.977 15.5215 110.954 15.4975 110.907 15.4975C110.86 15.4975 110.809 15.4617 110.792 15.4179C110.775 15.3741 110.743 15.3499 110.72 15.3639C110.697 15.378 110.612 15.3237 110.53 15.2438C110.448 15.1636 110.4 15.13 110.423 15.169C110.463 15.2371 110.086 15.0233 109.92 14.8843C109.877 14.8472 109.762 14.8006 109.667 14.7801C109.572 14.76 109.494 14.7226 109.494 14.6967C109.494 14.6712 109.41 14.6344 109.308 14.6153C109.205 14.5961 109.121 14.5612 109.121 14.5376C109.121 14.5143 109.02 14.4782 108.895 14.4577C108.771 14.4373 108.639 14.3964 108.603 14.3667C108.566 14.3373 108.488 14.3258 108.429 14.3411C108.371 14.3564 108.323 14.3513 108.323 14.3299C108.323 14.3082 108.293 14.2874 108.256 14.2839C107.774 14.2382 107.531 14.1979 107.549 14.1676C107.579 14.1203 107.612 14.1228 106.485 14.0861C105.958 14.0688 105.479 14.0497 105.42 14.0439C105.361 14.0378 105.002 14.0481 104.621 14.0669ZM59.1636 14.081C59.1493 14.0954 59.0365 14.1133 58.9128 14.1203C58.7891 14.1276 58.6882 14.15 58.6882 14.1705C58.6882 14.1906 58.5287 14.2241 58.3338 14.2449C58.0871 14.2714 58.0021 14.298 58.0542 14.3325C58.1053 14.3667 58.0849 14.3721 57.9884 14.3497C57.9091 14.3315 57.8321 14.3424 57.812 14.3746C57.7925 14.4066 57.7235 14.4325 57.659 14.4325C57.5944 14.4325 57.4522 14.4804 57.3426 14.5389C57.2333 14.5974 57.1081 14.6453 57.064 14.6453C57.0199 14.6453 56.9838 14.6673 56.9838 14.6945C56.9838 14.7213 56.9138 14.7587 56.8278 14.7776C56.7419 14.7964 56.6431 14.8463 56.6083 14.8885C56.5735 14.9306 56.4997 14.9648 56.4447 14.9648C56.3898 14.9648 56.3447 14.9888 56.3447 15.0182C56.3447 15.0476 56.308 15.0715 56.2632 15.0715C56.2185 15.0715 56.1686 15.1057 56.1523 15.1479C56.136 15.1901 56.0891 15.2115 56.0475 15.1955C56.006 15.1796 55.9721 15.193 55.9721 15.2256C55.9721 15.2578 55.9354 15.2844 55.8903 15.2844C55.8456 15.2844 55.7954 15.3195 55.7791 15.3623C55.7625 15.4051 55.7031 15.4547 55.6465 15.4729C55.5903 15.4908 55.4673 15.5755 55.3733 15.6611C55.2794 15.7467 55.172 15.817 55.1346 15.817C55.0972 15.817 55.0666 15.8544 55.0666 15.9001C55.0666 15.9458 55.0448 15.9698 55.0183 15.9531C54.9918 15.9369 54.9077 15.9969 54.832 16.0874C54.756 16.1775 54.694 16.2343 54.694 16.2132C54.694 16.1925 54.6403 16.2446 54.5751 16.3292C54.5096 16.4136 54.3658 16.5679 54.2556 16.6721C54.145 16.7766 54.0549 16.8868 54.0549 16.9172C54.0549 16.9479 53.9833 17.0274 53.8961 17.0942C53.8092 17.161 53.7504 17.2364 53.7664 17.262C53.782 17.2875 53.7696 17.3083 53.7386 17.3083C53.7073 17.3083 53.682 17.3441 53.682 17.3882C53.682 17.432 53.658 17.4681 53.6286 17.4681C53.5996 17.4681 53.5756 17.5003 53.5756 17.5396C53.5756 17.5789 53.5277 17.6547 53.4689 17.7077C53.4104 17.7608 53.3625 17.8378 53.3625 17.8787C53.3625 17.9199 53.3385 17.9387 53.3091 17.9205C53.28 17.9026 53.2561 17.9378 53.2561 17.9991C53.2561 18.0602 53.22 18.1241 53.1762 18.141C53.1321 18.1579 53.0963 18.2142 53.0963 18.2659C53.0963 18.3177 53.0605 18.3899 53.0164 18.4264C52.9726 18.4628 52.9091 18.5855 52.8749 18.6992C52.841 18.813 52.7927 18.906 52.7681 18.906C52.7435 18.906 52.7234 18.9603 52.7234 19.0271C52.7234 19.0939 52.6883 19.1987 52.6451 19.26C52.6023 19.3214 52.5512 19.4703 52.532 19.5904C52.5128 19.7109 52.478 19.7975 52.4544 19.7828C52.431 19.7684 52.3952 19.8882 52.3751 20.0496C52.355 20.2106 52.3205 20.3314 52.2987 20.318C52.2467 20.2857 52.1271 20.9775 52.1182 21.3638C52.114 21.5297 52.093 21.654 52.0709 21.6402C52.0492 21.6268 52.031 22.0617 52.031 22.6072C52.031 23.1526 52.0495 23.5872 52.0722 23.5731C52.0949 23.5594 52.1061 23.6776 52.0974 23.8364C52.0888 23.9952 52.1022 24.125 52.1275 24.125C52.1524 24.125 52.1741 24.155 52.1754 24.1914C52.177 24.2282 52.1923 24.3541 52.2099 24.471C52.2272 24.5883 52.2482 24.7321 52.2562 24.7905C52.2642 24.8493 52.2872 24.9097 52.3077 24.9251C52.3278 24.9404 52.3604 25.0721 52.3799 25.2178C52.3997 25.3638 52.4349 25.4951 52.4582 25.5098C52.4815 25.5245 52.5173 25.6261 52.5381 25.7357C52.5585 25.845 52.5946 25.923 52.618 25.9083C52.6416 25.8939 52.6771 25.9779 52.6969 26.0955C52.7167 26.2128 52.7522 26.2972 52.7755 26.2825C52.7991 26.2681 52.8336 26.339 52.8528 26.4403C52.8717 26.5416 52.9238 26.6608 52.9682 26.7052C53.0123 26.7496 53.0589 26.8385 53.0711 26.9027C53.0835 26.9669 53.1152 27.0334 53.141 27.05C53.1669 27.0669 53.2053 27.135 53.226 27.2011C53.2468 27.2676 53.2832 27.3098 53.3075 27.2948C53.3315 27.2801 53.3669 27.3312 53.3864 27.4085C53.4059 27.4862 53.4804 27.5954 53.552 27.6517C53.6235 27.7079 53.682 27.7859 53.682 27.8245C53.682 27.8632 53.7517 27.9693 53.8367 28.0604C53.9213 28.1511 53.9824 28.2256 53.9718 28.2256C53.9613 28.2256 54.0658 28.3412 54.2035 28.4821C54.3415 28.6234 54.4706 28.7307 54.4904 28.7212C54.5102 28.7113 54.54 28.7458 54.5563 28.7975C54.5726 28.8493 54.6617 28.9515 54.754 29.0247C54.8467 29.0979 54.9669 29.1995 55.0212 29.2509C55.0755 29.3021 55.133 29.3439 55.1487 29.3439C55.1816 29.3439 55.2295 29.3813 55.4903 29.6082C55.5916 29.6964 55.7523 29.8053 55.8475 29.8504C55.9427 29.8958 56.0351 29.9562 56.0526 29.9846C56.0705 30.013 56.1328 30.0364 56.1913 30.0364C56.2498 30.0364 56.2856 30.0562 56.2706 30.0805C56.244 30.1233 56.639 30.3259 56.684 30.2926C56.6962 30.2834 56.7559 30.3208 56.8167 30.3757C56.877 30.4304 56.9636 30.4614 57.0084 30.4438C57.0534 30.4265 57.0905 30.4332 57.0905 30.4588C57.0905 30.5138 57.4094 30.6339 57.4107 30.5796C57.4113 30.5591 57.4318 30.5741 57.4564 30.6128C57.481 30.6518 57.5998 30.6968 57.7206 30.7128C57.8414 30.7291 57.9299 30.7592 57.9171 30.7799C57.9044 30.8007 57.9229 30.8208 57.958 30.825C58.5102 30.8911 58.5843 30.9074 58.5198 30.948C58.4693 30.98 58.4875 30.994 58.5814 30.9959C58.9048 31.0026 59.3579 31.064 59.4043 31.1075C59.4726 31.1714 61.6474 31.1682 61.7643 31.1039C61.8152 31.0761 62.0427 31.0381 62.2695 31.0196C62.4964 31.001 62.6824 30.9669 62.6824 30.9432C62.6824 30.9199 62.8137 30.8844 62.9744 30.8643C63.1348 30.8442 63.2789 30.8074 63.2943 30.7828C63.3093 30.7582 63.4237 30.7211 63.548 30.7007C63.6723 30.6802 63.7979 30.646 63.8273 30.625C63.8567 30.6039 63.9644 30.5556 64.0669 30.5176C64.4548 30.3735 64.6526 30.2808 64.6526 30.2434C64.6526 30.222 64.7226 30.1891 64.8079 30.1706C64.8936 30.1517 64.9747 30.107 64.9885 30.0712C65.0022 30.0354 65.1239 29.9491 65.2591 29.8798C65.3943 29.8101 65.5048 29.7331 65.5048 29.7085C65.5048 29.6839 65.5416 29.6635 65.5863 29.6635C65.6314 29.6635 65.6819 29.6277 65.6985 29.5836C65.7154 29.5398 65.7614 29.5037 65.8007 29.5037C65.84 29.5037 65.8915 29.4721 65.9148 29.4334C65.9384 29.3944 66.0401 29.3046 66.141 29.2337C66.3976 29.0532 66.783 28.6672 66.783 28.5911C66.783 28.556 66.7977 28.5422 66.8156 28.5601C66.8482 28.5924 67.4233 27.9517 67.4358 27.8693C67.4396 27.8456 67.5 27.7664 67.5703 27.6932C67.6406 27.62 67.7221 27.4941 67.7515 27.4136C67.7812 27.3331 67.8272 27.2807 67.8541 27.2973C67.8806 27.3139 67.9173 27.2542 67.9352 27.165C67.9531 27.0755 67.9886 27.0155 68.0145 27.0315C68.04 27.0474 68.0611 27.0529 68.0611 27.0436C68.0611 27.0343 68.0835 26.9484 68.111 26.8528L68.1608 26.679L67.8049 26.5081C67.609 26.4138 67.4364 26.3205 67.4214 26.3004C67.4067 26.2802 67.3287 26.2473 67.2485 26.2269C67.168 26.2067 67.1025 26.1709 67.1025 26.1473C67.1025 26.1233 67.0306 26.0882 66.9427 26.0687C66.8549 26.0495 66.783 26.0172 66.783 25.9971C66.783 25.9581 66.3542 25.7517 66.1573 25.6961C66.0912 25.6776 66.0375 25.6418 66.0375 25.6169C66.0375 25.5916 65.9656 25.5555 65.8777 25.5363C65.7899 25.5169 65.718 25.4791 65.718 25.452C65.718 25.4251 65.6905 25.4031 65.6573 25.4031C65.5758 25.4031 65.1233 25.1804 65.0351 25.097C64.9965 25.0602 64.9185 25.0302 64.8619 25.0302C64.8054 25.0302 64.7594 25.0037 64.7594 24.9714C64.7594 24.9388 64.722 24.9267 64.6766 24.9442C64.6293 24.9625 64.6079 24.9535 64.6264 24.9232C64.6788 24.8385 64.5124 24.8628 64.4398 24.9503C64.4034 24.9944 64.39 25.0302 64.4104 25.0302C64.4306 25.0302 64.4098 25.0679 64.3638 25.1139C64.3178 25.1599 64.2801 25.2293 64.2801 25.2679C64.2801 25.3069 64.2423 25.3529 64.1967 25.3705C64.151 25.3881 64.127 25.4242 64.1436 25.451C64.1602 25.4779 64.0998 25.5619 64.0097 25.638C63.9196 25.7137 63.8656 25.777 63.8899 25.7779C63.9139 25.7792 63.8679 25.8159 63.7873 25.8597C63.7068 25.9032 63.641 25.9741 63.641 26.0172C63.641 26.0604 63.6109 26.0965 63.5742 26.0978C63.5378 26.099 63.4489 26.1709 63.377 26.2575C63.3051 26.3441 63.2154 26.4151 63.1773 26.4151C63.1393 26.4151 63.1083 26.4394 63.1083 26.4694C63.1083 26.4994 63.0425 26.5528 62.962 26.5886C62.8814 26.624 62.7862 26.6896 62.7504 26.734C62.715 26.7781 62.6849 26.7918 62.684 26.7643C62.683 26.7368 62.6447 26.7608 62.5983 26.8174C62.5523 26.8742 62.5328 26.8848 62.5555 26.841C62.5913 26.7707 62.5846 26.7704 62.5009 26.8385C62.4485 26.881 62.3644 26.9222 62.314 26.9298C62.2635 26.9375 62.1519 26.9806 62.066 27.0254C61.9804 27.0701 61.849 27.1069 61.7743 27.1069C61.6995 27.1072 61.61 27.1356 61.5755 27.1705C61.4934 27.2526 59.7072 27.2577 59.6554 27.1759C59.6359 27.1452 59.5183 27.1033 59.394 27.0826C59.2697 27.0618 59.1544 27.0228 59.1378 26.996C59.1215 26.9695 59.0547 26.9474 58.9898 26.9474C58.9246 26.9474 58.8182 26.9103 58.753 26.8647C58.6879 26.819 58.5824 26.7717 58.5188 26.7592C58.4552 26.7471 58.384 26.7065 58.361 26.6691C58.338 26.632 58.3003 26.5982 58.2773 26.5943C58.1271 26.5684 58.0015 26.5023 58.0264 26.4617C58.0424 26.4355 58.0124 26.3981 57.9593 26.3786C57.906 26.3592 57.8043 26.2812 57.7331 26.2058C57.6618 26.1304 57.5778 26.0687 57.5465 26.0687C57.5155 26.0687 57.4896 26.0447 57.489 26.0156C57.4883 25.9652 57.3349 25.7674 57.1304 25.5536C57.079 25.5002 57.0371 25.4341 57.0371 25.4069C57.0371 25.3798 57.0071 25.3248 56.9707 25.2849C56.8665 25.1718 56.771 24.9864 56.771 24.8979C56.771 24.8535 56.7489 24.8174 56.7224 24.8174C56.6956 24.8174 56.6575 24.7215 56.6377 24.6046C56.6179 24.4876 56.5821 24.3796 56.5578 24.3646C56.5083 24.3339 56.4243 23.924 56.445 23.8134C56.4524 23.7738 56.4367 23.7549 56.4105 23.7712C56.384 23.7875 56.3626 23.7658 56.3626 23.7233C56.3626 23.6559 57.1384 23.6457 62.305 23.6447C65.6566 23.6444 68.28 23.6236 68.3219 23.5968C68.3736 23.5642 68.3867 23.4916 68.3653 23.3581C68.3481 23.2523 68.3564 23.1663 68.3838 23.1663C68.443 23.1663 68.4532 21.6588 68.3944 21.6003C68.373 21.5786 68.3631 21.407 68.3727 21.2188C68.3826 21.0303 68.3695 20.8762 68.3439 20.8762C68.3183 20.8762 68.2931 20.8104 68.2877 20.7299C68.2611 20.3263 68.2081 20.0244 68.1637 20.0244C68.1365 20.0244 68.1193 20.0061 68.125 19.9844C68.1471 19.9007 68.0528 19.4396 68.0078 19.4118C67.9819 19.3958 67.9448 19.2757 67.925 19.1447C67.9055 19.014 67.8681 18.92 67.8422 18.9363C67.816 18.9523 67.7949 18.9095 67.7949 18.8411C67.7949 18.7724 67.7624 18.6692 67.7231 18.6114C67.6834 18.5538 67.6349 18.4404 67.6154 18.3599C67.5959 18.2794 67.5569 18.2135 67.5291 18.2135C67.5013 18.2135 67.4923 18.1774 67.5093 18.1337C67.5262 18.0896 67.5134 18.0538 67.4808 18.0538C67.4486 18.0538 67.422 18.0058 67.422 17.9474C67.422 17.8886 67.3968 17.8406 67.3655 17.8406C67.3345 17.8406 67.324 17.8167 67.3422 17.7876C67.3604 17.7582 67.3498 17.7342 67.3188 17.7342C67.2875 17.7342 67.2623 17.6981 67.2623 17.6544C67.2623 17.6103 67.237 17.5745 67.2057 17.5745C67.1747 17.5745 67.1642 17.5505 67.1824 17.5211C67.2006 17.492 67.1901 17.4681 67.1591 17.4681C67.1278 17.4681 67.1025 17.4316 67.1025 17.3875C67.1025 17.3434 67.0559 17.2671 66.9987 17.2182C66.9418 17.1693 66.9063 17.1108 66.9204 17.0885C66.9344 17.0658 66.8999 17.0226 66.844 16.9926C66.7878 16.9629 66.7264 16.8766 66.7076 16.8015C66.6887 16.7264 66.6516 16.6782 66.6254 16.6945C66.5992 16.7108 66.5631 16.6779 66.5452 16.6216C66.5273 16.5654 66.4775 16.5056 66.4347 16.4893C66.3919 16.473 66.357 16.435 66.357 16.405C66.357 16.327 66.1842 16.1366 66.1132 16.1366C66.0365 16.1366 65.7685 15.8908 65.8052 15.8541C65.8202 15.8391 65.7822 15.811 65.7212 15.7915C65.6598 15.772 65.6237 15.7339 65.6403 15.7068C65.6573 15.6796 65.6336 15.6573 65.5879 15.6573C65.5422 15.6573 65.5048 15.6327 65.5048 15.6026C65.5048 15.5726 65.4451 15.5253 65.3716 15.4975C65.2984 15.4697 65.2387 15.4224 65.2387 15.3924C65.2387 15.3623 65.2064 15.3377 65.1671 15.3377C65.1275 15.3377 65.0271 15.2792 64.944 15.2077C64.8606 15.1361 64.7728 15.0898 64.7488 15.1045C64.7248 15.1192 64.6913 15.0955 64.6747 15.0514C64.6577 15.0073 64.574 14.9562 64.4884 14.9373C64.4031 14.9185 64.3331 14.8811 64.3331 14.8543C64.3331 14.8271 64.3152 14.8092 64.2932 14.814C64.2046 14.8332 63.9631 14.7373 63.9902 14.6935C64.0062 14.6677 63.9819 14.6609 63.9365 14.6782C63.8909 14.6958 63.8538 14.682 63.8538 14.6478C63.8538 14.6137 63.8317 14.5996 63.8049 14.6162C63.7781 14.6328 63.7205 14.6108 63.6771 14.5673C63.6336 14.5242 63.5001 14.4727 63.3799 14.4536C63.2598 14.4344 63.1617 14.4005 63.1617 14.3782C63.1617 14.3315 62.9517 14.2877 62.4958 14.2392C62.32 14.2206 62.1593 14.1784 62.1382 14.1459C62.1005 14.0864 59.2208 14.0238 59.1636 14.081ZM91.0271 14.5657C90.9738 14.6264 90.9603 16.5114 90.9619 23.8131C90.9626 28.8573 90.945 32.9981 90.9223 33.0148C90.8824 33.0445 90.8674 33.0895 90.8236 33.3113C90.8121 33.3698 90.7782 33.426 90.7485 33.4359C90.7185 33.4458 90.7076 33.4755 90.7239 33.5017C90.7632 33.5656 90.4488 33.8698 90.2155 33.9938C90.0104 34.1028 89.0652 34.1462 88.999 34.0497C88.9645 33.9993 88.5814 33.8708 88.4654 33.8708C88.4322 33.8708 88.405 33.9168 88.405 33.9727C88.405 34.029 88.3836 34.083 88.3574 34.0926C88.3312 34.1025 88.2938 34.2296 88.2743 34.3757C88.2548 34.5214 88.2146 34.6556 88.1845 34.6741C88.1548 34.6926 88.136 34.7409 88.143 34.7818C88.1497 34.8227 88.1398 34.892 88.1209 34.9358C88.082 35.0266 88.042 35.2352 88.0359 35.3784C88.034 35.4314 88.0123 35.4624 87.9877 35.4474C87.9634 35.4324 87.9401 35.4487 87.9366 35.4841C87.8992 35.8312 87.8503 36.0542 87.8123 36.0542C87.7867 36.0542 87.7656 36.1082 87.7656 36.174C87.7653 36.2402 87.7302 36.3613 87.687 36.4437C87.6439 36.5261 87.5931 36.7121 87.5739 36.8565C87.5547 37.001 87.5215 37.1195 87.4998 37.1195C87.4502 37.1195 87.3563 37.594 87.3815 37.7167C87.3966 37.7912 87.741 37.9171 87.8062 37.8723C87.8139 37.8672 87.8858 37.8966 87.966 37.9378C88.1184 38.0158 88.4481 38.0708 88.7942 38.0752C88.9057 38.0768 88.9834 38.1002 88.9667 38.1273C88.9485 38.1567 89.37 38.1781 90.0151 38.1807C90.6306 38.1833 91.0642 38.1657 91.0242 38.1395C90.9798 38.1107 91.0977 38.0807 91.3438 38.058C91.5582 38.0382 91.7413 37.9986 91.7512 37.9701C91.7608 37.9417 91.7924 37.9184 91.8208 37.9184C91.8493 37.9184 91.8547 37.9481 91.833 37.9848C91.801 38.0375 91.8097 38.0379 91.8733 37.9864C91.9173 37.9506 92.0781 37.8947 92.2302 37.8621C92.382 37.8295 92.4935 37.7819 92.4778 37.7567C92.4622 37.7314 92.5337 37.6947 92.6369 37.6755C92.7398 37.656 92.8111 37.619 92.7948 37.5928C92.7788 37.5669 92.8133 37.5455 92.8715 37.5455C92.9296 37.5455 93.0102 37.5125 93.0501 37.4726C93.0904 37.4327 93.1738 37.3838 93.2354 37.364C93.2974 37.3445 93.3613 37.2933 93.3776 37.2505C93.3942 37.2077 93.4457 37.1726 93.4923 37.1726C93.539 37.1726 93.5623 37.1486 93.5441 37.1195C93.5259 37.0901 93.5425 37.0658 93.5808 37.0652C93.6658 37.0642 94.1033 36.6198 94.1033 36.5348C94.1033 36.5015 94.1273 36.4888 94.1567 36.507C94.1857 36.5252 94.2097 36.5035 94.2097 36.4587C94.2097 36.414 94.2774 36.2989 94.3599 36.2024C94.4423 36.1063 94.5414 35.9497 94.5794 35.8545C94.6174 35.7593 94.6698 35.6816 94.6957 35.6816C94.7213 35.6816 94.7424 35.6366 94.7424 35.5816C94.7424 35.5266 94.7759 35.4538 94.8168 35.4199C94.8574 35.386 94.9066 35.2752 94.9255 35.1735C94.9446 35.0723 94.9807 34.9892 95.006 34.9892C95.0312 34.9892 95.0683 34.8693 95.0884 34.723C95.1086 34.5763 95.1447 34.4565 95.1686 34.4565C95.1926 34.4565 95.229 34.2533 95.2498 34.0047C95.2712 33.7465 95.3089 33.566 95.3373 33.5835C95.3667 33.6017 95.385 33.434 95.3818 33.1701C95.3789 32.9256 95.3834 28.648 95.3923 23.6642C95.4019 18.1579 95.3888 14.6143 95.3591 14.6325C95.3322 14.6491 95.3255 14.6229 95.344 14.5744C95.3923 14.4491 91.1374 14.4408 91.0271 14.5657ZM60.7128 17.6409C60.7131 17.6854 60.7307 17.6809 60.7652 17.6278C60.8019 17.571 60.8169 17.5678 60.8176 17.6166C60.8179 17.6547 60.8482 17.6802 60.885 17.6735C61.0195 17.6489 61.617 17.7464 61.617 17.7927C61.617 17.8192 61.6803 17.8406 61.7576 17.8406C61.8966 17.8406 62.3587 18.0384 62.422 18.1247C62.4398 18.1493 62.476 18.171 62.5018 18.1733C62.636 18.1845 62.7309 18.2311 62.7051 18.273C62.6891 18.2989 62.6955 18.3199 62.7191 18.3203C62.7428 18.3203 62.8278 18.374 62.9076 18.4401C62.9875 18.5059 63.1134 18.6027 63.1872 18.6555C63.2611 18.7079 63.3214 18.7858 63.3214 18.8283C63.3214 18.8711 63.3512 18.8999 63.3879 18.8926C63.4247 18.8852 63.4496 18.906 63.4435 18.9389C63.4374 18.9715 63.4914 19.0536 63.5633 19.121C63.6352 19.1888 63.694 19.2757 63.694 19.3147C63.694 19.3533 63.718 19.3853 63.7474 19.3853C63.7768 19.3853 63.8008 19.4182 63.8008 19.4585C63.8008 19.499 63.834 19.5594 63.8749 19.5933C63.9388 19.6463 63.9947 19.8234 64.0235 20.0643C64.0279 20.1007 64.0487 20.1308 64.0698 20.1308C64.0909 20.1308 64.1187 20.2027 64.1315 20.2905L64.1551 20.4503H60.4185C58.3635 20.4503 56.6687 20.4369 56.6524 20.4206C56.6058 20.3739 56.6709 20.1819 56.7227 20.2138C56.748 20.2295 56.7844 20.1451 56.8032 20.0269C56.8221 19.9084 56.8569 19.8112 56.8809 19.8112C56.9045 19.8112 56.9541 19.7272 56.9911 19.6249C57.0282 19.5224 57.0777 19.4383 57.101 19.4383C57.1244 19.4383 57.1435 19.4016 57.1435 19.3568C57.1435 19.3121 57.1774 19.2623 57.2186 19.2466C57.2602 19.2306 57.3091 19.1568 57.3279 19.082C57.3464 19.0076 57.3752 18.96 57.3915 18.9763C57.4199 19.0047 57.4963 18.9315 57.7826 18.6008C57.9024 18.4628 58.014 18.3899 58.4079 18.1934C58.4738 18.1605 58.5278 18.1177 58.5278 18.0979C58.5281 18.0784 58.6019 18.0461 58.692 18.0263C58.7818 18.0065 58.8406 17.9755 58.8224 17.9576C58.7716 17.9065 59.318 17.739 59.6618 17.7C59.8308 17.6812 59.9823 17.6451 59.9976 17.6198C60.0443 17.5444 60.7118 17.5639 60.7128 17.6409ZM79.2666 18.0991C79.2819 18.1241 79.4673 18.1589 79.6778 18.1768C79.8887 18.1944 80.0789 18.2372 80.1003 18.2723C80.122 18.3072 80.177 18.3212 80.223 18.3037C80.269 18.2858 80.3192 18.2918 80.3345 18.3164C80.3498 18.3414 80.4252 18.3775 80.5022 18.3966C80.5793 18.4161 80.677 18.4666 80.7195 18.5091C80.762 18.5516 80.8445 18.5864 80.9026 18.5864C80.9611 18.5864 80.9943 18.6094 80.9768 18.6379C80.9592 18.6663 81.0058 18.705 81.0806 18.7238C81.1554 18.7427 81.2343 18.7871 81.256 18.8229C81.2774 18.8584 81.3906 18.9517 81.5072 19.03C81.6238 19.1082 81.7031 19.1722 81.6836 19.1722C81.6638 19.1722 81.7481 19.2773 81.8708 19.4057C82.1348 19.6818 82.2805 19.8687 82.2805 19.9317C82.2805 19.9569 82.3105 19.9601 82.3469 19.939C82.3837 19.9179 82.3977 19.9183 82.3786 19.94C82.3591 19.9614 82.437 20.1624 82.5514 20.3864C82.6661 20.6104 82.7598 20.8181 82.7601 20.8481C82.7604 20.8785 82.7959 20.9708 82.839 21.0536C82.8821 21.1363 82.933 21.3571 82.9524 21.5447C82.9716 21.7323 83.0055 21.8741 83.0279 21.8604C83.087 21.824 83.0934 23.2712 83.0346 23.3443C83.0074 23.3782 82.9697 23.537 82.9505 23.6968C82.9317 23.8569 82.8908 24.0032 82.8601 24.0224C82.8291 24.0412 82.8061 24.0783 82.809 24.1042C82.8119 24.1304 82.7856 24.2234 82.7508 24.3112C82.716 24.3991 82.6824 24.495 82.6761 24.5244C82.639 24.695 82.5811 24.8174 82.5374 24.8174C82.5099 24.8174 82.5019 24.8414 82.5201 24.8704C82.5383 24.8998 82.5319 24.9238 82.5061 24.9238C82.4802 24.9238 82.4054 25.0315 82.3396 25.1634C82.2738 25.2951 82.1999 25.4031 82.176 25.4031C82.152 25.4031 82.1165 25.4657 82.0974 25.5424C82.0779 25.6191 82.0491 25.669 82.0335 25.653C82.0005 25.6201 81.535 26.0917 81.535 26.1582C81.535 26.1821 81.5027 26.2019 81.4631 26.2019C81.4238 26.2019 81.3487 26.2492 81.2963 26.3071C81.2439 26.3652 81.1803 26.3994 81.1547 26.3838C81.1289 26.3678 81.094 26.3914 81.0768 26.4362C81.0483 26.5109 80.9215 26.5761 80.7448 26.6074C80.7055 26.6141 80.6317 26.6576 80.5809 26.7039C80.5297 26.7499 80.4179 26.788 80.3326 26.7886C80.223 26.7892 80.1987 26.8033 80.2501 26.8359C80.3163 26.8778 79.9031 26.9701 79.7568 26.9461C79.7309 26.942 79.6916 26.9675 79.6695 27.0033C79.6088 27.1011 78.2661 27.0941 78.1441 26.995C78.0648 26.9308 78.0591 26.9314 78.1 27.0008C78.1377 27.0647 78.1316 27.0688 78.0703 27.0209C78.0278 26.9883 77.8977 26.9442 77.7804 26.9228C77.6635 26.9017 77.5548 26.8643 77.5395 26.8394C77.5245 26.8145 77.4424 26.7816 77.3574 26.7662C77.2727 26.7509 77.1893 26.7167 77.1724 26.6905C77.1551 26.6643 77.0455 26.6097 76.9282 26.5688C76.811 26.5282 76.6646 26.441 76.6026 26.3751C76.5406 26.309 76.4636 26.2553 76.4314 26.2553C76.3991 26.2553 76.347 26.2074 76.3157 26.1486C76.2844 26.0901 76.2253 26.0422 76.184 26.0422C76.1428 26.0422 76.092 26.0144 76.0709 25.9808C76.046 25.9399 76.0565 25.9338 76.1029 25.9623C76.1489 25.9907 76.1598 25.9847 76.1345 25.9438C76.1137 25.9102 76.062 25.8824 76.0198 25.8824C75.9776 25.8824 75.9431 25.8575 75.9431 25.8271C75.9431 25.7964 75.8485 25.6792 75.7335 25.5661C75.6181 25.4533 75.5367 25.3478 75.5523 25.3322C75.5824 25.3024 75.5025 25.1909 75.344 25.0414C75.2925 24.9928 75.2507 24.8989 75.2507 24.8321C75.2507 24.7653 75.2286 24.7107 75.2018 24.7107C75.1746 24.7107 75.1369 24.6388 75.1174 24.5506C75.0979 24.4624 75.0628 24.4023 75.0391 24.417C75.0158 24.4314 74.9803 24.3359 74.9605 24.2042C74.9407 24.0729 74.9056 23.9652 74.8819 23.9652C74.8586 23.9652 74.8516 23.9016 74.8663 23.8243C74.8838 23.7332 74.8733 23.6955 74.8372 23.7179C74.7522 23.7703 74.6979 22.9273 74.7365 22.1579C74.7573 21.7518 74.7937 21.4811 74.8311 21.4581C74.8679 21.4354 74.8784 21.3645 74.8573 21.2814C74.8382 21.205 74.8439 21.1427 74.8701 21.1427C74.8963 21.1427 74.9324 21.0497 74.9506 20.9366C74.9685 20.8232 75.0196 20.7005 75.0637 20.6637C75.1078 20.627 75.1443 20.5641 75.1443 20.5238C75.1443 20.4832 75.1682 20.4503 75.1973 20.4503C75.2267 20.4503 75.2459 20.4324 75.2401 20.4104C75.2219 20.342 75.3088 20.1308 75.3548 20.1308C75.3791 20.1308 75.4143 20.0697 75.4328 19.9956C75.4517 19.9211 75.49 19.8745 75.5184 19.8921C75.5469 19.9096 75.5702 19.8876 75.5702 19.8432C75.5702 19.7988 75.6357 19.7013 75.7162 19.6268C75.7964 19.5527 75.8447 19.4917 75.8236 19.4917C75.8025 19.4917 75.8664 19.4076 75.9661 19.3054C76.0658 19.2028 76.169 19.1188 76.1955 19.1188C76.2221 19.1188 76.3004 19.059 76.3691 18.9859C76.4378 18.9127 76.5234 18.8526 76.5592 18.8526C76.5946 18.8526 76.6378 18.8165 76.6547 18.7727C76.6713 18.7286 76.7218 18.6928 76.7669 18.6928C76.8116 18.6928 76.8484 18.6708 76.8484 18.644C76.8484 18.6168 76.9206 18.5791 77.0084 18.5596C77.0966 18.5401 77.1567 18.505 77.1423 18.4813C77.1276 18.4577 77.1992 18.4225 77.3015 18.4033C77.4037 18.3842 77.4874 18.3439 77.4874 18.3142C77.4874 18.2829 77.5357 18.2749 77.6005 18.2957C77.6718 18.318 77.7012 18.3113 77.6801 18.2771C77.659 18.2429 77.7958 18.2087 78.0463 18.1851C78.2661 18.1647 78.446 18.1266 78.446 18.1007C78.446 18.0404 79.2292 18.0388 79.2666 18.0991ZM106.751 23.4306C106.781 23.4543 106.931 23.491 107.084 23.5114C107.238 23.5322 107.364 23.5677 107.364 23.5907C107.364 23.6134 107.481 23.6476 107.624 23.6664C107.768 23.6856 107.995 23.7597 108.13 23.8316C108.269 23.9054 108.414 23.9473 108.464 23.9278C108.521 23.9061 108.54 23.9147 108.517 23.9518C108.496 23.9869 108.547 24.0243 108.647 24.0463L108.813 24.0828L108.783 24.4502C108.766 24.6522 108.726 24.8672 108.693 24.9283C108.661 24.989 108.646 25.0711 108.662 25.111C108.677 25.1507 108.668 25.1906 108.642 25.1999C108.616 25.2091 108.583 25.2868 108.567 25.3721C108.552 25.4577 108.517 25.5418 108.488 25.559C108.46 25.5763 108.422 25.6546 108.402 25.7325C108.382 25.8108 108.331 25.8882 108.288 25.9048C108.245 25.9214 108.225 25.9591 108.243 25.9888C108.261 26.0185 108.239 26.0572 108.193 26.0748C108.147 26.0923 108.11 26.1403 108.11 26.1808C108.11 26.2217 108.082 26.2553 108.048 26.2553C108.013 26.2553 107.999 26.269 108.016 26.2857C108.052 26.3218 107.585 26.7876 107.513 26.7876C107.486 26.7876 107.481 26.8154 107.502 26.8493C107.524 26.8841 107.517 26.8963 107.487 26.8778C107.457 26.8595 107.376 26.8979 107.307 26.9628C107.237 27.0276 107.161 27.0807 107.137 27.0807C107.113 27.0807 107.077 27.1075 107.056 27.1401C107.035 27.1727 106.959 27.2177 106.887 27.2404C106.815 27.2628 106.727 27.311 106.69 27.3475C106.654 27.3839 106.514 27.4302 106.38 27.4504C106.247 27.4705 106.149 27.506 106.164 27.5296C106.193 27.5766 105.765 27.6383 105.393 27.6402C105.219 27.6411 105.176 27.6555 105.234 27.6932C105.293 27.7316 105.266 27.744 105.127 27.7418C104.972 27.7392 104.959 27.7309 105.047 27.6907C105.125 27.6555 105.076 27.6437 104.861 27.6472C104.527 27.6523 104.125 27.5922 104.088 27.5312C104.073 27.5085 104.014 27.5024 103.956 27.5178C103.897 27.5331 103.849 27.521 103.849 27.4906C103.849 27.4603 103.777 27.4194 103.689 27.4002C103.601 27.3807 103.541 27.3452 103.556 27.3213C103.57 27.297 103.511 27.2523 103.423 27.2219C103.335 27.1912 103.263 27.1407 103.263 27.1101C103.263 27.0794 103.227 27.0541 103.184 27.0541C103.139 27.0541 103.109 27.0359 103.117 27.0142C103.124 26.9922 103.109 26.9743 103.083 26.9743C103.057 26.9743 103.015 26.9187 102.99 26.8509C102.965 26.7832 102.923 26.741 102.897 26.7573C102.87 26.7736 102.833 26.7263 102.815 26.6522C102.794 26.5704 102.757 26.5317 102.721 26.5541C102.683 26.578 102.676 26.5672 102.703 26.5237C102.726 26.4854 102.716 26.4387 102.679 26.4157C102.642 26.3933 102.6 26.2646 102.585 26.1297C102.57 25.9949 102.536 25.8974 102.511 25.9131C102.448 25.9521 102.451 25.4788 102.515 25.3625C102.568 25.2647 102.649 24.8743 102.632 24.8001C102.626 24.7759 102.646 24.7714 102.676 24.7899C102.706 24.8084 102.734 24.7982 102.737 24.7672C102.752 24.648 102.761 24.6266 102.864 24.4828C103.046 24.2298 103.359 23.9192 103.396 23.9559C103.415 23.9751 103.455 23.9486 103.484 23.8971C103.513 23.8454 103.559 23.8172 103.586 23.8342C103.614 23.8514 103.65 23.8303 103.667 23.7875C103.683 23.7444 103.785 23.6929 103.893 23.6725C104 23.6524 104.104 23.6108 104.123 23.5801C104.142 23.5498 104.28 23.5127 104.429 23.4983C104.579 23.484 104.701 23.4527 104.701 23.4284C104.701 23.3351 106.634 23.337 106.751 23.4306Z" fill="white"/>
</g>
<defs>
<clipPath id="clip0_503_24">
<rect width="127.814" height="40" fill="white"/>
</clipPath>
</defs>
</svg>
